<svg xmlns="http://www.w3.org/2000/svg" width="15" height="15" viewBox="0 0 15 15">
  <path d="M12.0070272,4.50703769 L12.0070272,2.9929538 L2.9929538,2.9929538 L2.9929538,4.50703769 L12.0070272,4.50703769 Z M9.01407437,9.01407437 L9.01407437,7.49999049 L2.9929538,7.49999049 L2.9929538,9.01407437 L9.01407437,9.01407437 Z M2.9929538,5.24647214 L2.9929538,6.76055603 L12.0070272,6.76055603 L12.0070272,5.24647214 L2.9929538,5.24647214 Z M13.521091,0 C13.9202142,0 14.2605455,0.15258122 14.5421852,0.457745663 C14.8473617,0.739435456 15,1.07980687 15,1.47886991 L15,10.4929633 C15,10.8919863 14.8473617,11.2441361 14.5421852,11.5493126 C14.2605455,11.854489 13.9202142,12.0070272 13.521091,12.0070272 L2.9929538,12.0070272 L0,15 L0,1.47886991 C0,1.07980687 0.140844896,0.739435456 0.422534689,0.457745663 C0.727697129,0.15258122 1.07980687,0 1.47886991,0 L13.521091,0 Z"/>
</svg>
