<svg fill="none" xmlns="http://www.w3.org/2000/svg" viewBox="0 0 44 40">
    <path d="M22.281 14.33a4.488 4.488 0 1 0 0 8.976 4.488 4.488 0 0 0 0-8.977m0 6.839a2.351 2.351 0 1 1 0-4.702 2.351 2.351 0 0 1 0 4.702" fill="currentColor"/>
    <path d="M40.182 4.07 11.008.758a4 4 0 0 0-3.152.908 4.06 4.06 0 0 0-1.55 2.779l-.534 4.381H4.116C1.765 8.826 0 10.91 0 13.261v21.853a4.06 4.06 0 0 0 4.115 4.168h29.333c2.352 0 4.489-1.817 4.489-4.168v-.855a5.3 5.3 0 0 0 2.03-.855 4.43 4.43 0 0 0 1.55-2.885l2.457-21.693a4.33 4.33 0 0 0-3.793-4.756M35.8 35.114c0 1.176-1.175 2.03-2.35 2.03H4.115a1.924 1.924 0 0 1-1.977-2.03V31.16l8.282-6.091a2.565 2.565 0 0 1 3.312.16l5.824 5.13a5.02 5.02 0 0 0 3.153 1.175c.903.011 1.79-.23 2.565-.694L35.8 24.748zm0-12.877-11.648 6.786c-1 .593-2.266.485-3.152-.267l-5.877-5.183a4.756 4.756 0 0 0-5.931-.214l-7.053 5.13V13.26c0-1.176.801-2.298 1.977-2.298h29.333a2.46 2.46 0 0 1 2.352 2.298zm6.04-13.7-.002.022-2.511 21.693a1.82 1.82 0 0 1-.695 1.442c-.213.214-.694.321-.694.428V13.26a4.595 4.595 0 0 0-4.489-4.435H7.91l.481-4.168c.105-.54.387-1.028.802-1.389a2.46 2.46 0 0 1 1.603-.427l29.12 3.366a2.137 2.137 0 0 1 1.925 2.33" fill="currentColor"/>
</svg>
