<svg xmlns="http://www.w3.org/2000/svg" viewBox="0 0 40 35">
    <path d="M15.475 27.82h-9.14c-.5 0-.905.402-.905.898 0 .495.405.897.905.897h9.14c.5 0 .905-.402.905-.897a.9.9 0 0 0-.905-.898m13.664 0h-9.14c-.5 0-.905.402-.905.898 0 .495.405.897.905.897h9.14c.5 0 .905-.402.905-.897a.9.9 0 0 0-.905-.898m.001-22.435H6.335c-.5 0-.905.401-.905.897s.405.898.905.898H29.14c.5 0 .905-.402.905-.898a.9.9 0 0 0-.905-.897m-.001 4.487h-9.14c-.5 0-.905.402-.905.897 0 .496.405.898.905.898h9.14c.5 0 .905-.402.905-.898a.9.9 0 0 0-.905-.897m0 4.487h-9.14c-.5 0-.905.402-.905.897 0 .496.405.898.905.898h9.14c.5 0 .905-.402.905-.898a.9.9 0 0 0-.905-.897m0 4.487h-9.14c-.5 0-.905.402-.905.897 0 .496.405.898.905.898h9.14c.5 0 .905-.402.905-.898a.9.9 0 0 0-.905-.897m0 4.487h-9.14c-.5 0-.905.402-.905.898 0 .495.405.897.905.897h9.14c.5 0 .905-.402.905-.897a.9.9 0 0 0-.905-.898m-13.664 0h-9.14c-.5 0-.905.402-.905.898 0 .495.405.897.905.897h9.14c.5 0 .905-.402.905-.897a.9.9 0 0 0-.905-.898m0-13.461h-9.14c-.5 0-.905.402-.905.897v9.064c0 .496.405.898.905.898h9.14c.5 0 .905-.402.905-.898V10.77a.9.9 0 0 0-.905-.897m-.905 9.064H7.24v-7.27h7.33z"/>
    <path d="M38.19 4.487h-2.715V1.795c0-.99-.812-1.795-1.81-1.795H1.81C.812 0 0 .805 0 1.795v28.718C0 32.987 2.03 35 4.525 35h30.95C37.97 35 40 32.987 40 30.513V6.282c0-.99-.812-1.795-1.81-1.795m0 26.026c0 1.484-1.218 2.692-2.715 2.692H4.525c-1.497 0-2.715-1.208-2.715-2.692V1.795h31.855v27.372a2.256 2.256 0 0 0 2.263 2.243c.5 0 .905-.402.905-.897a.9.9 0 0 0-.905-.898.45.45 0 0 1-.453-.448V6.282h2.715z"/>
</svg>
