<svg xmlns="http://www.w3.org/2000/svg" width="17" height="22" viewBox="0 0 17 22">
  <path d="M9.0044371,0 C3.00505242,0 0,4.30762 0,7.89551 C0,10.0547 0.815657514,11.9883 2.57575636,12.7295 C2.8762706,12.8369 3.13384424,12.7295 3.2089653,12.3965 C3.26262606,12.1924 3.41288817,11.6338 3.46654893,11.3867 C3.54167,11.0752 3.50947954,10.9785 3.28409636,10.6992 C2.77967924,10.0869 2.44697454,9.32422 2.44697454,8.19629 C2.44697454,5.0166 4.84028832,2.15918 8.68246256,2.15918 C12.0631303,2.15918 13.9198265,4.22168 13.9198265,7.00391 C13.9198265,10.6455 12.320694,13.7285 9.92741014,13.7285 C8.59660135,13.7285 7.60922741,12.6328 7.90973166,11.2793 C8.29609711,9.67871 9.03662757,7.94922 9.03662757,6.7998 C9.03662757,5.75781 8.47854968,4.90918 7.33018348,4.90918 C5.97791438,4.90918 4.91540939,6.28418 4.91540939,8.1748 C4.91540939,9.36719 5.29104469,10.1836 5.29104469,10.1836 C5.29104469,10.1836 3.9173053,16.0381 3.69192212,17.0586 C3.2089653,19.0996 3.61680105,21.6133 3.63826136,21.8711 C3.67046181,22 3.84217424,22.0537 3.94949576,21.9248 C4.07828757,21.7744 5.67741014,19.7871 6.21402772,17.7998 C6.38574014,17.2412 7.10481029,14.3408 7.10481029,14.3408 C7.55556666,15.1787 8.83271469,15.8877 10.2064341,15.8877 C14.2525212,15.8877 17,12.1924 17,7.22949 C17,3.49121 13.8446955,0 9.0044371,0 Z"/>
</svg>
