<svg xmlns="http://www.w3.org/2000/svg" viewBox="0 0 44 38">
    <path d="M39.746 0c-2.346 0-4.254 1.891-4.254 4.216 0 1.28.578 2.427 1.489 3.2L29.127 20.44a4.27 4.27 0 0 0-2.593-.079l-6.711-7.133a4.2 4.2 0 0 0 .403-1.79c0-2.324-1.909-4.216-4.254-4.216-2.346 0-4.255 1.891-4.255 4.216 0 1.196.505 2.275 1.314 3.043l-8.174 15.13a4 4 0 0 0-.603-.044C1.909 29.567 0 31.458 0 33.784 0 36.108 1.909 38 4.254 38c2.346 0 4.254-1.891 4.254-4.216 0-1.165-.478-2.22-1.25-2.984l8.2-15.177q.252.031.514.032c.722 0 1.403-.18 2-.496l6.33 6.73a4.17 4.17 0 0 0-.85 2.525c0 2.325 1.908 4.216 4.254 4.216s4.254-1.891 4.254-4.216c0-.857-.26-1.655-.704-2.32l8.242-13.669q.123.008.248.008C42.092 8.433 44 6.542 44 4.217S42.092 0 39.746 0M4.254 35.34a1.566 1.566 0 0 1-1.571-1.556c0-.86.705-1.558 1.571-1.558.867 0 1.571.699 1.571 1.558 0 .858-.704 1.557-1.57 1.557m11.718-22.344a1.566 1.566 0 0 1-1.572-1.558c0-.858.705-1.557 1.572-1.557.866 0 1.57.699 1.57 1.557 0 .86-.704 1.558-1.57 1.558M27.706 25.97a1.566 1.566 0 0 1-1.571-1.557c0-.859.705-1.557 1.571-1.557.867 0 1.571.698 1.571 1.557s-.705 1.557-1.57 1.557m12.04-20.197a1.566 1.566 0 0 1-1.571-1.557c0-.86.705-1.558 1.571-1.558s1.571.699 1.571 1.557c0 .86-.705 1.558-1.571 1.558"/>
</svg>
