<svg width="17" height="14" viewBox="0 0 17 14" xmlns="http://www.w3.org/2000/svg">
<path d="M15 3.67969V2L8.32031 6.17969L1.64062 2V3.67969L8.32031 7.82031L15 3.67969ZM15 0.320312C15.4427 0.320312 15.8203 0.489583 16.1328 0.828125C16.4714 1.16667 16.6406 1.55729 16.6406 2V12C16.6406 12.4427 16.4714 12.8333 16.1328 13.1719C15.8203 13.5104 15.4427 13.6797 15 13.6797H1.64062C1.19792 13.6797 0.807292 13.5104 0.46875 13.1719C0.15625 12.8333 0 12.4427 0 12V2C0 1.55729 0.15625 1.16667 0.46875 0.828125C0.807292 0.489583 1.19792 0.320312 1.64062 0.320312H15Z" />
</svg>
