<svg xmlns="http://www.w3.org/2000/svg" width="44" height="39" viewBox="0 0 44 39">
  <path d="M22.2812,13.7654044 C19.8025,13.7654044 17.793,15.7975123 17.793,18.3044261 C17.793,20.8111375 19.8024,22.8433466 22.2812,22.8433466 C24.76,22.8433466 26.7695,20.8112386 26.7695,18.3044261 C26.7695,15.7975123 24.7601,13.7654044 22.2812,13.7654044 Z M22.2812,20.6818933 C20.9828,20.6818933 19.9302,19.617398 19.9302,18.3042238 C19.9302,16.9911508 20.9828,15.9266555 22.2812,15.9266555 C23.5797,15.9266555 24.6322,16.9911508 24.6322,18.3042238 C24.6322,19.617398 23.5797,20.6818933 22.2812,20.6818933 Z"/>
  <path d="M40.1818,3.39045869 L11.0084,0.0403627693 C9.87611,-0.122426331 8.72894,0.211849057 7.85595,0.958998136 C6.98307,1.6434769 6.42355,2.65809483 6.30645,3.76878635 L5.77218,8.19971007 L4.1157,8.19971007 C1.7647,8.19971007 0.00144395253,10.3069577 0.00144395253,12.6846272 L0.00144395253,34.7848884 C-0.0577708975,37.0521238 1.71162,38.9387055 3.9536,38.9985745 C4.0076,39 4.0617,39.0003949 4.1157,38.9995858 L33.4494,38.9995858 C35.8005,38.9995858 37.9377,37.1624567 37.9377,34.7848884 L37.9377,33.9203272 C38.6666,33.7779361 39.358,33.4834453 39.9681,33.0557661 C40.8338,32.3186289 41.3881,31.2747642 41.5176,30.1379609 L43.9755,8.19971007 C44.226,5.81664026 42.535,3.67291503 40.1818,3.39045869 Z M35.8006,34.7848884 C35.8006,35.9736725 34.625,36.8382336 33.4494,36.8382336 L4.1157,36.8382336 C3.05382,36.8697862 2.16775,36.0247432 2.13655,34.9508428 C2.13492,34.8955247 2.13569928,34.8402065 2.1387,34.7848884 L2.1387,30.7863059 L10.4206,24.62627 C11.4155,23.8538384 12.8168,23.9225058 13.7334,24.7883816 L19.5574,29.9757482 C20.4418,30.7267402 21.5551,31.1465312 22.7099,31.1645324 C23.6127,31.1757578 24.5007,30.93254 25.2746,30.4620828 L35.8006,24.302047 L35.8006,34.7848884 L35.8006,34.7848884 Z M35.8005,21.7624682 L24.1524,28.6248525 C23.1522,29.2241494 21.8862,29.1156368 20.9999,28.3547341 L15.1225,23.1132628 C13.438,21.6495059 10.9759,21.5597024 9.19161,22.8971478 L2.1387,28.0845145 L2.1387,12.6846272 C2.1387,11.495843 2.9402,10.3610623 4.1157,10.3610623 L33.4494,10.3610623 C34.7053,10.4137511 35.7196,11.4161525 35.8005,12.6846272 L35.8005,21.7624682 Z M41.8403,7.90794977 C41.8396,7.91502888 41.8389,7.92231025 41.8381,7.92938935 L39.3269,29.8676402 C39.3312,30.4364969 39.0747,30.975318 38.6322,31.3266439 C38.4185,31.5427589 37.9376,31.650867 37.9376,31.758975 L37.9376,12.6846272 C37.8532,10.2229186 35.8843,8.25543275 33.4493,8.19971007 L7.90934,8.19971007 L8.39021,3.98495191 C8.49453,3.43917306 8.7767,2.94458626 9.19171,2.58000218 C9.66032,2.25235081 10.2269,2.0995837 10.7947,2.14768117 L39.9148,5.55186147 C41.0897,5.66470242 41.9518,6.7195499 41.8403,7.90794977 Z"/>
</svg>
