<svg width="23" height="15" viewBox="0 0 23 15" xmlns="http://www.w3.org/2000/svg">
<path d="M12.9631 0.943115H2.79801C1.4573 0.943115 0.360352 2.04006 0.360352 3.38078V11.5957C0.360352 12.9364 1.4573 14.0334 2.79801 14.0334H12.9631C14.3038 14.0334 15.4007 12.9364 15.4007 11.5957V3.38078C15.4007 2.01569 14.3038 0.943115 12.9631 0.943115Z" />
<path d="M20.8363 2.28383C20.69 2.30821 20.5438 2.38134 20.4219 2.45447L16.6191 4.64836V10.3037L20.4463 12.4976C21.1532 12.912 22.0308 12.6683 22.4452 11.9614C22.567 11.742 22.6402 11.4982 22.6402 11.2301V3.69768C22.6402 2.79574 21.787 2.06444 20.8363 2.28383Z" />
</svg>
