<svg width="100" height="100" viewBox="0 0 100 100" fill="none" xmlns="http://www.w3.org/2000/svg">
<path d="M80 62.9784C80 56.0968 77.3627 52.3544 73.7845 50.3426C73.49 30.7542 66.1209 22 50 22C33.8791 22 26.4909 30.7733 26.2127 50.4136C22.7873 52.4062 20 56.105 20 62.9784C20 76.3267 29.9218 77.869 37.3864 77.869C38.5618 77.869 39.6036 77.1156 39.9745 75.9964C42.7564 67.6025 42.7564 58.3515 39.9745 49.9577C39.6036 48.8412 38.5618 48.0851 37.3864 48.0851C36.0936 48.0851 34.0073 48.0851 31.7218 48.4891C32.4555 31.1281 39.5818 27.454 50 27.454C60.4182 27.454 67.5473 31.1309 68.2782 48.5C66.3636 48.1752 64.4164 48.0851 62.6136 48.0851C61.4382 48.0851 60.3964 48.8385 60.0255 49.9577C57.6227 57.2105 57.2982 65.0994 59.0464 72.5269C56.1445 72.5761 53.3655 72.4915 50.7445 72.2785C49.2145 72.1666 47.9273 73.2776 47.8073 74.7817C47.6873 76.283 48.8055 77.5987 50.3055 77.7216C52.5936 77.9045 54.9909 78 57.4755 78C59.1745 78 60.9145 77.9563 62.6873 77.869C67.0591 77.869 80 77.7871 80 62.9784ZM35.3736 72.3632C28.0945 71.9865 25.4545 69.385 25.4545 62.9784C25.4545 56.5718 28.0945 53.9704 35.3736 53.5937C37.0209 59.7109 37.0209 66.2431 35.3736 72.3604V72.3632ZM64.6264 72.3632C62.9791 66.2459 62.9791 59.7109 64.6264 53.5964C71.9055 53.9731 74.5455 56.5745 74.5455 62.9811C74.5455 69.3878 71.9055 71.9865 64.6264 72.3632Z" fill="black"/>
</svg>
