<svg xmlns="http://www.w3.org/2000/svg" viewBox="0 0 43 29">
    <path d="M37.615 2.655C34.425 1.322 30.023.42 25.222.117a.835.835 0 0 0-.892.772c-.03.456.322.85.785.879C35.259 2.41 41.32 5.503 41.32 8.122c0 1.951-3.303 4.005-8.416 5.232a.83.83 0 0 0-.64.804v1.728a56.6 56.6 0 0 0-21.527 0v-1.728a.83.83 0 0 0-.642-.804c-1.914-.463-3.822-1.052-5.548-2.007-1.196-.66-2.867-1.69-2.867-3.225 0-2.617 6.056-5.709 16.19-6.353a.83.83 0 0 0 .785-.879.837.837 0 0 0-.892-.772C12.965.422 8.568 1.324 5.38 2.657 1.86 4.128 0 6.018 0 8.122v14.016c0 2.868 3.535 5.36 9.698 6.84.52.124 1.039-.277 1.039-.805v-10.6a54.9 54.9 0 0 1 21.526 0v10.6c0 .528.518.929 1.039.804C39.465 27.499 43 25.007 43 22.138V8.122c0-2.105-1.862-3.996-5.385-5.467M9.057 27.102c-4.508-1.241-7.366-3.14-7.377-4.953V11.381c2.003 1.815 4.79 2.75 7.377 3.421zm32.263-4.984v.031c-.011 1.813-2.87 3.712-7.377 4.953v-12.3c2.584-.67 5.374-1.607 7.377-3.422z"/>
    <path d="M21.49 6.773c-3.97 0-7.775.531-11.141 1.542q.288-.493.59-.979a.82.82 0 0 0-.276-1.138.847.847 0 0 0-1.155.273 42 42 0 0 0-1.673 2.943.83.83 0 0 0 .453 1.15c1 .37 1.99.784 2.94 1.233a.853.853 0 0 0 1.12-.39.82.82 0 0 0-.394-1.103q-.486-.228-.982-.445c6.48-1.906 14.576-1.905 21.055.005q-.493.214-.975.442a.82.82 0 0 0-.395 1.103.853.853 0 0 0 1.12.39 37 37 0 0 1 2.933-1.23.83.83 0 0 0 .453-1.15 42 42 0 0 0-1.676-2.95.847.847 0 0 0-1.155-.273.82.82 0 0 0-.277 1.138q.305.489.594.985C29.282 7.306 25.473 6.774 21.5 6.773zM14.661 20.11c-1.077 0-2.01.755-2.216 1.795a.83.83 0 0 0 .662.971.84.84 0 0 0 .986-.652.58.58 0 0 1 .568-.46c.32 0 .58.256.58.571s-.26.57-.58.57c-.463 0-.84.371-.84.828s.377.828.84.828c.32 0 .58.256.58.57 0 .315-.26.571-.58.571a.58.58 0 0 1-.579-.57.834.834 0 0 0-.84-.828c-.464 0-.84.37-.84.827q0 .156.022.31c.155 1.092 1.117 1.916 2.237 1.916 1.246 0 2.26-.998 2.26-2.226 0-.529-.19-1.015-.504-1.398.315-.382.503-.869.503-1.398 0-1.227-1.013-2.225-2.259-2.225m5.703 2.344c.362-.48.697-.738.729-.762a.82.82 0 0 0 .17-1.155.85.85 0 0 0-1.176-.17c-.08.059-1.967 1.47-2.299 4.11q-.03.186-.03.379c0 1.327 1.096 2.407 2.444 2.407s2.443-1.08 2.443-2.407c0-1.274-1.009-2.319-2.28-2.402m-.162 3.155a.76.76 0 0 1-.765-.753.76.76 0 0 1 .765-.753.76.76 0 0 1 .764.753.76.76 0 0 1-.764.753m5.632-5.547c-1.347 0-2.443 1.08-2.443 2.408v2.527c0 1.327 1.096 2.407 2.443 2.407 1.348 0 2.444-1.08 2.444-2.407V22.47c0-1.328-1.096-2.408-2.444-2.408m.764 4.935a.76.76 0 0 1-.764.752.76.76 0 0 1-.764-.752V22.47a.76.76 0 0 1 .764-.753.76.76 0 0 1 .764.753zm4.315-4.084a.844.844 0 0 0-1.595.135c-.167.723.687 1.28 1.302.857.318-.219.44-.639.293-.992M21.036 1.515c.634.417 1.479-.187 1.275-.908A.845.845 0 0 0 21.543 0a.85.85 0 0 0-.824.529.83.83 0 0 0 .317.985"/>
</svg>
