<svg width="372" height="68" viewBox="0 0 372 68" fill="none" xmlns="http://www.w3.org/2000/svg">
<path d="M89.3718 24.2293H88.5013C87.9085 20.8681 85.6777 17.1755 82.0194 17.1755C80.2754 17.1755 78.4985 18.4462 78.4985 20.9906C78.4985 27.1395 90.1378 27.9608 90.1378 36.3659C90.1378 39.8525 87.7682 43.7886 82.7869 43.7886C80.1365 43.7886 78.4298 42.3939 77.3831 42.3939C76.6514 42.3939 76.302 43.0897 76.302 43.7467H75.536L74.4893 35.0534H75.2911C75.9556 36.9811 77.7325 42.3103 82.436 42.3103C85.2238 42.3103 86.6169 39.9735 86.6169 37.7591C86.6169 35.4222 86.0615 34.0276 80.9383 30.5022C77.7325 28.3296 75.5016 26.5258 75.5016 22.4674C75.5016 17.7922 78.6717 15.4957 81.8103 15.4957C83.9008 15.4957 85.7822 16.8888 86.6542 16.8888C87.6293 16.8888 87.804 15.9466 87.8742 15.4957H88.6043L89.3718 24.2293Z" fill="#231F20" stroke="white" stroke-width="0.000227273"/>
<path d="M99.2001 26.0727H95.6792V37.7987C95.6792 39.0709 95.6792 41.4884 97.4561 41.4884C98.573 41.4884 99.2001 40.588 99.5838 40.0534L100.036 40.5044C99.2001 42.2678 97.5621 43.6221 95.9584 43.6221C94.1815 43.6221 92.7525 42.5142 92.7525 38.4154V26.0727H90.9055C90.8353 26.0324 90.7666 25.9085 90.7666 25.786C90.7666 25.2933 91.5311 25.0484 92.2986 24.1465C93.6245 22.5473 94.1457 21.6454 95.4358 19.4714C95.6792 19.4714 95.6792 19.6759 95.6792 20.0059V24.7602H99.2001V26.0727Z" fill="#231F20" stroke="white" stroke-width="0.000227273"/>
<path d="M101.745 41.4484C101.745 40.1359 102.615 39.1131 103.662 39.1131C104.705 39.1131 105.612 40.1792 105.612 41.4484C105.612 42.9685 104.392 43.6643 103.662 43.6643C102.929 43.6643 101.745 43.0088 101.745 41.4484Z" fill="#231F20"/>
<path d="M101.745 41.4484C101.745 40.1359 102.615 39.1131 103.662 39.1131C104.705 39.1131 105.612 40.1792 105.612 41.4484C105.612 42.9685 104.392 43.6643 103.662 43.6643C102.929 43.6643 101.745 43.0088 101.745 41.4484Z" stroke="#231F20" stroke-width="0.000227273"/>
<path d="M138.653 29.4375C137.119 29.6003 136.211 29.6824 136.211 32.5956V40.8365C136.211 41.4084 131.575 43.7886 127.742 43.7886C124.293 43.7886 120.422 42.5582 117.95 39.4001C116.104 37.0214 115.057 34.604 115.057 29.2315C115.057 22.3449 119.588 15.4957 126.976 15.4957C130.497 15.4957 132.099 16.8485 133.214 16.8485C133.494 16.8485 134.642 16.6439 134.853 15.4957H135.62L135.898 24.1487H135.096C134.157 21.1952 132.344 17.1367 127.464 17.1367C124.152 17.1367 119.031 19.7214 119.031 30.0931C119.031 37.5142 122.655 42.149 128.057 42.149C130.427 42.149 132.832 41.2053 132.832 39.7271V33.0869C132.832 29.6824 132.135 29.6421 129.764 29.4375V28.6984H138.653V29.4375Z" fill="#231F20" stroke="white" stroke-width="0.000227273"/>
<path d="M152.625 36.4902C151.826 38.0073 150.326 40.7951 147.224 40.7951C144.925 40.7951 142.103 39.1153 141.683 31.8584H152.522C152.138 26.4859 149.666 24.3536 146.388 24.3536C143.6 24.3536 139.276 26.8547 139.276 34.4401C139.276 40.262 141.926 43.6262 145.795 43.6262C150.814 43.6262 152.836 38.0476 153.184 36.7769L152.625 36.4902ZM141.786 30.5459C142.344 26.9368 143.703 25.8289 145.621 25.8289C148.374 25.8289 148.723 28.5764 148.968 30.5459H141.786Z" fill="#231F20" stroke="white" stroke-width="0.000227273"/>
<path d="M161.723 24.3536C157.052 24.3536 154.194 28.8227 154.194 33.8667C154.194 39.4005 157.331 43.6262 161.829 43.6262C167.127 43.6262 169.565 37.9252 169.565 33.8667C169.565 27.9209 166.288 24.3536 161.723 24.3536ZM162.317 42.4764C158.133 42.4764 157.331 34.9329 157.331 31.8987C157.331 27.6327 159.249 25.5019 161.445 25.5019C164.649 25.5019 166.426 29.9695 166.426 35.0553C166.426 40.919 164.093 42.4764 162.317 42.4764Z" fill="#231F20"/>
<path d="M161.723 24.3536C157.052 24.3536 154.194 28.8227 154.194 33.8667C154.194 39.4005 157.331 43.6262 161.829 43.6262C167.127 43.6262 169.565 37.9252 169.565 33.8667C169.565 27.9209 166.288 24.3536 161.723 24.3536ZM162.317 42.4764C158.133 42.4764 157.331 34.9329 157.331 31.8987C157.331 27.6327 159.249 25.5019 161.445 25.5019C164.649 25.5019 166.426 29.9695 166.426 35.0553C166.426 40.919 164.093 42.4764 162.317 42.4764Z" stroke="white" stroke-width="0.000227273"/>
<path d="M172.562 29.5201C172.562 27.0996 171.899 27.0593 171.342 27.0593C170.855 27.0593 170.471 27.1414 170.158 27.2235V26.568C171.863 25.911 173.608 25.1734 175.317 24.3536L175.488 24.4358V28.0851H175.559C177.198 25.1734 178.381 24.3536 179.707 24.3536C180.891 24.3536 181.588 25.2152 181.588 26.568C181.588 27.5924 181.1 28.3703 180.265 28.3703C179.044 28.3703 178.696 26.9354 177.86 26.9354C177.023 26.9354 175.488 28.9855 175.488 30.2995V39.5244C175.488 42.354 176.675 42.5168 178.452 42.5989V43.2141H170.088V42.5989C172.005 42.1912 172.562 42.0658 172.562 39.7693V29.5201Z" fill="#231F20" stroke="white" stroke-width="0.000227273"/>
<path d="M196.577 27.3057V25.7065H193.895C193.336 25.7065 192.709 25.6243 191.976 25.2973C190.581 24.6821 189.818 24.3536 188.599 24.3536C185.948 24.3536 182.605 26.3217 182.605 31.2014C182.605 33.5785 183.79 35.4659 185.845 36.5321C182.745 39.7693 182.745 40.3024 182.745 41.0012C182.745 42.1494 183.652 42.6407 184.591 43.1753C182.812 44.6505 181.176 46.3319 181.176 48.1759C181.176 50.35 183.79 52.1553 187.344 52.1553C190.48 52.1553 196.263 49.8573 196.263 45.2239C196.263 44.0756 195.776 41.0415 192.046 40.8369L187.552 40.5905C186.508 40.5502 184.834 40.4263 184.834 39.4826C184.834 38.6628 186.227 36.9815 186.925 36.9009C187.134 36.9009 188.388 37.1055 188.806 37.1055C190.758 37.1055 194.346 35.5062 194.346 31.079C194.346 29.0288 194.032 28.2494 193.686 27.3057H196.577ZM185.497 29.1916C185.497 26.4441 186.854 25.5019 188.113 25.5019C191.107 25.5019 191.664 30.9968 191.664 32.1436C191.664 33.047 191.488 36.0811 189.12 36.0811C186.401 36.0811 185.497 32.4318 185.497 29.1916ZM183.614 46.9052C183.614 45.6749 184.243 44.8148 185.324 43.2962C186.962 43.7083 187.725 43.7083 191.003 43.8308C193.578 43.9129 195.285 43.9935 195.285 45.8391C195.285 48.0117 192.918 49.8169 188.842 49.8169C184.867 49.8169 183.614 48.1759 183.614 46.9052Z" fill="#231F20"/>
<path d="M196.577 27.3057V25.7065H193.895C193.336 25.7065 192.709 25.6243 191.976 25.2973C190.581 24.6821 189.818 24.3536 188.599 24.3536C185.948 24.3536 182.605 26.3217 182.605 31.2014C182.605 33.5785 183.79 35.4659 185.845 36.5321C182.745 39.7693 182.745 40.3024 182.745 41.0012C182.745 42.1494 183.652 42.6407 184.591 43.1753C182.812 44.6505 181.176 46.3319 181.176 48.1759C181.176 50.35 183.79 52.1553 187.344 52.1553C190.48 52.1553 196.263 49.8573 196.263 45.2239C196.263 44.0756 195.776 41.0415 192.046 40.8369L187.552 40.5905C186.508 40.5502 184.834 40.4263 184.834 39.4826C184.834 38.6628 186.227 36.9815 186.925 36.9009C187.134 36.9009 188.388 37.1055 188.806 37.1055C190.758 37.1055 194.346 35.5062 194.346 31.079C194.346 29.0288 194.032 28.2494 193.686 27.3057H196.577ZM185.497 29.1916C185.497 26.4441 186.854 25.5019 188.113 25.5019C191.107 25.5019 191.664 30.9968 191.664 32.1436C191.664 33.047 191.488 36.0811 189.12 36.0811C186.401 36.0811 185.497 32.4318 185.497 29.1916ZM183.614 46.9052C183.614 45.6749 184.243 44.8148 185.324 43.2962C186.962 43.7083 187.725 43.7083 191.003 43.8308C193.578 43.9129 195.285 43.9935 195.285 45.8391C195.285 48.0117 192.918 49.8169 188.842 49.8169C184.867 49.8169 183.614 48.1759 183.614 46.9052Z" stroke="white" stroke-width="0.000227273"/>
<path d="M211.144 36.4902C210.343 38.0073 208.845 40.7951 205.744 40.7951C203.446 40.7951 200.619 39.1153 200.202 31.8584H211.041C210.658 26.4859 208.182 24.3536 204.907 24.3536C202.121 24.3536 197.797 26.8547 197.797 34.4401C197.797 40.262 200.446 43.6262 204.315 43.6262C209.332 43.6262 211.355 38.0476 211.701 36.7769L211.144 36.4902ZM200.308 30.5459C200.865 26.9368 202.223 25.8289 204.14 25.8289C206.893 25.8289 207.241 28.5764 207.488 30.5459H200.308Z" fill="#231F20" stroke="white" stroke-width="0.000227273"/>
<path d="M212.991 24.6803C215.292 22.9586 215.849 21.1145 215.849 20.3351C215.849 19.9648 215.604 19.7602 215.364 19.7602C215.292 19.7602 215.189 19.802 215.048 19.8423C214.944 19.8826 214.768 19.9245 214.525 19.9245C213.619 19.9245 212.364 19.5138 212.364 17.8728C212.364 16.1109 213.514 15.4957 214.388 15.4957C215.189 15.4957 217.208 16.0302 217.208 19.4317C217.208 22.3434 214.352 25.0491 213.303 25.4597L212.991 24.6803Z" fill="#231F20" stroke="white" stroke-width="0.000227273"/>
<path d="M227.491 30.3398C226.722 26.1574 225.151 25.2958 223.619 25.2958C221.704 25.2958 220.972 26.895 220.972 27.9627C220.972 28.7824 221.181 29.9695 222.473 30.8744L226.237 33.4964C227.941 34.7268 229.162 35.8751 229.162 38.3343C229.162 41.9031 226.34 43.6247 224.109 43.6247C222.54 43.6247 221.042 42.8453 220.067 42.8856C219.647 42.8856 219.509 43.0095 219.298 43.3798H218.846V36.9815H219.403C219.821 39.1541 220.482 42.7228 223.9 42.7228C225.086 42.7228 226.722 42.0658 226.722 39.729C226.722 38.418 226.028 37.4325 224.912 36.6948L222.889 35.342C220.727 33.907 218.813 32.3915 218.813 29.3573C218.813 27.0593 220.309 24.3536 223.689 24.3536C225.223 24.3536 226.304 25.1734 226.897 25.1734C227.212 25.1734 227.384 24.8867 227.491 24.7225H227.872L228.014 30.3398H227.491Z" fill="#231F20" stroke="white" stroke-width="0.000227273"/>
<path d="M261.088 16.8468C258.403 17.1738 257.809 17.7905 257.809 22.0968V32.797C257.809 36.0775 257.809 43.7868 248.783 43.7868C240.14 43.7868 240.14 35.7908 240.14 33.3301V20.5379C240.14 17.5038 239.652 17.0513 237.004 16.8468V16.0673H246.867V16.8468C244.113 17.0932 243.694 17.6262 243.694 20.5379V33.6586C243.694 36.2821 243.694 41.9801 249.758 41.9801C252.475 41.9801 254.464 40.6691 255.474 38.7414C255.929 37.8395 256.277 36.4882 256.277 33.1673V22.0968C256.277 17.7083 255.441 17.011 252.999 16.8468V16.0673H261.088V16.8468Z" fill="#231F20" stroke="white" stroke-width="0.000227273"/>
<path d="M261.678 29.3573C261.678 26.7741 261.017 26.7323 260.458 26.7323C259.97 26.7323 259.588 26.8129 259.447 26.895V26.1992C261.017 25.6661 262.653 25.051 264.257 24.3536L264.503 24.4358V27.676C266.207 25.7886 267.533 24.3536 269.588 24.3536C271.191 24.3536 273.668 25.4601 273.668 30.5041V39.8932C273.668 41.8209 274.085 42.4361 275.792 42.5989V43.2141H268.544V42.5989C269.834 42.4764 270.74 42.2704 270.74 39.1556V30.5862C270.74 28.0851 270.113 26.6083 268.057 26.6083C267.009 26.6083 265.932 27.4281 264.606 28.9452V40.4681C264.606 41.8209 265.093 42.4764 266.906 42.5989V43.2141H259.516V42.5989C261.156 42.4764 261.678 41.9434 261.678 39.5244V29.3573Z" fill="#231F20" stroke="white" stroke-width="0.000227273"/>
<path d="M280.078 15.2098C281.125 15.2098 281.894 16.152 281.894 17.3003C281.894 18.4889 281.125 19.3908 280.078 19.3908C278.827 19.3908 278.337 18.0797 278.337 17.3003C278.337 16.5209 278.86 15.2098 280.078 15.2098ZM276.177 42.5978C278.337 42.4754 278.93 42.229 278.93 39.0321V29.519C278.93 27.0986 278.265 27.0583 277.709 27.0583C277.223 27.0583 276.768 27.1404 276.314 27.2225V26.6073C278.128 25.91 279.906 25.1321 281.718 24.3526L281.857 24.4765V39.0321C281.857 41.7378 282.03 42.4351 284.434 42.5978V43.213H276.177V42.5978Z" fill="#231F20"/>
<path d="M280.078 15.2098C281.125 15.2098 281.894 16.152 281.894 17.3003C281.894 18.4889 281.125 19.3908 280.078 19.3908C278.827 19.3908 278.337 18.0797 278.337 17.3003C278.337 16.5209 278.86 15.2098 280.078 15.2098ZM276.177 42.5978C278.337 42.4754 278.93 42.229 278.93 39.0321V29.519C278.93 27.0986 278.265 27.0583 277.709 27.0583C277.223 27.0583 276.768 27.1404 276.314 27.2225V26.6073C278.128 25.91 279.906 25.1321 281.718 24.3526L281.857 24.4765V39.0321C281.857 41.7378 282.03 42.4351 284.434 42.5978V43.213H276.177V42.5978Z" stroke="white" stroke-width="0.000227273"/>
<path d="M300.367 25.3759C299.183 25.4984 298.941 26.1554 298.101 28.5743L293.641 41.7353C293.258 42.8432 292.945 43.7869 292.699 43.7869C292.386 43.7869 292.318 43.6227 291.758 41.8592C290.922 39.3178 287.577 29.8047 286.323 26.893C285.801 25.6626 285.102 25.4162 284.403 25.3759V24.7607H291.234V25.3759C290.398 25.458 289.635 25.5805 289.635 26.6063C289.635 27.0976 289.841 27.7128 289.946 28.0413L293.498 38.5369C294.687 34.6023 297.162 28.204 297.162 26.7302C297.162 25.7851 296.393 25.4162 295.523 25.3759V24.7607H300.367V25.3759Z" fill="#231F20" stroke="white" stroke-width="0.000227273"/>
<path d="M312.95 36.4902C312.148 38.0073 310.647 40.7951 307.546 40.7951C305.246 40.7951 302.421 39.1153 302.003 31.8584H312.842C312.46 26.4859 309.987 24.3536 306.711 24.3536C303.922 24.3536 299.601 26.8547 299.601 34.4401C299.601 40.262 302.248 43.6262 306.12 43.6262C311.135 43.6262 313.159 38.0476 313.507 36.7769L312.95 36.4902ZM302.111 30.5459C302.668 26.9368 304.025 25.8289 305.942 25.8289C308.696 25.8289 309.043 28.5764 309.29 30.5459H302.111Z" fill="#231F20" stroke="white" stroke-width="0.000227273"/>
<path d="M315.458 29.5201C315.458 27.0996 314.793 27.0593 314.236 27.0593C313.751 27.0593 313.366 27.1414 313.049 27.2235V26.568C314.76 25.911 316.503 25.1734 318.21 24.3536L318.384 24.4358V28.0851H318.454C320.091 25.1734 321.275 24.3536 322.6 24.3536C323.785 24.3536 324.485 25.2152 324.485 26.568C324.485 27.5924 323.996 28.3703 323.161 28.3703C321.938 28.3703 321.592 26.9354 320.755 26.9354C319.918 26.9354 318.384 28.9855 318.384 30.2995V39.5244C318.384 42.354 319.571 42.5168 321.348 42.5989V43.2141H312.982V42.5989C314.899 42.1912 315.458 42.0658 315.458 39.7693V29.5201Z" fill="#231F20" stroke="white" stroke-width="0.000227273"/>
<path d="M334.171 30.3398C333.405 26.1574 331.835 25.2958 330.303 25.2958C328.386 25.2958 327.653 26.895 327.653 27.9627C327.653 28.7824 327.863 29.9695 329.152 30.8744L332.916 33.4964C334.623 34.7268 335.843 35.8751 335.843 38.3343C335.843 41.9031 333.019 43.6247 330.791 43.6247C329.221 43.6247 327.723 42.8453 326.746 42.8856C326.33 42.8856 326.192 43.0095 325.982 43.3798H325.528V36.9815H326.086C326.503 39.1541 327.166 42.7228 330.584 42.7228C331.768 42.7228 333.405 42.0658 333.405 39.729C333.405 38.418 332.709 37.4325 331.593 36.6948L329.57 35.342C327.411 33.907 325.492 32.3915 325.492 29.3573C325.492 27.0593 326.991 24.3536 330.372 24.3536C331.907 24.3536 332.985 25.1734 333.581 25.1734C333.891 25.1734 334.065 24.8867 334.171 24.7225H334.554L334.695 30.3398H334.171Z" fill="#231F20" stroke="white" stroke-width="0.000227273"/>
<path d="M341.037 15.2098C342.084 15.2098 342.85 16.152 342.85 17.3003C342.85 18.4889 342.084 19.3908 341.037 19.3908C339.783 19.3908 339.296 18.0797 339.296 17.3003C339.296 16.5209 339.816 15.2098 341.037 15.2098ZM337.133 42.5978C339.296 42.4754 339.886 42.229 339.886 39.0321V29.519C339.886 27.0986 339.223 27.0583 338.669 27.0583C338.181 27.0583 337.727 27.1404 337.273 27.2225V26.6073C339.086 25.91 340.864 25.1321 342.675 24.3526L342.814 24.4765V39.0321C342.814 41.7378 342.991 42.4351 345.392 42.5978V43.213H337.133V42.5978Z" fill="#231F20"/>
<path d="M341.037 15.2098C342.084 15.2098 342.85 16.152 342.85 17.3003C342.85 18.4889 342.084 19.3908 341.037 19.3908C339.783 19.3908 339.296 18.0797 339.296 17.3003C339.296 16.5209 339.816 15.2098 341.037 15.2098ZM337.133 42.5978C339.296 42.4754 339.886 42.229 339.886 39.0321V29.519C339.886 27.0986 339.223 27.0583 338.669 27.0583C338.181 27.0583 337.727 27.1404 337.273 27.2225V26.6073C339.086 25.91 340.864 25.1321 342.675 24.3526L342.814 24.4765V39.0321C342.814 41.7378 342.991 42.4351 345.392 42.5978V43.213H337.133V42.5978Z" stroke="white" stroke-width="0.000227273"/>
<path d="M354.457 26.0727H350.934V37.7987C350.934 39.0709 350.934 41.4884 352.711 41.4884C353.825 41.4884 354.457 40.588 354.839 40.0534L355.293 40.5044C354.457 42.2678 352.816 43.6221 351.212 43.6221C349.435 43.6221 348.008 42.5142 348.008 38.4154V26.0727H346.161C346.091 26.0324 346.019 25.9085 346.019 25.786C346.019 25.2933 346.788 25.0484 347.557 24.1465C348.881 22.5473 349.401 21.6454 350.69 19.4714C350.934 19.4714 350.934 19.6759 350.934 20.0059V24.7602H354.457V26.0727Z" fill="#231F20" stroke="white" stroke-width="0.000227273"/>
<path d="M371.83 25.3759C371.376 25.458 370.676 25.5402 370.153 27.22L364.785 43.9511C363.01 49.4431 361.478 52.1517 358.86 52.1517C357.119 52.1517 356.316 50.8377 356.316 49.7731C356.316 49.5267 356.386 47.9678 357.993 47.9678C358.933 47.9678 360.011 48.7054 360.467 48.7054C362.278 48.7054 363.671 43.0493 363.671 42.3923C363.671 41.7756 362 38.0038 361.511 36.7331L357.537 26.6466C357.119 25.6223 356.213 25.4162 355.76 25.3356V24.7607H362.941V25.3759C362.138 25.4162 360.919 25.458 360.919 26.5645C360.919 27.0976 361.164 27.7531 361.269 28.0413L365.275 38.4159L367.995 29.3134C368.343 28.204 368.797 26.893 368.797 26.5242C368.797 25.7447 368.236 25.3356 367.122 25.3759V24.7607H371.83V25.3759Z" fill="#231F20" stroke="white" stroke-width="0.000227273"/>
<path d="M65.2237 33.8213C65.2237 42.21 61.9581 50.0955 56.0242 56.0279C50.0933 61.9604 42.2063 65.229 33.8176 65.229C25.4289 65.229 17.5434 61.9604 11.611 56.0279C5.67859 50.0955 2.4115 42.21 2.4115 33.8213C2.4115 25.4341 5.67859 17.547 11.611 11.6161C17.5434 5.68369 25.4289 2.4166 33.8176 2.4166C42.2063 2.4166 50.0933 5.68369 56.0242 11.6161C61.9581 17.547 65.2237 25.4341 65.2237 33.8213Z" fill="white"/>
<path d="M33.8176 67.6428C52.4958 67.6428 67.6382 52.4989 67.6382 33.8206C67.6382 15.1424 52.4958 0 33.8176 0C15.1424 0 0 15.1424 0 33.8206C0 52.4989 15.1424 67.6428 33.8176 67.6428Z" fill="white"/>
<path d="M33.8176 67.6428C52.4958 67.6428 67.6382 52.4989 67.6382 33.8206C67.6382 15.1424 52.4958 0 33.8176 0C15.1424 0 0 15.1424 0 33.8206C0 52.4989 15.1424 67.6428 33.8176 67.6428Z" stroke="#B30838" stroke-width="0.00020202"/>
<path d="M33.8177 66.0733C51.6269 66.0733 66.069 51.6312 66.069 33.8205C66.069 16.0097 51.6269 1.57065 33.8177 1.57065C16.007 1.57065 1.56348 16.0097 1.56348 33.8205C1.56348 51.6312 16.007 66.0733 33.8177 66.0733Z" fill="white"/>
<path d="M33.8177 66.0733C51.6269 66.0733 66.069 51.6312 66.069 33.8205C66.069 16.0097 51.6269 1.57065 33.8177 1.57065C16.007 1.57065 1.56348 16.0097 1.56348 33.8205C1.56348 51.6312 16.007 66.0733 33.8177 66.0733Z" stroke="#B30838" stroke-width="0.00010101"/>
<path d="M16.0593 54.4071C15.6771 54.8356 15.3247 55.2806 14.9917 55.736C14.8767 55.8883 14.7677 56.0376 14.6587 56.1944C15.0634 56.5483 15.2411 56.7409 15.1828 56.8156C15.1515 56.8589 15.1127 56.8484 15.0484 56.8036C14.9424 56.723 14.7364 56.4975 14.3526 56.2123C14.0629 55.9988 13.8091 55.8853 13.6747 55.7868C13.609 55.7375 13.5866 55.7047 13.6195 55.6629C13.6732 55.5912 13.8748 55.6852 14.263 55.9003C14.6229 55.63 15.1679 55.1089 15.8563 54.3474L17.1658 52.9005C17.2613 52.4943 17.2927 52.2315 17.1479 52.0359C17.0553 51.912 16.9523 51.8523 17.003 51.7836C17.0329 51.7447 17.0777 51.7462 17.1434 51.794C17.1822 51.8269 17.327 51.9762 17.6167 52.1912C17.6869 52.2405 17.763 52.3002 17.8556 52.3599C17.6973 52.9692 17.6003 53.4111 17.5525 53.6575L17.0553 56.3841L20.3552 54.1995C20.509 54.325 20.6225 54.4086 20.6927 54.4623C20.9823 54.6759 21.1705 54.7684 21.2153 54.8043C21.281 54.8506 21.2989 54.8909 21.2675 54.9357C21.2198 54.9984 21.0436 54.9103 20.6942 54.7445L18.9695 57.4786C18.7172 57.8772 18.4559 58.3222 18.2065 58.815C18.4992 59.1121 18.6425 59.2629 18.5903 59.3361C18.5604 59.3794 18.5201 59.3674 18.4559 59.3182C18.3439 59.2316 18.1378 59.0106 17.7616 58.7298C17.3823 58.4506 17.0971 58.3162 16.9866 58.2326C16.9209 58.1848 16.906 58.1535 16.9373 58.1147C16.9941 58.0355 17.227 58.1415 17.6645 58.4133C17.7317 58.3371 17.7974 58.2475 17.8676 58.152C18.0468 57.9101 18.2349 57.6309 18.429 57.3203L20.173 54.534L16.5999 56.9156C16.5237 56.9709 16.4849 56.9828 16.4431 56.953C16.4087 56.9291 16.4222 56.8828 16.4356 56.8036L17.0971 53.2379L16.0593 54.4071Z" fill="black"/>
<path d="M24.0041 56.2864C23.0305 55.8564 21.9942 56.2774 21.5194 57.357C21.2521 57.9618 21.1596 58.6307 21.2506 59.2623C21.3626 60.0403 21.821 60.6555 22.496 60.9541C22.8379 61.1049 23.1739 61.1363 23.5128 61.0795C23.81 61.0243 23.9742 60.9287 24.0205 60.9496C24.0608 60.9661 24.0713 60.9855 24.0504 61.0243C24.0295 61.081 23.8801 61.1617 23.6323 61.2363C23.1261 61.3812 22.5766 61.3319 22.045 61.099C20.7221 60.5136 20.1905 59.1638 20.8281 57.7214C21.1312 57.0345 21.5717 56.5462 22.1212 56.264C22.8842 55.8788 23.6457 55.8623 24.452 56.2192C24.8507 56.3924 25.2285 56.6672 25.5883 57.033C25.8049 56.6866 25.9243 56.5238 26.0184 56.5641C26.0602 56.5776 26.0557 56.6119 26.0229 56.6791C25.993 56.7523 25.7436 57.0987 25.4316 57.8094C25.1852 58.3619 25.0926 58.6695 25.0717 58.7143C25.0523 58.7546 25.0135 58.7696 24.9776 58.7546C24.9015 58.7188 24.9448 58.5068 25.0836 58.0797L25.2643 57.5302C24.9926 56.9688 24.5147 56.5149 24.0041 56.2864Z" fill="black"/>
<path d="M26.626 60.0129C26.4647 60.5653 26.3378 61.1178 26.2288 61.6748C26.1915 61.8584 26.1556 62.0406 26.1258 62.2273C26.6424 62.3736 26.8858 62.4751 26.8694 62.5662C26.8559 62.617 26.8201 62.6274 26.7395 62.608C26.6081 62.5841 26.3259 62.4707 25.857 62.3781C25.5061 62.3094 25.2284 62.3109 25.0641 62.281C24.982 62.2661 24.9521 62.2452 24.9596 62.1959C24.9745 62.1063 25.203 62.1033 25.6435 62.1332C25.8495 61.733 26.1213 61.0282 26.4199 60.0487L26.9814 58.1763C26.8948 57.7701 26.8082 57.5252 26.5931 57.4043C26.4543 57.3341 26.3378 57.3221 26.3542 57.2415C26.3647 57.1878 26.4035 57.1728 26.4841 57.1922C26.5334 57.1997 26.729 57.2759 27.0829 57.3431C27.168 57.358 27.2636 57.3759 27.3726 57.3923C27.4891 58.0135 27.5921 58.4525 27.6548 58.6944L28.3745 61.3702L30.4187 57.9896C30.6113 58.0329 30.7487 58.0628 30.8338 58.0792C31.1877 58.1464 31.3952 58.1509 31.4535 58.1613C31.5326 58.1763 31.5654 58.2061 31.558 58.2569C31.5401 58.336 31.3445 58.336 30.9577 58.3345L30.5695 61.5389C30.5172 62.0093 30.468 62.5229 30.456 63.0784C30.8472 63.2187 31.0398 63.2949 31.0249 63.3785C31.0145 63.4323 30.9741 63.4382 30.8965 63.4203C30.7606 63.3934 30.4739 63.2785 30.014 63.1889C29.5526 63.0993 29.2391 63.0993 29.1017 63.0709C29.0226 63.056 28.9972 63.0351 29.0076 62.9858C29.0285 62.8917 29.2779 62.8902 29.793 62.947C29.8184 62.8425 29.8408 62.7379 29.8632 62.62C29.9215 62.3258 29.9722 61.9958 30.0125 61.6255L30.3978 58.3659L28.1894 62.0451C28.1416 62.1272 28.1147 62.1601 28.0624 62.1526C28.0191 62.1407 28.0147 62.0944 27.9923 62.0137L27.062 58.5137L26.626 60.0129Z" fill="black"/>
<path d="M33.0035 58.431C32.5316 58.3877 32.2972 58.3473 32.2942 58.2533C32.2942 58.2025 32.33 58.1771 32.4122 58.1756C32.4779 58.1726 32.7795 58.2189 33.3215 58.2085C33.8665 58.201 34.1666 58.1398 34.2309 58.1398C34.313 58.1398 34.3503 58.1592 34.3503 58.213C34.3518 58.3085 34.1189 58.3578 33.65 58.416C33.6082 58.867 33.6186 59.3373 33.6291 59.8286L33.6664 61.7533C33.6754 62.2311 33.6903 62.7045 33.7441 63.1718C33.9068 63.1748 34.0681 63.1778 34.2294 63.1763C35.0237 63.1584 35.7031 63.0315 36.2347 62.8135L36.2929 62.3864C36.3138 62.2386 36.3258 62.1639 36.393 62.1639C36.4228 62.1639 36.4512 62.1923 36.4557 62.2416C36.4557 62.2924 36.4228 62.5313 36.4288 62.9419C36.4363 63.3212 36.493 63.5287 36.493 63.575C36.4945 63.6377 36.4885 63.6736 36.4438 63.6736C36.4064 63.678 36.387 63.6407 36.3631 63.5765L36.2989 63.4436C35.5792 63.3839 34.7908 63.3555 33.9247 63.3704L33.3439 63.3839C32.893 63.3913 32.6182 63.4496 32.5152 63.4511C32.4331 63.457 32.3957 63.4406 32.3957 63.3899C32.3942 63.2943 32.6287 63.2465 33.096 63.1868C33.1319 62.7358 33.1289 62.2655 33.1214 61.7653L33.0841 59.8405C33.0736 59.3478 33.0572 58.8789 33.0035 58.431Z" fill="black"/>
<path d="M36.2983 58.2172C36.2909 58.1665 36.3207 58.1381 36.4014 58.1187C36.5582 58.0873 36.8389 58.0963 37.2107 58.0201C37.5705 57.944 37.8304 57.826 37.9886 57.7902C38.0678 57.7753 38.1096 57.7872 38.12 57.8395C38.1379 57.9261 37.9438 58.0022 37.5631 58.15L39.2504 59.8627L39.5789 59.031C39.7297 58.6592 39.8745 58.2023 40.0283 57.6394C39.6252 57.6558 39.4251 57.6603 39.4071 57.5692C39.3967 57.5259 39.4295 57.4945 39.5102 57.4766C39.6087 57.4557 39.8566 57.4572 40.2359 57.3766C40.6166 57.3034 40.854 57.2004 40.9541 57.1795C41.0332 57.1616 41.0735 57.178 41.084 57.2273C41.0989 57.2989 40.9302 57.393 40.5897 57.5259C40.1866 58.1829 39.8865 58.7563 39.6834 59.246L39.3907 59.9747L41.6096 62.1652C42.0949 62.1159 42.3427 62.11 42.3607 62.2055C42.3711 62.2563 42.3368 62.2787 42.2591 62.2906C42.1143 62.322 41.8112 62.319 41.3677 62.4086C40.9421 62.4982 40.6689 62.6206 40.524 62.652C40.4434 62.6684 40.4061 62.661 40.3956 62.6087C40.3777 62.5236 40.5793 62.44 40.9869 62.2906L39.1742 60.457L38.7382 61.5575C38.6382 61.8009 38.5262 62.2324 38.3948 62.8297C38.886 62.7819 39.1399 62.7729 39.1593 62.867C39.1697 62.9163 39.1354 62.9387 39.0607 62.9551C38.8995 62.9865 38.6158 62.9865 38.2395 63.0626C37.8781 63.1358 37.6362 63.2493 37.469 63.2866C37.3884 63.3 37.351 63.2926 37.3391 63.2418C37.3212 63.1552 37.5078 63.0791 37.8886 62.9312C38.1723 62.3728 38.447 61.777 38.7054 61.1454L39.0428 60.3391L36.9374 58.28C36.5268 58.2964 36.3193 58.3024 36.2983 58.2172Z" fill="black"/>
<path d="M40.8919 57.3052C40.871 57.2559 40.8979 57.2231 40.971 57.1947C41.1203 57.1275 41.3981 57.0857 41.749 56.9409C42.0879 56.8005 42.3224 56.6318 42.4687 56.5676C42.5433 56.5392 42.5866 56.5437 42.6076 56.5885C42.6419 56.6721 42.4642 56.7871 42.1148 57.0021L44.0992 58.3639L44.265 57.4844C44.3396 57.0932 44.3964 56.6183 44.4412 56.036C44.0515 56.1271 43.8529 56.1674 43.8185 56.0868C43.7991 56.039 43.826 56.0061 43.9006 55.9748C43.9947 55.933 44.2381 55.8882 44.5965 55.7403C44.9563 55.591 45.1684 55.4477 45.2609 55.4074C45.3371 55.376 45.3789 55.3835 45.3998 55.4283C45.4282 55.497 45.2803 55.6254 44.9713 55.8135C44.698 56.5407 44.5129 57.1574 44.4128 57.6785L44.262 58.446L46.8467 60.1796C47.317 60.0392 47.5575 59.984 47.5918 60.0751C47.6112 60.1228 47.5843 60.1497 47.5112 60.1841C47.3723 60.2378 47.0752 60.2886 46.6556 60.4618C46.2584 60.629 46.0105 60.8037 45.8776 60.862C45.7985 60.8933 45.7626 60.8933 45.7432 60.844C45.7089 60.7604 45.8881 60.6395 46.2673 60.42L44.1336 58.9626L43.9171 60.1258C43.8663 60.3841 43.8349 60.8276 43.817 61.4383C44.2948 61.295 44.5382 61.2412 44.5756 61.3278C44.5965 61.3771 44.5666 61.4055 44.4949 61.4354C44.3441 61.4966 44.0634 61.5488 43.7095 61.6967C43.375 61.8355 43.1526 61.9983 42.9958 62.058C42.9211 62.0894 42.8838 62.0894 42.8629 62.0431C42.827 61.961 42.9958 61.8505 43.3467 61.6339C43.5139 61.0307 43.6722 60.3946 43.8066 59.7242L43.9843 58.8716L41.5295 57.247C41.1293 57.3395 40.9277 57.3843 40.8919 57.3052Z" fill="black"/>
<path d="M45.1901 55.5732C45.1602 55.5284 45.1782 55.4926 45.2453 55.4463C45.3842 55.3507 45.641 55.2582 45.9262 55.073C46.1861 54.8983 46.3563 54.7012 46.5026 54.6011C46.5698 54.5593 46.6116 54.5578 46.64 54.5997C46.6922 54.6743 46.5459 54.8117 46.2488 55.0924L50.0997 57.7981L49.7757 56.163C49.6069 55.2596 49.3217 54.2846 48.9395 53.2842C48.5707 53.4499 48.384 53.535 48.3347 53.4603C48.3079 53.4185 48.3243 53.3782 48.3915 53.3334C48.4751 53.2767 48.6916 53.1856 48.9843 52.99C49.2754 52.7944 49.4412 52.6301 49.5263 52.5749C49.5935 52.5286 49.6353 52.5271 49.6652 52.5674C49.7115 52.6346 49.586 52.7541 49.3456 53.0139C49.4516 53.6739 49.5845 54.3458 49.7174 55.0178L50.3565 58.2774C50.3789 58.3864 50.3685 58.4625 50.3505 58.476C50.3072 58.5058 50.2714 58.476 50.2102 58.4372L45.7471 55.4269C45.4096 55.5702 45.2349 55.6389 45.1901 55.5732Z" fill="black"/>
<path d="M53.9535 55.1573C54.3327 54.8781 54.5373 54.7482 54.6045 54.8199C54.6388 54.8557 54.6194 54.8945 54.5612 54.9498C54.4567 55.0424 54.1939 55.2036 53.8534 55.5202C53.507 55.8397 53.3278 56.0891 53.2203 56.1817C53.1636 56.2369 53.1262 56.2504 53.0934 56.213C53.0292 56.1443 53.1695 55.9517 53.4816 55.5934C53.2084 55.2365 52.8978 54.8871 52.5588 54.5212L51.2538 53.1072C50.9193 52.7458 50.5953 52.4054 50.2593 52.1082C49.8786 52.389 49.6785 52.5174 49.6143 52.4442C49.577 52.4054 49.5934 52.3651 49.6501 52.3143C49.7472 52.2247 50.0189 52.0634 50.3639 51.7439C50.7073 51.4244 50.888 51.166 50.9865 51.0794C51.0477 51.0227 51.0866 51.0137 51.1239 51.0511C51.1896 51.1212 51.0448 51.3139 50.7357 51.6678C51.0224 52.044 51.3299 52.389 51.6525 52.7399L52.9575 54.1524C53.283 54.5018 53.6026 54.8423 53.9535 55.1573Z" fill="black"/>
<path d="M9.62096 51.3741C9.57765 51.404 9.54032 51.3831 9.49702 51.3144C9.42833 51.1994 9.32232 50.8948 9.08042 50.4946C8.84002 50.0915 8.62202 49.86 8.55482 49.7451C8.51003 49.6794 8.51003 49.639 8.55781 49.6092C8.63844 49.5599 8.79523 49.7406 9.08341 50.1154L11.5576 48.7431C11.6397 48.6924 11.7248 48.652 11.801 48.6058C12.8985 47.9428 13.1732 47.3589 12.6252 46.4511C12.246 45.8254 11.7353 45.5387 11.1515 45.6104C10.7408 45.6597 10.2839 45.8911 9.69263 46.2495L9.05056 46.6362C8.52496 46.9543 8.03669 47.3007 7.60964 47.6695C7.82018 48.1235 7.91275 48.3594 7.83063 48.4102C7.78733 48.4355 7.75 48.4146 7.70819 48.3474C7.65294 48.2593 7.56186 48.0025 7.34236 47.6397C7.12137 47.2753 6.94219 47.0767 6.88843 46.9871C6.84961 46.9185 6.8511 46.8841 6.8959 46.8572C6.97056 46.8094 7.10345 46.9618 7.36476 47.2679C7.69326 47.1394 8.21139 46.8498 8.9535 46.4466L9.68367 46.0494C10.2451 45.7463 10.6931 45.476 11.1813 45.4342C11.8159 45.3894 12.3878 45.7269 12.8194 46.4466C13.2225 47.1141 13.2673 47.7472 12.9926 48.2399C12.7626 48.6401 12.3161 48.9208 11.6935 49.2956L9.41639 50.6664C9.61349 51.0964 9.70308 51.3234 9.62096 51.3741Z" fill="black"/>
<path d="M8.94516 43.7658C9.67085 43.5239 10.2517 43.276 10.6892 43.0521C10.5608 42.5265 10.519 42.2532 10.6175 42.2219C10.6638 42.2084 10.6937 42.2413 10.7161 42.3129C10.7564 42.4384 10.7922 42.7295 10.9326 43.1611C11.0446 43.4955 11.1834 43.73 11.2342 43.8793C11.2566 43.9495 11.2536 43.9898 11.2044 44.0062C11.1207 44.0316 11.0252 43.8569 10.8325 43.4881C10.4966 43.5135 9.9232 43.6344 9.16317 43.8868L6.65014 44.7185C6.2649 45.2485 6.41422 45.5531 6.32463 45.5815C6.27535 45.5994 6.23951 45.5636 6.21712 45.4964C6.20666 45.4606 6.18576 45.2575 6.06332 44.8887C6.03943 44.8185 6.00807 44.7438 5.9797 44.6602L8.98399 40.2598L6.99059 40.9168C6.17829 41.1856 5.58998 41.426 5.21668 41.6276C5.33464 42.1218 5.36451 42.3757 5.27193 42.4025C5.22415 42.422 5.1913 42.3936 5.16741 42.3234C5.12858 42.2054 5.10021 41.9143 4.96135 41.4827C4.84936 41.1468 4.70452 40.9168 4.65375 40.769C4.63135 40.6988 4.64181 40.657 4.69257 40.6421C4.78067 40.6122 4.89266 40.8093 5.07782 41.2095C5.63179 41.1274 6.40376 40.9079 7.40718 40.5779L9.84705 39.7701C9.86497 39.7656 9.8799 39.7596 9.89184 39.7566C9.93365 39.7432 9.95605 39.7357 9.9665 39.7701C9.97845 39.8059 9.96202 39.8641 9.89632 39.9552L6.79199 44.4766L8.94516 43.7658Z" fill="black"/>
<path d="M9.20779 37.3594C9.18539 36.8891 9.19285 36.6486 9.28543 36.6307C9.3362 36.6248 9.35561 36.6591 9.37054 36.7367C9.38995 36.8756 9.381 37.1832 9.45267 37.6461C9.52434 38.1105 9.62886 38.3987 9.65275 38.539C9.6647 38.6212 9.65574 38.654 9.60348 38.6645C9.50941 38.6809 9.43176 38.4554 9.30634 37.9985C8.85838 38.0254 8.39251 38.0896 7.89826 38.1672L5.99445 38.4659C5.51066 38.5405 5.04628 38.6212 4.60878 38.7346C4.63416 39.208 4.6252 39.4484 4.53113 39.4648C4.47887 39.4693 4.45498 39.4364 4.43855 39.3588C4.42063 39.2289 4.43706 38.9108 4.36539 38.4465C4.29222 37.9821 4.18023 37.6879 4.15783 37.5565C4.14589 37.4774 4.16082 37.4371 4.2101 37.4296C4.30715 37.4147 4.38629 37.6416 4.51023 38.097C4.98357 38.0672 5.43899 38.003 5.91233 37.9313L7.81315 37.6297C8.285 37.555 8.74788 37.4744 9.20779 37.3594Z" fill="black"/>
<path d="M4.022 36.6719C3.96973 36.6719 3.95032 36.6346 3.95032 36.5554C3.94734 36.3807 4.01154 36.1179 4.00706 35.7805C4.00557 35.4654 3.93987 35.216 3.93987 35.0398C3.93987 34.9607 3.96077 34.9219 4.01154 34.9219C4.09815 34.9219 4.13846 35.119 4.20416 35.5221L8.59112 33.805L7.05016 33.1674C6.20353 32.8105 5.23147 32.5089 4.18624 32.2745C4.12353 32.6791 4.0862 32.8777 3.9981 32.8792C3.95032 32.8792 3.92494 32.8419 3.92345 32.7612C3.92345 32.6582 3.96675 32.4313 3.96376 32.0774C3.96227 31.7265 3.91747 31.4965 3.91747 31.3935C3.91449 31.3144 3.93987 31.277 3.98915 31.277C4.06978 31.277 4.09964 31.4428 4.18177 31.7892C4.79695 32.0639 5.43006 32.3282 6.06018 32.5851L9.13315 33.8543C9.23617 33.8961 9.2959 33.9468 9.2959 33.9722C9.2959 34.02 9.2526 34.0364 9.1869 34.0663L4.21014 36.1239C4.13846 36.4852 4.10113 36.6719 4.022 36.6719Z" fill="black"/>
<path d="M4.68345 26.5102L4.45051 26.3923C4.38929 26.3594 4.36689 26.3221 4.37137 26.2863C4.38033 26.2445 4.41318 26.2415 4.47888 26.2549C4.55653 26.2698 4.78349 26.3744 5.16574 26.446C5.5689 26.5222 5.80632 26.5341 5.85709 26.5461C5.90039 26.5565 5.93175 26.5819 5.92577 26.6207C5.91234 26.6834 5.8332 26.6834 5.68388 26.676L5.20009 26.6536C4.99702 27.0269 4.78797 27.6152 4.64612 28.3573C4.61177 28.5454 4.5834 28.7739 4.5625 29.0352C5.01643 29.1681 5.47035 29.2607 5.94071 29.3488L6.73956 29.5026L6.89186 28.6992C6.99489 28.1378 7.04118 27.6361 7.00833 27.212L6.82019 27.1329C6.56635 27.0254 6.44391 26.9925 6.46033 26.9089C6.46631 26.8791 6.49916 26.8701 6.5559 26.8791C6.63354 26.8955 6.88888 27.012 7.32937 27.0941C7.73253 27.1687 8.00279 27.1762 8.1103 27.1956C8.15958 27.2046 8.19093 27.2359 8.18347 27.2703C8.17003 27.3494 8.0446 27.333 7.76538 27.3181L7.50706 27.3076C7.32339 27.6764 7.17408 28.1572 7.06507 28.7306L6.91277 29.5339L7.82958 29.7057C8.29695 29.7967 8.76133 29.8744 9.23168 29.9207C9.2705 29.7639 9.30634 29.6041 9.33471 29.4488C9.48403 28.6679 9.49299 27.9736 9.39294 27.4076L8.9868 27.2673C8.84495 27.2165 8.77775 27.1881 8.78821 27.1254C8.79418 27.0941 8.82852 27.0717 8.8778 27.0821C8.93006 27.0896 9.15254 27.1687 9.55719 27.2479C9.93049 27.3181 10.1425 27.3031 10.1888 27.3121C10.2515 27.3255 10.2859 27.3405 10.2799 27.3838C10.2709 27.4196 10.2321 27.4345 10.1634 27.4435L10.0231 27.4778C9.81551 28.1692 9.62588 28.9352 9.46611 29.7848L9.3586 30.3567C9.27498 30.7957 9.27349 31.0764 9.25258 31.1794C9.23765 31.2586 9.21675 31.2899 9.16747 31.2825C9.0734 31.266 9.0734 31.0256 9.11073 30.5553C8.67771 30.4284 8.2193 30.3343 7.72805 30.2402L5.83917 29.8833C5.35389 29.7893 4.89249 29.7101 4.44454 29.6713C4.30717 30.1223 4.21907 30.3477 4.12649 30.3298C4.07423 30.3208 4.0578 30.279 4.07423 30.1999C4.08916 30.1267 4.19518 29.843 4.29373 29.3144L4.44006 28.5484C4.55354 27.9437 4.63567 27.2643 4.68345 26.5102Z" fill="black"/>
<path d="M7.26825 24.1656L9.05559 24.8674C9.49757 25.0436 9.93806 25.2093 10.392 25.3422C10.6204 24.8838 10.7578 24.6718 10.8474 24.7076C10.8967 24.7255 10.8967 24.7658 10.8683 24.8345C10.8265 24.945 10.6503 25.2287 10.4562 25.7155C10.283 26.153 10.2307 26.4561 10.1785 26.583C10.1471 26.6592 10.1232 26.6876 10.0739 26.6681C9.98435 26.6338 10.0291 26.3979 10.1561 25.9425C9.7544 25.7364 9.32138 25.5587 8.8555 25.3765L7.07115 24.6703C6.61274 24.4911 6.17225 24.3253 5.73774 24.2014C5.51973 24.621 5.39281 24.8211 5.30322 24.7882C5.25544 24.7673 5.24797 24.7255 5.27634 24.6494C5.32711 24.5284 5.50181 24.2641 5.67204 23.8281C5.82285 23.4533 5.93484 23.0143 6.10506 22.5768C6.51419 21.5376 7.23839 21.1299 7.94018 21.4062C8.70768 21.7078 9.05708 22.6022 8.68229 23.7669L10.7981 23.1502C11.1296 23.0487 11.3312 22.986 11.4118 22.7769C11.4701 22.6246 11.4372 22.4753 11.4611 22.4081C11.4745 22.3708 11.5044 22.3618 11.5388 22.3738C11.6209 22.4051 11.7418 22.8575 11.588 23.2473C11.4596 23.5743 11.1893 23.6639 10.7384 23.7803L8.57628 24.3179C8.47922 24.3433 8.41053 24.3776 8.34782 24.3552C8.30153 24.3343 8.2866 24.2746 8.30601 24.2193C8.33587 24.1432 8.41053 24.0387 8.47474 23.8744C8.8555 22.9098 8.68528 22.2842 7.96109 21.996C7.2354 21.7138 6.50225 22.0467 6.16927 22.8844C6.10058 23.0726 6.03936 23.31 5.97515 23.5982C6.39922 23.8117 6.82627 23.9924 7.26825 24.1656Z" fill="black"/>
<path d="M12.1978 22.1595C12.2516 22.2281 12.274 22.2685 12.2501 22.3118C12.2247 22.3521 12.1933 22.3566 12.1575 22.3357C12.0679 22.2804 11.7723 21.9549 11.1317 21.5517C10.8196 21.3576 10.5912 21.2546 10.4851 21.1904C10.412 21.1426 10.3806 21.1053 10.406 21.062C10.4613 20.9754 10.7868 21.1351 11.4497 21.4397C12.1172 21.2367 12.589 20.9156 12.8593 20.4841C13.2819 19.8137 13.1176 19.0088 12.5831 18.6729C12.371 18.5415 12.1665 18.5191 11.9798 18.5982C11.5722 18.7789 11.2735 19.197 10.8316 19.7091C10.2119 20.4304 9.61014 20.5901 8.97106 20.187C8.11845 19.6509 7.91986 18.6579 8.48279 17.7635C8.69034 17.429 9.00839 17.1035 9.42349 16.8273L9.17861 16.5301C9.12486 16.46 9.09649 16.4256 9.13232 16.3689C9.15472 16.3315 9.17861 16.336 9.21594 16.3614C9.32046 16.4271 9.60865 16.784 10.2537 17.1886C10.3985 17.2782 10.512 17.3305 10.5807 17.3723C10.6509 17.4156 10.6763 17.4604 10.6464 17.5022C10.5882 17.5948 10.3627 17.4738 9.86995 17.2066C9.32793 17.3424 8.89491 17.6426 8.60971 18.0965C8.18863 18.7684 8.34243 19.5479 8.84862 19.8689C9.38616 20.2034 9.74005 19.8614 10.4224 19.1059C10.6987 18.7998 10.9495 18.4743 11.2915 18.2428C11.6065 18.0353 12.0455 18.0592 12.4442 18.3115C13.3043 18.8506 13.5312 19.9391 12.9265 20.9007C12.7025 21.2546 12.383 21.5741 11.9529 21.8578L12.1978 22.1595Z" fill="black"/>
<path d="M15.0162 17.478C15.3566 17.154 15.5403 17.0017 15.6165 17.0629C15.6553 17.0943 15.6433 17.1301 15.5911 17.1943C15.5 17.3003 15.2626 17.4914 14.958 17.8543C14.6563 18.2126 14.5055 18.4814 14.4174 18.5889C14.3652 18.6501 14.3308 18.6681 14.2905 18.6337C14.2188 18.5725 14.3353 18.3649 14.6026 17.9722C14.286 17.6497 13.9307 17.3436 13.5499 17.0211L12.0791 15.7832C11.7043 15.4622 11.34 15.168 10.9667 14.9112C10.6247 15.2382 10.4411 15.3861 10.3664 15.3278C10.3276 15.2965 10.3336 15.2517 10.3858 15.189C10.4709 15.0874 10.7203 14.8948 11.0234 14.5364C11.325 14.1766 11.4759 13.8988 11.558 13.7958C11.6132 13.7361 11.6535 13.7212 11.6894 13.7555C11.764 13.8167 11.6461 14.0243 11.3833 14.417C11.7163 14.7544 12.0612 15.0561 12.4285 15.3637L13.8993 16.603C14.2636 16.9106 14.6295 17.2092 15.0162 17.478Z" fill="black"/>
<path d="M17.5182 14.9749C17.9587 14.6419 18.1976 14.4851 18.2648 14.5642C18.3007 14.6031 18.2828 14.6374 18.2215 14.6912C18.1454 14.7598 17.8467 14.948 17.4092 15.3362C16.9732 15.7289 16.7537 16.0022 16.6761 16.0723C16.6179 16.1246 16.579 16.1366 16.5432 16.0992C16.4775 16.0231 16.6552 15.8051 17.0359 15.4034C16.7716 15.0391 16.4626 14.6837 16.1326 14.3119L14.8529 12.8754C14.508 12.4947 14.1855 12.1408 13.854 11.8377C13.8316 11.8556 13.8122 11.8765 13.7898 11.8944C13.306 12.323 12.9625 12.7426 12.7416 13.1159L13.0118 13.516C13.091 13.6385 13.1358 13.7116 13.0865 13.7549C13.0566 13.7758 13.0178 13.7654 12.9879 13.731C12.9521 13.6937 12.8237 13.5056 12.543 13.1935C12.2936 12.9053 12.0846 12.765 12.0174 12.6873C11.9845 12.65 11.986 12.6097 12.0084 12.5903C12.0338 12.5649 12.0681 12.5723 12.1308 12.6067L12.3518 12.7455C12.979 12.311 13.5255 11.887 13.9749 11.4853C14.4244 11.0821 14.9111 10.5909 15.4084 10.0175L15.3053 9.7756C15.277 9.71438 15.274 9.67556 15.3009 9.65167C15.3352 9.6233 15.3606 9.63823 15.4024 9.69049C15.4562 9.74873 15.5756 9.96822 15.8324 10.2594C16.1072 10.567 16.2849 10.7223 16.3207 10.7596C16.3491 10.794 16.3551 10.8358 16.3312 10.8611C16.2819 10.9044 16.2147 10.8552 16.1012 10.7581L15.7414 10.4431C15.3442 10.6178 14.8917 10.9119 14.4035 11.3479C14.3841 11.3688 14.3572 11.3882 14.3393 11.4047C14.617 11.7869 14.9291 12.1483 15.2576 12.5141L16.5372 13.952C16.8538 14.3074 17.1733 14.6523 17.5182 14.9749Z" fill="black"/>
<path d="M20.8249 10.6453L18.8315 9.1655L19.2406 11.6009L20.8249 10.6453ZM19.3392 12.1817C19.3869 12.4296 19.4825 12.791 19.6318 13.2658C20.1365 13.0045 20.4083 12.9029 20.4591 12.991C20.4874 13.0358 20.4605 13.0672 20.3934 13.1075C20.2605 13.1867 19.9857 13.2867 19.6273 13.5002C19.2227 13.7436 18.9898 13.9527 18.8688 14.0243C18.8016 14.0646 18.7673 14.0691 18.7434 14.0243C18.6926 13.9422 18.8703 13.7824 19.2481 13.4972C19.2197 13.0239 19.1585 12.5207 19.0779 11.9727L18.6254 9.02216C18.3716 8.83999 18.1237 8.67126 17.8639 8.52045L18.2536 7.98589C18.5821 8.31887 19.1256 8.75786 19.8737 9.30288L21.6417 10.5945C22.0448 10.8916 22.4271 11.1604 22.7929 11.3665C23.2229 11.1709 23.4469 11.0887 23.4962 11.1709C23.5216 11.2127 23.4977 11.2455 23.429 11.2858C23.3394 11.3396 23.0154 11.468 22.5122 11.7696C22.0299 12.0563 21.7731 12.2803 21.679 12.3385C21.6088 12.3788 21.5685 12.3848 21.5446 12.3445C21.4908 12.2534 21.7118 12.0683 22.1747 11.7383C21.897 11.4605 21.5998 11.2366 21.3296 11.0305L20.9652 10.7617L19.2615 11.7846L19.3392 12.1817Z" fill="black"/>
<path d="M23.8202 11.3483C23.8202 11.4319 23.8172 11.4812 23.765 11.4991C23.7232 11.5126 23.6978 11.5006 23.6814 11.4588C23.6455 11.3617 23.6112 10.9227 23.3454 10.2135C23.22 9.87005 23.0975 9.64756 23.0572 9.53109C23.0244 9.44598 23.0229 9.40118 23.0721 9.38476C23.1692 9.34594 23.3275 9.67295 23.6664 10.321C24.3219 10.5659 24.8893 10.6002 25.3642 10.424C26.1078 10.1493 26.4721 9.41462 26.2556 8.82183C26.166 8.5874 26.0227 8.44554 25.8211 8.39478C25.3925 8.28428 24.8998 8.43509 24.2338 8.57097C23.3051 8.76509 22.7302 8.52468 22.4704 7.81393C22.1225 6.87172 22.5704 5.96237 23.5604 5.59356C23.9337 5.45917 24.3802 5.39645 24.8789 5.43378L24.8684 5.04556C24.8684 4.95895 24.8669 4.91117 24.9282 4.88728C24.9715 4.87235 24.9834 4.89176 25.0013 4.93357C25.0446 5.04854 25.0536 5.50546 25.3194 6.22219C25.3776 6.38196 25.4358 6.49245 25.4642 6.56861C25.4911 6.64625 25.4881 6.69404 25.4358 6.71195C25.3343 6.74928 25.2298 6.51336 25.0043 6.00418C24.4907 5.77722 23.9651 5.75183 23.4619 5.93699C22.7197 6.21174 22.3614 6.921 22.5704 7.48841C22.7869 8.07822 23.2752 8.02447 24.2816 7.8423C24.6863 7.77212 25.082 7.6661 25.4926 7.69447C25.8689 7.71986 26.2033 8.00505 26.3676 8.45002C26.717 9.40119 26.2347 10.4016 25.1671 10.7943C24.7744 10.9407 24.3234 10.9974 23.8098 10.9601L23.8202 11.3483Z" fill="black"/>
<path d="M29.8475 9.54062C29.8266 9.62275 29.8102 9.66904 29.7564 9.67352C29.7146 9.67949 29.6907 9.65709 29.6862 9.61528C29.6758 9.51076 29.7519 9.07624 29.6832 8.32367C29.6459 7.95784 29.5877 7.71445 29.5742 7.58903C29.5668 7.50093 29.5772 7.45464 29.628 7.45016C29.731 7.43822 29.7997 7.79509 29.967 8.51032C30.5344 8.91498 31.0749 9.08968 31.5796 9.04638C32.371 8.97172 32.91 8.35055 32.8488 7.71893C32.8264 7.47107 32.7189 7.29786 32.5382 7.19632C32.153 6.98279 31.6363 7.0022 30.9614 6.96338C30.0132 6.91261 29.5175 6.53036 29.4458 5.77779C29.3533 4.77586 30.0177 4.01135 31.0689 3.91131C31.4661 3.87547 31.9141 3.92923 32.3859 4.089L32.4755 3.71421C32.4964 3.6291 32.5069 3.58281 32.5756 3.57833C32.6189 3.57236 32.6293 3.59475 32.6308 3.63806C32.6427 3.76199 32.5382 4.20995 32.6114 4.96849C32.6293 5.13722 32.6532 5.26115 32.6607 5.34178C32.6681 5.42092 32.6502 5.46422 32.5979 5.47318C32.4889 5.48065 32.4501 5.22531 32.359 4.67582C31.9215 4.32492 31.4198 4.16664 30.8853 4.21891C30.0954 4.29058 29.5683 4.88785 29.625 5.48662C29.6862 6.11675 30.173 6.18991 31.1899 6.27054C31.6005 6.30339 32.0141 6.3019 32.3994 6.43629C32.7607 6.55724 33.0071 6.9156 33.0549 7.39342C33.1489 8.40132 32.4262 9.24348 31.2899 9.35397C30.8733 9.3913 30.4254 9.33008 29.9386 9.16285L29.8475 9.54062Z" fill="black"/>
<path d="M36.9682 7.42067L36.2276 5.04949L35.1241 7.25792L36.9682 7.42067ZM34.8643 7.788C34.7553 8.01496 34.6224 8.36287 34.4642 8.83621C35.0226 8.92282 35.3018 8.99748 35.2944 9.102C35.2899 9.15277 35.2511 9.16472 35.1704 9.15576C35.0181 9.14232 34.7374 9.0587 34.3223 9.02585C33.849 8.98255 33.5384 9.01092 33.401 8.99897C33.3189 8.99449 33.2935 8.97657 33.298 8.92431C33.3054 8.82875 33.5429 8.80635 34.0147 8.7959C34.2715 8.39871 34.5179 7.95822 34.7762 7.46398L36.1455 4.81208C36.0484 4.51643 35.9469 4.23421 35.8215 3.95797L36.4546 3.75639C36.5203 4.21928 36.7054 4.89271 36.9906 5.77369L37.6581 7.85967C37.8074 8.336 37.9612 8.77798 38.1314 9.16173C38.5973 9.25431 38.8272 9.32001 38.8168 9.41557C38.8123 9.46634 38.7765 9.4753 38.6958 9.47231C38.5943 9.46186 38.2554 9.37376 37.67 9.32001C37.1146 9.27223 36.7711 9.2991 36.6621 9.29014C36.583 9.28268 36.5457 9.26476 36.5516 9.2125C36.5606 9.11096 36.8488 9.09006 37.4177 9.09603C37.3565 8.7078 37.246 8.35392 37.1504 8.0284L37.01 7.59388L35.0375 7.42067L34.8643 7.788Z" fill="black"/>
<path d="M40.1022 7.68413C39.8782 8.41729 39.7408 9.03547 39.6751 9.52374C40.1739 9.72084 40.4217 9.84478 40.3934 9.94482C40.3784 9.99111 40.3307 9.99111 40.262 9.9717C40.135 9.93287 39.8782 9.79102 39.4422 9.65813C39.1047 9.5551 38.8345 9.53121 38.6807 9.48492C38.609 9.46551 38.5791 9.43863 38.5941 9.38935C38.621 9.30574 38.821 9.32813 39.2361 9.38488C39.4079 9.0952 39.6393 8.55765 39.8782 7.79463L40.6577 5.2577C40.4441 4.64102 40.1112 4.58129 40.138 4.49021C40.153 4.44242 40.2022 4.43346 40.2709 4.45288C40.3068 4.46631 40.483 4.56785 40.8577 4.68133C40.9279 4.70373 41.0071 4.72016 41.0922 4.74554L42.9437 9.74921L43.5589 7.74088C43.8128 6.91813 43.9576 6.30294 44.0084 5.88036C43.5365 5.68774 43.3155 5.5653 43.3424 5.47422C43.3573 5.42643 43.3991 5.41598 43.4678 5.43539C43.5903 5.47422 43.8456 5.62204 44.2771 5.75643C44.6161 5.85946 44.8864 5.86991 45.0327 5.91919C45.1044 5.94158 45.1327 5.97294 45.1193 6.01923C45.0909 6.11181 44.8669 6.08792 44.4309 6.00878C44.1771 6.509 43.9083 7.26455 43.5962 8.27544L42.8422 10.7332C42.8362 10.7541 42.8302 10.7691 42.8273 10.7825C42.8138 10.8228 42.8049 10.8437 42.7705 10.8363C42.7362 10.8228 42.6988 10.772 42.66 10.669L40.7682 5.51603L40.1022 7.68413Z" fill="black"/>
<path d="M48.3391 7.81198C47.4059 7.29683 46.3383 7.61786 45.7664 8.65265C45.4468 9.23051 45.2945 9.88453 45.3259 10.5221C45.3662 11.309 45.7724 11.9616 46.4129 12.3169C46.7429 12.4991 47.0744 12.5663 47.4149 12.5379C47.715 12.5096 47.8852 12.4274 47.9315 12.4543C47.9673 12.4722 47.9748 12.4931 47.9554 12.5334C47.9255 12.5827 47.7717 12.6499 47.5179 12.7037C47.0012 12.8007 46.4607 12.7037 45.95 12.4215C44.6868 11.7226 44.2836 10.3295 45.0467 8.95128C45.411 8.29428 45.8903 7.84931 46.4622 7.62234C47.2581 7.30728 48.0196 7.35954 48.7901 7.7851C49.1678 7.99415 49.5187 8.30025 49.8472 8.69744C50.0921 8.37342 50.2265 8.21962 50.3161 8.27039C50.3534 8.2898 50.346 8.32116 50.3101 8.38536C50.2713 8.45704 49.9906 8.77957 49.6188 9.453C49.3231 9.98606 49.2022 10.2802 49.1768 10.3235C49.1574 10.3623 49.1156 10.3743 49.0842 10.3594C49.0081 10.3131 49.0723 10.1085 49.25 9.6934L49.4769 9.16332C49.2545 8.58097 48.8259 8.08225 48.3391 7.81198Z" fill="black"/>
<path d="M49.94 14.798C50.3387 15.1832 50.5253 15.3953 50.4626 15.4759C50.4238 15.5132 50.3894 15.5013 50.3252 15.452C50.2476 15.3833 50.0191 15.1205 49.5682 14.7442C49.1142 14.368 48.8111 14.1933 48.7305 14.1305C48.6693 14.0783 48.6469 14.041 48.6842 14.0021C48.7469 13.923 48.9933 14.0693 49.4427 14.3859C49.7638 14.0693 50.0684 13.711 50.3879 13.3257L51.6138 11.8445C51.9438 11.4458 52.241 11.0755 52.4933 10.6992C52.4739 10.6843 52.4515 10.6634 52.4246 10.6454C51.9289 10.2318 51.4645 9.9526 51.0628 9.78985L50.7075 10.1198C50.594 10.2169 50.5328 10.2707 50.482 10.2288C50.4551 10.2035 50.4626 10.1616 50.488 10.1273C50.5178 10.0885 50.6896 9.9317 50.9568 9.60917C51.2002 9.31501 51.3107 9.08805 51.3749 9.0104C51.4063 8.97307 51.4526 8.96859 51.472 8.98651C51.5003 9.0104 51.5003 9.04773 51.4735 9.11194L51.3704 9.35234C51.8945 9.90631 52.3963 10.3811 52.8606 10.7664C53.3235 11.1486 53.885 11.5563 54.53 11.9669L54.748 11.8221C54.8077 11.7877 54.8436 11.7788 54.8764 11.8042C54.9078 11.8295 54.8914 11.8564 54.854 11.9087C54.8033 11.9729 54.6002 12.1207 54.3508 12.4208C54.091 12.7359 53.9611 12.9375 53.9312 12.9763C53.8999 13.0107 53.8626 13.0271 53.8342 13.0032C53.7834 12.9584 53.8237 12.8882 53.8969 12.7613L54.1582 12.3566C53.9268 11.9923 53.5654 11.5876 53.0622 11.171C53.0398 11.1486 53.0159 11.1337 52.9935 11.1128C52.6576 11.4473 52.3485 11.8101 52.0349 12.1894L50.806 13.6736C50.5029 14.041 50.2073 14.4068 49.94 14.798Z" fill="black"/>
<path d="M52.4674 17.2708C52.7512 17.656 52.8721 17.8561 52.8019 17.9218C52.7631 17.9562 52.7273 17.9382 52.6735 17.88C52.5809 17.7785 52.4197 17.5142 52.1031 17.1648C51.7851 16.8183 51.5417 16.6362 51.4461 16.5331C51.3924 16.4719 51.3774 16.4346 51.4192 16.4002C51.4894 16.3345 51.679 16.4824 52.0344 16.793C52.3943 16.5257 52.7512 16.2151 53.1185 15.8776L54.543 14.5815C54.9043 14.2486 55.2478 13.929 55.5494 13.593C55.2716 13.2123 55.1477 13.0062 55.2149 12.945C55.2552 12.9107 55.294 12.9226 55.3523 12.9838C55.4404 13.0809 55.5942 13.3541 55.9122 13.6991C56.2318 14.0485 56.4886 14.2306 56.5737 14.3292C56.6304 14.3889 56.6379 14.4322 56.6021 14.4666C56.5289 14.5308 56.3393 14.3874 55.9869 14.0739C55.6061 14.3576 55.2612 14.6622 54.9088 14.9847L53.4813 16.2793C53.1289 16.6003 52.7855 16.9229 52.4674 17.2708Z" fill="black"/>
<path d="M58.3009 22.1122C58.0873 21.6344 57.9978 21.3821 58.0814 21.3373C58.1277 21.3119 58.1635 21.3313 58.2038 21.4059C58.2576 21.5015 58.3427 21.7643 58.5487 22.1361C58.7219 22.4512 58.8922 22.6498 58.9519 22.7662C58.9937 22.8379 58.9937 22.8812 58.9444 22.9051C58.8742 22.9439 58.7891 22.817 58.5801 22.5885L57.3646 23.2605C57.1571 23.371 57.075 23.483 57.0376 23.5054C56.96 23.5487 56.9257 23.4412 56.8346 23.3396C56.7091 23.2172 56.5538 23.1067 56.3926 22.9872C55.9626 22.6632 55.5639 22.3467 55.2891 21.8599C54.9905 21.3134 54.9039 20.7146 55.0278 20.1756C55.1816 19.4962 55.6654 18.8705 56.3597 18.4883C57.0556 18.103 57.8559 18.0134 58.6234 18.2404C59.2998 18.4345 59.8792 18.9064 60.2315 19.5469C60.4675 19.98 60.5869 20.4951 60.6317 21.1058C61.0991 20.9729 61.3201 20.8848 61.3738 20.9804C61.3962 21.0192 61.3679 21.0416 61.3096 21.076C61.1618 21.1581 60.7079 21.2775 60.0583 21.6404C59.6552 21.8629 59.4402 22.0226 59.3984 22.045C59.358 22.0674 59.3192 22.054 59.2998 22.0241C59.2535 21.9405 59.5088 21.7658 60.0285 21.4283C60.2465 20.6877 60.2166 20.0173 59.915 19.4693C59.3192 18.3912 58.1471 18.0791 57.0182 18.7033C56.4643 19.0079 55.9969 19.5186 55.6998 20.1517C55.419 20.7639 55.4414 21.4911 55.7669 22.0853C55.9596 22.4258 56.2716 22.7214 56.7211 22.9857L58.3009 22.1122Z" fill="black"/>
<path d="M62.9701 26.4731L63.2299 26.4686C63.2986 26.4686 63.3344 26.4925 63.3464 26.5269C63.3598 26.5687 63.3344 26.5851 63.2702 26.6045C63.1926 26.6284 62.9417 26.6433 62.5744 26.7583C62.1787 26.8793 61.9637 26.9778 61.9159 26.9927C61.8711 27.0062 61.8323 26.9927 61.8203 26.9614C61.8009 26.8987 61.8741 26.8584 62.01 26.7956L62.4445 26.5896C62.4519 26.1655 62.3579 25.5488 62.1369 24.8246C62.0801 24.641 61.9995 24.4319 61.8905 24.1885C61.4321 24.2826 60.9856 24.4125 60.5317 24.5544L59.7523 24.7963L59.9942 25.5742C60.1659 26.1192 60.3585 26.5821 60.587 26.945L60.7885 26.9255C61.0663 26.9017 61.1872 26.8718 61.2126 26.9569C61.2245 26.9838 61.1977 27.0062 61.1409 27.0256C61.0648 27.048 60.7856 27.0644 60.3555 27.1958C59.9643 27.3183 59.7269 27.4392 59.6209 27.4721C59.5686 27.487 59.5283 27.478 59.5163 27.4437C59.4954 27.3645 59.6134 27.3227 59.8672 27.2033L60.1047 27.0913C60.0912 26.6836 59.9972 26.1864 59.8254 25.6265L59.588 24.8485L58.6936 25.1248C58.2382 25.2636 57.7932 25.4115 57.3557 25.5906C57.3945 25.7474 57.4349 25.9042 57.4841 26.0565C57.7186 26.8165 58.0351 27.4332 58.386 27.8827L58.8146 27.82C58.9624 27.8006 59.0355 27.7901 59.055 27.8543C59.0624 27.8827 59.0445 27.9185 58.9937 27.9349C58.9445 27.9499 58.71 27.9842 58.3188 28.1037C57.953 28.2201 57.7723 28.3262 57.729 28.3381C57.6663 28.362 57.626 28.3665 57.6155 28.3232C57.6051 28.2873 57.6334 28.2545 57.6902 28.2142L57.8022 28.1201C57.6573 27.4123 57.4677 26.6478 57.2109 25.8191L57.0407 25.2666C56.9093 24.8396 56.7779 24.5857 56.7465 24.4902C56.7226 24.4125 56.7241 24.3722 56.7734 24.3573C56.866 24.3319 56.975 24.5409 57.1646 24.9725C57.6051 24.8814 58.056 24.753 58.5338 24.6051L60.3734 24.0347C60.8378 23.8899 61.2888 23.7451 61.7039 23.5704C61.6113 23.106 61.5874 22.8686 61.6755 22.8417C61.7277 22.8268 61.7531 22.8551 61.7785 22.9313C61.8009 23.0015 61.8427 23.3031 62.001 23.8152L62.231 24.5603C62.4131 25.1487 62.655 25.7877 62.9701 26.4731Z" fill="black"/>
<path d="M59.0502 32.9698C59.4877 33.4894 60.0536 33.7313 60.6942 33.679C61.3363 33.6208 61.944 33.3386 62.4547 32.8563C63.0848 32.256 63.3939 31.4915 63.3297 30.7539C63.2251 29.5683 62.3248 28.8366 61.1974 28.9367C60.621 28.9889 59.9969 29.2876 59.4758 29.7982C58.8561 30.4104 58.547 31.1705 58.6097 31.8633C58.6426 32.2889 58.8038 32.6652 59.0502 32.9698ZM59.4175 33.5312C58.7441 33.0773 58.3439 32.3665 58.2633 31.4885C58.1961 30.736 58.4022 30.067 58.8561 29.5145C59.2861 28.9889 59.9013 28.6754 60.6628 28.6082C61.2108 28.5589 61.714 28.647 62.2053 28.8769C63.0221 29.2622 63.6029 30.1028 63.691 31.0898C63.7567 31.82 63.5865 32.4636 63.1818 32.9996C62.7488 33.5745 62.0754 33.9299 61.2721 34.0016C60.5942 34.0628 59.9581 33.903 59.4175 33.5312Z" fill="black"/>
<path d="M61.959 36.2612L60.0537 36.0417C59.5818 35.9835 59.1145 35.9387 58.6426 35.9282C58.5381 36.427 58.459 36.6703 58.3664 36.6569C58.3141 36.6509 58.3022 36.6136 58.3141 36.5404C58.3276 36.4255 58.4246 36.0999 58.4844 35.5848C58.5366 35.1174 58.5142 34.8113 58.5306 34.6739C58.5381 34.5933 58.5575 34.5575 58.6098 34.5634C58.7068 34.5754 58.7203 34.8128 58.7158 35.2862C59.1563 35.3832 59.6207 35.4429 60.1194 35.5012L62.0187 35.7237C62.51 35.7789 62.9803 35.8267 63.4283 35.8356C63.5343 35.3728 63.606 35.1458 63.6986 35.1562C63.7493 35.1637 63.7672 35.1995 63.7598 35.2802C63.7419 35.4146 63.6403 35.7132 63.5866 36.1806C63.5418 36.5793 63.5462 37.0332 63.4925 37.4976C63.3626 38.6055 62.7728 39.1864 62.0187 39.1013C61.2005 39.0072 60.633 38.2292 60.6973 37.0078L58.8114 38.1501C58.5157 38.3293 58.344 38.4413 58.3141 38.6682C58.2977 38.8295 58.3694 38.9639 58.3634 39.0371C58.3589 39.0729 58.3335 39.0923 58.2977 39.0878C58.2081 39.0774 57.9737 38.6712 58.023 38.2576C58.0648 37.9052 58.3022 37.7484 58.7068 37.5259L60.6614 36.4523C60.745 36.4031 60.8033 36.3508 60.869 36.3568C60.9197 36.3627 60.9511 36.421 60.9436 36.4777C60.9347 36.5554 60.8899 36.6778 60.869 36.8525C60.748 37.8813 61.0765 38.4428 61.8485 38.5353C62.622 38.6264 63.2416 38.1128 63.3462 37.2139C63.3745 37.0153 63.3686 36.7749 63.3521 36.4777C62.8907 36.3792 62.4338 36.3194 61.959 36.2612Z" fill="black"/>
<path d="M59.0387 43.7326C59.2402 43.2488 59.3686 43.0114 59.4597 43.0427C59.5045 43.0577 59.515 43.098 59.4911 43.1756C59.4552 43.2817 59.3238 43.5221 59.1895 43.9297C59.0745 44.2701 59.0461 44.533 59.0043 44.6554C58.9789 44.733 58.9446 44.7599 58.8998 44.745C58.8206 44.7181 58.858 44.5673 58.8819 44.2612L57.5574 43.8237C57.3379 43.755 57.1991 43.7714 57.1602 43.755C57.0751 43.7281 57.1289 43.6311 57.1363 43.4922C57.1453 43.3175 57.1154 43.1293 57.0975 42.9308C57.0438 42.3947 57.002 41.887 57.1737 41.3554C57.3693 40.7641 57.747 40.2923 58.2249 40.016C58.8311 39.6651 59.6195 39.592 60.3736 39.8384C61.1246 40.0862 61.7338 40.6103 62.0922 41.3241C62.4132 41.9557 62.4625 42.7008 62.2341 43.3966C62.0803 43.864 61.7846 44.2985 61.362 44.7495C61.7846 45.0033 61.9996 45.1048 61.9623 45.2109C61.9489 45.2497 61.91 45.2497 61.8473 45.2258C61.6891 45.175 61.2904 44.9257 60.5856 44.6942C60.1451 44.5524 59.8838 44.5046 59.8345 44.4867C59.7912 44.4732 59.7718 44.4344 59.7823 44.4001C59.8151 44.312 60.1137 44.3792 60.714 44.5285C61.4068 44.1835 61.8772 43.7057 62.0713 43.1144C62.4551 41.9393 61.8876 40.8731 60.6632 40.467C60.0585 40.2699 59.3701 40.2744 58.7027 40.4894C58.0621 40.7044 57.5455 41.2151 57.3334 41.8571C57.214 42.226 57.208 42.6575 57.323 43.1667L59.0387 43.7326Z" fill="black"/>
<path d="M55.8099 45.4494C55.5501 45.8436 55.4023 46.0288 55.3172 45.9884C55.2724 45.9616 55.2739 45.9272 55.3127 45.8511C55.3769 45.7271 55.5665 45.4867 55.7816 45.0701C55.9996 44.652 56.0847 44.3579 56.1504 44.2369C56.1862 44.1608 56.2161 44.1369 56.2624 44.1593C56.3445 44.2056 56.2758 44.434 56.1056 44.876C56.4848 45.1179 56.8999 45.3404 57.3404 45.5733L59.0501 46.4528C59.4876 46.6798 59.9057 46.8873 60.3268 47.0546C60.5881 46.6589 60.7329 46.4678 60.8166 46.514C60.8643 46.5379 60.8673 46.5812 60.827 46.6529C60.7688 46.7679 60.5687 47.0128 60.3552 47.4323C60.1402 47.8475 60.055 48.1506 59.9953 48.27C59.958 48.3417 59.9221 48.3641 59.8788 48.3387C59.7893 48.2954 59.8594 48.0684 60.0297 47.6309C59.6325 47.3726 59.2248 47.1531 58.7993 46.9336L57.0926 46.0512C56.667 45.8346 56.2489 45.6226 55.8099 45.4494Z" fill="black"/>
<path d="M54.5053 47.625C54.2067 47.9909 54.0409 48.1641 53.9618 48.1088C53.92 48.0819 53.923 48.0431 53.9693 47.9729C54.0469 47.8565 54.2589 47.64 54.5173 47.2443C54.7771 46.8515 54.8906 46.5664 54.9667 46.4499C55.007 46.3827 55.0429 46.3618 55.0862 46.3887C55.1653 46.4394 55.0742 46.6619 54.8592 47.083C55.2101 47.3652 55.5983 47.631 56.0194 47.9013L57.6305 48.9525C58.0442 49.2242 58.4398 49.4706 58.8415 49.6811C59.1387 49.3153 59.3029 49.1421 59.388 49.1929C59.4283 49.2242 59.4239 49.2616 59.385 49.3332C59.3089 49.4437 59.0864 49.6662 58.8311 50.0574C58.5757 50.4516 58.4578 50.7458 58.3861 50.8593C58.3443 50.9265 58.304 50.9444 58.2622 50.9145C58.1815 50.8637 58.2726 50.6427 58.4861 50.2217C58.1143 49.926 57.7321 49.6707 57.3319 49.4064L55.7208 48.3552C55.3191 48.0939 54.9249 47.8445 54.5053 47.625Z" fill="black"/>
<path d="M13.4734 53.1527C13.9961 53.1527 14.4186 52.7286 14.4186 52.2045C14.4186 51.6834 13.9961 51.2653 13.4734 51.2653C12.9523 51.2653 12.5312 51.6834 12.5312 52.2045C12.5312 52.7286 12.9523 53.1527 13.4734 53.1527Z" fill="black"/>
<path d="M54.2539 52.2953C54.7765 52.2953 55.1961 51.8698 55.1961 51.3531C55.1961 50.8275 54.7765 50.4049 54.2539 50.4049C53.7313 50.4049 53.3087 50.8275 53.3087 51.3531C53.3087 51.8698 53.7313 52.2953 54.2539 52.2953Z" fill="black"/>
<path d="M33.8619 56.5272C46.4315 56.5272 56.6225 46.3392 56.6225 33.7681C56.6225 21.1984 46.4315 11.0089 33.8619 11.0089C21.2923 11.0089 11.1028 21.1984 11.1028 33.7681C11.1028 46.3392 21.2923 56.5272 33.8619 56.5272Z" fill="#B30838"/>
<path d="M33.6589 53.0581C44.3173 53.0581 52.9583 44.4171 52.9583 33.7572C52.9583 23.0988 44.3173 14.4563 33.6589 14.4563C23.0021 14.4563 14.358 23.0988 14.358 33.7572C14.358 44.4171 23.0021 53.0581 33.6589 53.0581Z" fill="#B30838"/>
<path d="M33.6589 53.0581C44.3173 53.0581 52.9583 44.4171 52.9583 33.7572C52.9583 23.0988 44.3173 14.4563 33.6589 14.4563C23.0021 14.4563 14.358 23.0988 14.358 33.7572C14.358 44.4171 23.0021 53.0581 33.6589 53.0581Z" stroke="white" stroke-width="0.000303031"/>
<path d="M44.8226 31.2629H35.9038V23.1384H44.8226V31.2629ZM35.9023 49.0721V35.6887H44.4597C44.4597 35.6887 43.6161 44.6478 35.9023 49.0721ZM31.5646 31.2629H22.489V23.137L31.5646 23.1384V31.2629ZM31.4884 49.099C23.8956 44.7971 22.9191 35.6767 22.9191 35.6767L31.4765 35.6827L31.4884 49.099ZM33.6775 54.9538H33.6984C33.6984 54.9538 48.9706 50.1487 49.1498 30.5327L49.102 18.9112H18.3066L18.2559 30.5327C18.435 50.1487 33.7103 54.9538 33.7103 54.9538H33.7342" fill="white"/>
<path d="M33.6775 54.9538H33.6984C33.6984 54.9538 48.9706 50.1487 49.1498 30.5327L49.102 18.9112H18.3066L18.2559 30.5327C18.435 50.1487 33.7103 54.9538 33.7103 54.9538H33.7342M44.8226 31.2629H35.9038V23.1384H44.8226V31.2629ZM35.9023 49.0721V35.6887H44.4597C44.4597 35.6887 43.6161 44.6478 35.9023 49.0721ZM31.5646 31.2629H22.489V23.137L31.5646 23.1384V31.2629ZM31.4884 49.099C23.8956 44.7971 22.9191 35.6767 22.9191 35.6767L31.4765 35.6827L31.4884 49.099Z" stroke="black" stroke-width="0.00020202"/>
<path d="M240.381 61.8113C239.482 62.3115 238.459 62.5445 237.438 62.5445C234.993 62.5445 233.239 60.8781 233.239 58.4128C233.239 55.9357 235.116 54.2797 237.472 54.2797C238.504 54.2797 239.504 54.5589 240.248 55.313L239.549 56.0462C239.014 55.4683 238.204 55.1473 237.405 55.1473C235.605 55.1473 234.239 56.5016 234.239 58.4128C234.239 60.2898 235.561 61.6784 237.493 61.6784C238.127 61.6784 238.871 61.5112 239.449 61.223V58.813H237.638V57.9455H240.381V61.8113Z" fill="#231F20"/>
<path d="M242.177 58.38C242.177 57.9022 242.132 57.4916 242.132 57.1467H242.953C242.953 57.4244 242.977 57.7141 242.977 58.0023H242.998C243.231 57.4916 243.876 57.0138 244.732 57.0138C244.844 57.0138 244.966 57.0242 245.086 57.069L245.032 57.947C244.887 57.9022 244.721 57.8798 244.564 57.8798C243.51 57.8798 243.043 58.6234 243.043 59.812V62.3444H242.177V58.38Z" fill="#231F20"/>
<path d="M249.785 59.2789C249.75 58.4024 249.174 57.8126 248.218 57.8126C247.263 57.8126 246.63 58.4024 246.519 59.2789H249.785ZM250.528 61.4007C249.918 62.1891 249.185 62.4788 248.218 62.4788C246.585 62.4788 245.586 61.2559 245.586 59.7463C245.586 58.1351 246.719 57.0138 248.253 57.0138C249.718 57.0138 250.717 58.0127 250.717 59.7343V60.0121H246.519C246.585 60.9125 247.275 61.6785 248.218 61.6785C248.964 61.6785 249.462 61.4112 249.873 60.8901L250.528 61.4007Z" fill="#231F20"/>
<path d="M252.059 58.38C252.059 57.9022 252.014 57.4916 252.014 57.1467H252.837C252.837 57.4244 252.859 57.7141 252.859 58.0023H252.88C253.115 57.4916 253.76 57.0138 254.615 57.0138C255.979 57.0138 256.591 57.8798 256.591 59.1356V62.3444H255.725V59.2237C255.725 58.3576 255.347 57.8126 254.536 57.8126C253.415 57.8126 252.925 58.6234 252.925 59.812V62.3444H252.059V58.38Z" fill="#231F20"/>
<path d="M260.676 59.8464C259.577 59.8464 258.866 60.1465 258.866 60.8453C258.866 61.5008 259.355 61.7457 260.01 61.7457C261.011 61.7457 261.521 61.023 261.542 60.1793V59.8464H260.676ZM258.166 57.8126C258.699 57.2691 259.477 57.0138 260.233 57.0138C261.765 57.0138 262.408 57.7469 262.408 59.2132V61.4456C262.408 61.7457 262.443 62.0787 262.487 62.3445H261.654C261.599 62.1115 261.599 61.789 261.599 61.568H261.576C261.232 62.1011 260.655 62.4789 259.865 62.4789C258.811 62.4789 257.932 61.9443 257.932 60.9349C257.932 59.2132 259.932 59.1132 261.209 59.1132H261.542V58.9579C261.542 58.2024 261.064 57.8126 260.254 57.8126C259.7 57.8126 259.122 58.0023 258.711 58.38L258.166 57.8126Z" fill="#231F20"/>
<path d="M266.474 57.8133C265.351 57.8133 264.631 58.6584 264.631 59.747C264.631 60.8355 265.351 61.6791 266.474 61.6791C267.595 61.6791 268.317 60.8355 268.317 59.747C268.317 58.6584 267.595 57.8133 266.474 57.8133ZM268.317 61.4238H268.296C267.972 62.0121 267.23 62.4795 266.295 62.4795C264.842 62.4795 263.697 61.3014 263.697 59.747C263.697 58.1687 264.797 57.0144 266.429 57.0144C267.185 57.0144 267.816 57.3474 268.296 57.9029H268.317V53.9474H269.183V62.3451H268.317V61.4238Z" fill="#231F20"/>
<path d="M273.225 59.8464C272.124 59.8464 271.413 60.1465 271.413 60.8453C271.413 61.5008 271.903 61.7457 272.557 61.7457C273.558 61.7457 274.068 61.023 274.091 60.1793V59.8464H273.225ZM270.715 57.8126C271.248 57.2691 272.026 57.0138 272.78 57.0138C274.313 57.0138 274.957 57.7469 274.957 59.2132V61.4456C274.957 61.7457 274.99 62.0787 275.036 62.3445H274.203C274.146 62.1115 274.146 61.789 274.146 61.568H274.123C273.78 62.1011 273.202 62.4789 272.412 62.4789C271.36 62.4789 270.48 61.9443 270.48 60.9349C270.48 59.2132 272.481 59.1132 273.758 59.1132H274.091V58.9579C274.091 58.2024 273.613 57.8126 272.802 57.8126C272.247 57.8126 271.67 58.0023 271.26 58.38L270.715 57.8126Z" fill="#231F20"/>
<path d="M277.153 63.8772H276.298L277.053 61.2119H278.066L277.153 63.8772Z" fill="#231F20"/>
<path d="M281.961 54.4817H282.996L284.783 61.0129H284.804L286.736 54.4817H287.782L289.703 61.0129H289.724L291.547 54.4817H292.524L290.214 62.3463H289.203L287.26 55.6807H287.238L285.284 62.3463H284.261L281.961 54.4817Z" fill="#231F20"/>
<path d="M296.787 59.2789C296.754 58.4024 296.176 57.8126 295.221 57.8126C294.265 57.8126 293.633 58.4024 293.523 59.2789H296.787ZM297.532 61.4007C296.92 62.1891 296.188 62.4788 295.221 62.4788C293.589 62.4788 292.588 61.2559 292.588 59.7463C292.588 58.1351 293.721 57.0138 295.255 57.0138C296.721 57.0138 297.719 58.0127 297.719 59.7343V60.0121H293.523C293.589 60.9125 294.277 61.6785 295.221 61.6785C295.966 61.6785 296.464 61.4112 296.877 60.8901L297.532 61.4007Z" fill="#231F20"/>
<path d="M299.171 60.9781C299.518 61.4007 299.896 61.6784 300.506 61.6784C301.05 61.6784 301.649 61.4455 301.649 60.8781C301.649 60.3226 301.093 60.1778 300.539 60.0569C299.551 59.8344 298.705 59.6238 298.705 58.5458C298.705 57.5349 299.682 57.0138 300.65 57.0138C301.383 57.0138 302.061 57.29 302.416 57.9575L301.695 58.4353C301.472 58.068 301.105 57.8126 300.593 57.8126C300.117 57.8126 299.572 58.0456 299.572 58.5353C299.572 58.9683 300.194 59.1565 300.883 59.2894C301.804 59.4671 302.583 59.8015 302.583 60.8453C302.583 62.0219 301.538 62.4773 300.506 62.4773C299.627 62.4773 298.995 62.2444 298.484 61.5112L299.171 60.9781Z" fill="#231F20"/>
<path d="M306.635 57.8783H305.103V60.4779C305.103 61.1439 305.113 61.6769 305.879 61.6769C306.135 61.6769 306.412 61.6217 306.645 61.4992L306.68 62.2876C306.379 62.4205 305.991 62.4773 305.669 62.4773C304.437 62.4773 304.235 61.8098 304.235 60.7332V57.8783H303.103V57.1451H304.235V55.6683H305.103V57.1451H306.635V57.8783Z" fill="#231F20"/>
<path d="M311.877 54.4817H310.942V62.3463H311.877V54.4817Z" fill="#231F20"/>
<path d="M313.675 58.38C313.675 57.9022 313.63 57.4916 313.63 57.1467H314.453C314.453 57.4244 314.475 57.7141 314.475 58.0023H314.496C314.729 57.4916 315.374 57.0138 316.228 57.0138C317.595 57.0138 318.207 57.8798 318.207 59.1356V62.3444H317.341V59.2237C317.341 58.3576 316.963 57.8126 316.152 57.8126C315.031 57.8126 314.541 58.6234 314.541 59.812V62.3444H313.675V58.38Z" fill="#231F20"/>
<path d="M322.325 57.8133C321.204 57.8133 320.482 58.6584 320.482 59.747C320.482 60.8355 321.204 61.6791 322.325 61.6791C323.446 61.6791 324.167 60.8355 324.167 59.747C324.167 58.6584 323.446 57.8133 322.325 57.8133ZM324.167 61.4238H324.147C323.823 62.0121 323.08 62.4795 322.146 62.4795C320.693 62.4795 319.548 61.3014 319.548 59.747C319.548 58.1687 320.648 57.0144 322.28 57.0144C323.036 57.0144 323.669 57.3474 324.147 57.9029H324.167V53.9474H325.034V62.3451H324.167V61.4238Z" fill="#231F20"/>
<path d="M326.711 57.147H327.577V62.3448H326.711V57.147ZM327.142 54.4817C327.498 54.4817 327.777 54.7714 327.777 55.1148C327.777 55.4821 327.51 55.7479 327.142 55.7479C326.777 55.7479 326.511 55.4821 326.511 55.1148C326.511 54.7714 326.787 54.4817 327.142 54.4817Z" fill="#231F20"/>
<path d="M333.197 59.2789C333.162 58.4024 332.586 57.8126 331.631 57.8126C330.675 57.8126 330.042 58.4024 329.931 59.2789H333.197ZM333.942 61.4007C333.33 62.1891 332.595 62.4788 331.631 62.4788C329.997 62.4788 328.998 61.2559 328.998 59.7463C328.998 58.1351 330.131 57.0138 331.663 57.0138C333.13 57.0138 334.129 58.0127 334.129 59.7343V60.0121H329.931C329.997 60.9125 330.687 61.6785 331.631 61.6785C332.376 61.6785 332.874 61.4112 333.286 60.8901L333.942 61.4007Z" fill="#231F20"/>
<path d="M335.581 60.9781C335.926 61.4007 336.304 61.6784 336.915 61.6784C337.458 61.6784 338.058 61.4455 338.058 60.8781C338.058 60.3226 337.503 60.1778 336.948 60.0569C335.959 59.8344 335.115 59.6238 335.115 58.5458C335.115 57.5349 336.092 57.0138 337.058 57.0138C337.793 57.0138 338.469 57.29 338.826 57.9575L338.103 58.4353C337.881 58.068 337.513 57.8126 337.003 57.8126C336.525 57.8126 335.981 58.0456 335.981 58.5353C335.981 58.9683 336.604 59.1565 337.292 59.2894C338.214 59.4671 338.992 59.8015 338.992 60.8453C338.992 62.0219 337.948 62.4773 336.915 62.4773C336.037 62.4773 335.405 62.2444 334.894 61.5112L335.581 60.9781Z" fill="#231F20"/>
</svg>
