<svg xmlns="http://www.w3.org/2000/svg" width="12" height="12" viewBox="0 0 12 12">
  <path d="M2.03509157,8.35089154 C3.41522032,7.78948717 4.73685314,7.50878498 6.00001996,7.50878498 C7.26317681,7.50878498 8.57312241,7.78948717 9.92985678,8.35089154 C11.3099456,8.88890157 12,9.60237916 12,10.4912445 L12,12 L0,12 L0,10.4912445 C0,9.60237916 0.678365188,8.88890157 2.03509157,8.35089154 Z M8.10528469,5.12281141 C7.52049503,5.70761012 6.81873347,6 6.00001996,6 C5.18130645,6 4.47954489,5.70761012 3.89474525,5.12281141 C3.30995559,4.53802267 3.01755577,3.83626221 3.01755577,3.01755 C3.01755577,2.19883778 3.30995559,1.49707733 3.89474525,0.912278612 C4.47954489,0.304095532 5.18130645,0 6.00001996,0 C6.81873347,0 7.52049503,0.304095532 8.10528469,0.912278612 C8.69008434,1.49707733 8.98248416,2.19883778 8.98248416,3.01755 C8.98248416,3.83626221 8.69008434,4.53802267 8.10528469,5.12281141 Z"/>
</svg>
