<svg width="13" height="19" viewBox="0 0 13 19" xmlns="http://www.w3.org/2000/svg">
<path d="M12.3411 9.80264C12.3411 9.43514 12.06 9.15411 11.6925 9.15411C11.325 9.15411 11.044 9.43514 11.044 9.80264C11.044 12.3319 8.99032 14.3856 6.46106 14.3856C3.93179 14.3856 1.87811 12.3319 1.87811 9.80264C1.87811 9.43514 1.59708 9.15411 1.22958 9.15411C0.862084 9.15411 0.581055 9.43514 0.581055 9.80264C0.581055 12.8075 2.82929 15.3368 5.81253 15.661V17.3904H3.4562C3.0887 17.3904 2.80767 17.6715 2.80767 18.039C2.80767 18.4065 3.0887 18.6875 3.4562 18.6875H9.46591C9.83341 18.6875 10.1144 18.4065 10.1144 18.039C10.1144 17.6715 9.83341 17.3904 9.46591 17.3904H7.10959V15.661C10.0928 15.3368 12.3411 12.8075 12.3411 9.80264Z" />
<path d="M6.46073 0.3125C4.47191 0.3125 2.85059 1.93382 2.85059 3.92265V9.78103C2.85059 11.7915 4.47191 13.3912 6.46073 13.4128C8.44956 13.4128 10.0709 11.7915 10.0709 9.80265V3.92265C10.0709 1.93382 8.44956 0.3125 6.46073 0.3125Z" />
</svg>
