<svg xmlns="http://www.w3.org/2000/svg" width="32" height="23" viewBox="0 0 32 23">
  <path fill-rule="evenodd" d="M29.0920055 0L32 3.87309067 30.7525866 4.33742194C26.2361387 6.01867549 24.8438022 8.04516712 24.8438022 9.66001383 24.8438022 9.89150387 24.8743283 10.0200653 24.9063757 10.0983546 24.9343664 10.1669075 24.9813219 10.2415208 25.0928792 10.3366006 25.3667016 10.569879 25.9002498 10.8297837 27.0128817 11.2270921L27.0231247 11.2307681C28.5026787 11.7679641 31.0014608 13.3590856 31.0014608 16.6146502 31.0014608 20.1568453 28.0918436 23 24.2348007 23 19.7594262 23 16.8199928 19.146734 16.8199928 14.270441 16.8199928 7.76971385 21.2124093 2.17129114 28.4162725.186169656L29.0920055 0zM28.6909063 1.14257126C21.8849984 3.01800819 17.83415 8.25361745 17.83415 14.270441 17.83415 18.8047646 20.5094969 22.0064805 24.2348007 22.0064805 27.5569771 22.0064805 29.9873035 19.5837832 29.9873035 16.6146502 29.9873035 13.9588733 27.963147 12.6299416 26.66533 12.160603L26.6570139 12.1575231C25.5686204 11.7684609 24.8617527 11.4564958 24.4271864 11.0861117 24.2095482 10.9006216 24.05996 10.7003281 23.9650349 10.4681426 23.8701098 10.2361558 23.8296449 9.97237636 23.8296449 9.66001383 23.8296449 7.39469004 25.772973 5.12826345 30.3923579 3.40868986L28.6909063 1.14257126zM12.272106 0L15.1799991 3.87309067 13.9325857 4.33742194C9.41608704 6.01867549 8.0238114 8.04516712 8.0238114 9.66001383 8.0238114 9.89150387 8.05430711 10.0200653 8.08639504 10.0983546 8.11440607 10.1669075 8.16138183 10.2415208 8.27286814 10.3366006 8.54667031 10.569879 9.08029958 10.8297837 10.1928808 11.2270921L10.2031238 11.2307681C11.6826778 11.7679641 14.1814599 13.3590856 14.1814599 16.6146502 14.1814599 20.1568453 11.2718427 23 7.41480997 23 2.9394557 23 0 19.146734 0 14.270441 0 7.76971385 4.39238809 2.17129114 11.5962716.186169656L12.272106 0zM11.8709054 1.14257126C5.06502789 3.01800819 1.01415928 8.25361745 1.01415928 14.270441 1.01415928 18.8047646 3.68948584 22.0064805 7.41480997 22.0064805 10.7369762 22.0064805 13.1673026 19.5837832 13.1673026 16.6146502 13.1673026 13.9588733 11.1432476 12.6299416 9.84535953 12.160603L9.83705358 12.1575231C8.74861945 11.7684609 8.04181269 11.4564958 7.60722602 11.0861117 7.38951688 10.9006216 7.23999968 10.7003281 7.14509484 10.4681426 7.05009873 10.2361558 7.00965414 9.97237636 7.00965414 9.66001383 7.00965414 7.39469004 8.95294171 5.12826345 13.572357 3.40868986L11.8709054 1.14257126z"/>
</svg>
