<svg width="100" height="100" viewBox="0 0 100 100" fill="none" xmlns="http://www.w3.org/2000/svg">
<path d="M50 24C35.6632 24 24 35.6632 24 50C24 64.3368 35.6632 76 50 76C64.3368 76 76 64.3368 76 50C76 35.6632 64.3368 24 50 24ZM50 71.6667C38.053 71.6667 28.3333 61.947 28.3333 50C28.3333 38.053 38.053 28.3333 50 28.3333C61.947 28.3333 71.6667 38.053 71.6667 50C71.6667 61.947 61.947 71.6667 50 71.6667ZM43.5 41.3333H47.8333V58.6667H43.5V41.3333ZM52.1667 41.3333H56.5V58.6667H52.1667V41.3333Z" fill="white"/>
</svg>
