<svg width="100" height="100" viewBox="0 0 100 100" fill="none" xmlns="http://www.w3.org/2000/svg">
<path d="M59.5225 45.931L48.2732 39.7712C46.815 38.95 45.0817 38.9652 43.6408 39.808C42.1957 40.653 41.3355 42.1545 41.3355 43.8272V56.175C41.3355 57.8477 42.1957 59.3492 43.6408 60.1942C44.3775 60.6253 45.1878 60.8377 45.996 60.8377C46.7717 60.8377 47.5473 60.6405 48.2515 60.244L59.5442 54.0603C61.0327 53.224 61.9188 51.7073 61.9188 50.0022C61.9188 48.297 61.0327 46.7803 59.5247 45.9332L59.5225 45.931ZM57.4403 50.2708L46.1477 56.4567C46.1065 56.4783 45.9808 56.5477 45.8292 56.4545C45.6688 56.3613 45.6688 56.2227 45.6688 56.1772V43.8293C45.6688 43.7838 45.6688 43.6452 45.8292 43.552C45.8877 43.5173 45.9418 43.5065 45.9895 43.5065C46.0675 43.5065 46.1303 43.5412 46.1693 43.5628L57.4187 49.7248C57.4598 49.7487 57.5833 49.818 57.5833 50.0065C57.5833 50.195 57.4577 50.2643 57.4403 50.2773V50.2708ZM50 24C35.6632 24 24 35.6632 24 50C24 64.3368 35.6632 76 50 76C64.3368 76 76 64.3368 76 50C76 35.6632 64.3368 24 50 24ZM50 71.6667C38.053 71.6667 28.3333 61.947 28.3333 50C28.3333 38.053 38.053 28.3333 50 28.3333C61.947 28.3333 71.6667 38.053 71.6667 50C71.6667 61.947 61.947 71.6667 50 71.6667Z" fill="black"/>
</svg>
