<svg width="18" height="18" viewBox="0 0 18 18" xmlns="http://www.w3.org/2000/svg">
<g clip-path="url(#clip0_4013_47568)">
<path d="M15.3909 17H3.17633C2.80329 17 2.5 17.1355 2.5 17.2999V17.7001C2.5 17.8655 2.80568 18 3.17633 18H15.3861C15.7591 18 16.0624 17.8645 16.0624 17.7001V17.2999C16.0696 17.1334 15.764 17 15.3909 17Z" />
<path d="M8.9277 14.3536C9.12296 14.5488 9.43954 14.5488 9.6348 14.3536L12.8168 11.1716C13.012 10.9763 13.012 10.6597 12.8168 10.4645C12.6215 10.2692 12.3049 10.2692 12.1097 10.4645L9.28125 13.2929L6.45282 10.4645C6.25756 10.2692 5.94098 10.2692 5.74572 10.4645C5.55045 10.6597 5.55045 10.9763 5.74572 11.1716L8.9277 14.3536ZM8.78125 0V14H9.78125V0H8.78125Z" />
</g>
<defs>
<clipPath id="clip0_4013_47568">
<rect width="17.4375" height="18" fill="white" transform="translate(0.5625)"/>
</clipPath>
</defs>
</svg>
