<svg xmlns="http://www.w3.org/2000/svg" width="372" height="68" viewBox="0 0 372 68">
  <g fill="none" fill-rule="evenodd">
    <path fill="#FFF" fill-rule="nonzero" d="M89.4115197 24.3571467L88.5405241 24.3571467C87.9474546 20.9782978 85.7156407 17.2660978 82.055678 17.2660978 80.3108853 17.2660978 78.5331777 18.543508 78.5331777 21.1013441 78.5331777 27.282815 90.1778679 28.1083515 90.1778679 36.5579367 90.1778679 40.0629483 87.8070909 44.0197331 82.8235268 44.0197331 80.1719222 44.0197331 78.4644465 42.6177686 77.4172707 42.6177686 76.6852382 42.6177686 76.3356794 43.3172429 76.3356794 43.9777123L75.5693312 43.9777123 74.5221555 35.2385058 75.3243199 35.2385058C75.9891219 37.1763854 77.7668296 42.5336266 82.4724673 42.5336266 85.2615344 42.5336266 86.6552676 40.1844867 86.6552676 37.9583932 86.6552676 35.6092533 86.0996151 34.2071883 80.9741867 30.6631718 77.7668296 28.479099 75.5350156 26.6658743 75.5350156 22.5859426 75.5350156 17.8860544 78.7064564 15.5774273 81.846583 15.5774273 83.9379331 15.5774273 85.8201882 16.9778838 86.6926846 16.9778838 87.6681277 16.9778838 87.8429071 16.0307084 87.913139 15.5774273L88.6436709 15.5774273 89.4115197 24.3571467zM99.2441867 26.2104821L95.7216865 26.2104821 95.7216865 37.9984034C95.7216865 39.2773215 95.7216865 41.707487 97.4993941 41.707487 98.6168017 41.707487 99.2441867 40.8023323 99.6281612 40.2650097L100.080467 40.7182908C99.2441867 42.4911033 97.6054423 43.8525549 96.0010134 43.8525549 94.2233057 43.8525549 92.7937563 42.7388044 92.7937563 38.61836L92.7937563 26.2104821 90.9458168 26.2104821C90.8755849 26.1699693 90.8068537 26.045415 90.8068537 25.9222681 90.8068537 25.4269664 91.5717011 25.1807731 92.33955 24.2741105 93.6661526 22.6664656 94.1874895 21.759803 95.4781758 19.5742222 95.7216865 19.5742222 95.7216865 19.7799027 95.7216865 20.1116453L95.7216865 24.8910512 99.2441867 24.8910512 99.2441867 26.2104821zM101.792244 41.6672757C101.792244 40.3478449 102.66364 39.3195432 103.710116 39.3195432 104.75459 39.3195432 105.661002 40.3913735 105.661002 41.6672757 105.661002 43.1954029 104.441448 43.8948772 103.710116 43.8948772 102.976782 43.8948772 101.792244 43.2359157 101.792244 41.6672757z"/>
    <path d="M101.792244,41.6672757 C101.792244,40.3478449 102.66364,39.3195432 103.710116,39.3195432 C104.75459,39.3195432 105.661002,40.3913735 105.661002,41.6672757 C105.661002,43.1954029 104.441448,43.8948772 103.710116,43.8948772 C102.976782,43.8948772 101.792244,43.2359157 101.792244,41.6672757 Z"/>
    <path fill="#FFF" fill-rule="nonzero" d="M138.717019 29.59295C137.182322 29.7565092 136.27491 29.8391433 136.27491 32.7677269L136.27491 41.0521445C136.27491 41.6270645 131.635802 44.0197331 127.80106 44.0197331 124.350493 44.0197331 120.478734 42.7828357 118.00461 39.6080588 116.157771 37.2168982 115.111295 34.7866321 115.111295 29.3857617 115.111295 22.4628963 119.643354 15.5774273 127.034712 15.5774273 130.557312 15.5774273 132.16004 16.937371 133.276548 16.937371 133.555674 16.937371 134.704196 16.7317911 134.915292 15.5774273L135.682641 15.5774273 135.960767 24.276121 135.158403 24.276121C134.218976 21.3070245 132.405152 17.2270929 127.522934 17.2270929 124.210429 17.2270929 119.086101 19.8254419 119.086101 30.2519115 119.086101 37.7122 122.711748 42.3715754 128.116203 42.3715754 130.487281 42.3715754 132.893374 41.422892 132.893374 39.9367856L132.893374 33.2615208C132.893374 29.8391433 132.196057 29.7985299 129.823979 29.59295L129.823979 28.8499471 138.717019 28.8499471 138.717019 29.59295zM152.69537 36.6827926C151.897007 38.2079039 150.395325 41.0104254 147.292915 41.0104254 144.99187 41.0104254 142.168587 39.3216543 141.748396 32.0265335L152.592323 32.0265335C152.209149 26.625663 149.735025 24.482103 146.455535 24.482103 143.667268 24.482103 139.340302 26.9964106 139.340302 34.6218666 139.340302 40.4745102 141.992507 43.8564755 145.863266 43.8564755 150.883547 43.8564755 152.906466 38.2484167 153.254624 36.9710065L152.69537 36.6827926zM141.851443 30.7071026C142.410697 27.0789441 143.770315 25.9651936 145.688186 25.9651936 148.442438 25.9651936 148.792597 28.7271018 149.037708 30.7071026L141.851443 30.7071026zM161.797505 24.482103C157.124382 24.482103 154.265083 28.9748029 154.265083 34.0454387 154.265083 39.6083604 157.403509 43.8564755 161.903553 43.8564755 167.203961 43.8564755 169.643069 38.1253703 169.643069 34.0454387 169.643069 28.0681403 166.36458 24.482103 161.797505 24.482103zM162.391775 42.7006038C158.205873 42.7006038 157.403509 35.1171684 157.403509 32.0670463 157.403509 27.7785189 159.32238 25.6364669 161.519378 25.6364669 164.725835 25.6364669 166.502642 30.1276588 166.502642 35.2403153 166.502642 41.1349796 164.168582 42.7006038 162.391775 42.7006038z"/>
    <path d="M161.797505,24.482103 C157.124382,24.482103 154.265083,28.9748029 154.265083,34.0454387 C154.265083,39.6083604 157.403509,43.8564755 161.903553,43.8564755 C167.203961,43.8564755 169.643069,38.1253703 169.643069,34.0454387 C169.643069,28.0681403 166.36458,24.482103 161.797505,24.482103 Z M162.391775,42.7006038 C158.205873,42.7006038 157.403509,35.1171684 157.403509,32.0670463 C157.403509,27.7785189 159.32238,25.6364669 161.519378,25.6364669 C164.725835,25.6364669 166.502642,30.1276588 166.502642,35.2403153 C166.502642,41.1349796 164.168582,42.7006038 162.391775,42.7006038 Z"/>
    <path fill="#FFF" fill-rule="nonzero" d="M172.63843 29.6757852C172.63843 27.2426038 171.975128 27.202091 171.417875 27.202091 170.930654 27.202091 170.54748 27.2846245 170.233337 27.3671581L170.233337 26.7081966C171.939112 26.0477272 173.685906 25.3062321 175.394682 24.482103L175.56676 24.5646366 175.56676 28.2333079 175.636792 28.2333079C177.276537 25.3062321 178.460075 24.482103 179.786677 24.482103 180.971215 24.482103 181.668532 25.3482529 181.668532 26.7081966 181.668532 27.7379056 181.18031 28.520014 180.344931 28.520014 179.123376 28.520014 178.775218 27.0774362 177.938838 27.0774362 177.102458 27.0774362 175.56676 29.1384626 175.56676 30.4594014L175.56676 39.7330152C175.56676 42.5775574 176.7543 42.7411166 178.532107 42.8237506L178.532107 43.4421993 170.163305 43.4421993 170.163305 42.8237506C172.081177 42.4138977 172.63843 42.2878355 172.63843 39.9792084L172.63843 29.6757852zM196.665345 27.4496916L196.665345 25.8420468 193.983127 25.8420468C193.423873 25.8420468 192.796588 25.7595132 192.063255 25.4307864 190.667621 24.8123378 189.904274 24.482103 188.683719 24.482103 186.032515 24.482103 182.687995 26.4604954 182.687995 31.3660641 182.687995 33.7557168 183.873534 35.6530836 185.929468 36.7248133 182.828059 39.9792084 182.828059 40.515023 182.828059 41.2176137 182.828059 42.371877 183.734471 42.8657714 184.674898 43.4030939 182.895089 44.8861845 181.258346 46.5763629 181.258346 48.430201 181.258346 50.6157817 183.873534 52.4306149 187.429149 52.4306149 190.566575 52.4306149 196.352203 50.1203794 196.352203 45.4626124 196.352203 44.3082486 195.864982 41.2581265 192.133286 41.0524461L187.637244 40.8047449C186.592769 40.7642321 184.918008 40.6396778 184.918008 39.6909945 184.918008 38.8668654 186.311642 37.1766869 187.009959 37.0956613 187.219054 37.0956613 188.473624 37.3012412 188.891814 37.3012412 190.844701 37.3012412 194.434332 35.6935964 194.434332 31.2429172 194.434332 29.1819913 194.120189 28.398375 193.774032 27.4496916L196.665345 27.4496916zM185.58131 29.3455505C185.58131 26.5836423 186.938927 25.6364669 188.198499 25.6364669 191.19386 25.6364669 191.751113 31.1603837 191.751113 32.3132395 191.751113 33.2213096 191.575033 36.2715322 189.205956 36.2715322 186.48472 36.2715322 185.58131 32.6029614 185.58131 29.3455505zM183.697454 47.1527908C183.697454 45.9158935 184.32674 45.0513521 185.408231 43.5247329 187.046976 43.939009 187.810322 43.939009 191.088812 44.0620554 193.665983 44.1446895 195.373759 44.2257151 195.373759 46.0810611 195.373759 48.2651339 193.005683 50.0798666 188.92783 50.0798666 184.951023 50.0798666 183.697454 48.430201 183.697454 47.1527908z"/>
    <path d="M196.665345,27.4496916 L196.665345,25.8420468 L193.983127,25.8420468 C193.423873,25.8420468 192.796588,25.7595132 192.063255,25.4307864 C190.667621,24.8123378 189.904274,24.482103 188.683719,24.482103 C186.032515,24.482103 182.687995,26.4604954 182.687995,31.3660641 C182.687995,33.7557168 183.873534,35.6530836 185.929468,36.7248133 C182.828059,39.9792084 182.828059,40.515023 182.828059,41.2176137 C182.828059,42.371877 183.734471,42.8657714 184.674898,43.4030939 C182.895089,44.8861845 181.258346,46.5763629 181.258346,48.430201 C181.258346,50.6157817 183.873534,52.4306149 187.429149,52.4306149 C190.566575,52.4306149 196.352203,50.1203794 196.352203,45.4626124 C196.352203,44.3082486 195.864982,41.2581265 192.133286,41.0524461 L187.637244,40.8047449 C186.592769,40.7642321 184.918008,40.6396778 184.918008,39.6909945 C184.918008,38.8668654 186.311642,37.1766869 187.009959,37.0956613 C187.219054,37.0956613 188.473624,37.3012412 188.891814,37.3012412 C190.844701,37.3012412 194.434332,35.6935964 194.434332,31.2429172 C194.434332,29.1819913 194.120189,28.398375 193.774032,27.4496916 L196.665345,27.4496916 Z M185.58131,29.3455505 C185.58131,26.5836423 186.938927,25.6364669 188.198499,25.6364669 C191.19386,25.6364669 191.751113,31.1603837 191.751113,32.3132395 C191.751113,33.2213096 191.575033,36.2715322 189.205956,36.2715322 C186.48472,36.2715322 185.58131,32.6029614 185.58131,29.3455505 Z M183.697454,47.1527908 C183.697454,45.9158935 184.32674,45.0513521 185.408231,43.5247329 C187.046976,43.939009 187.810322,43.939009 191.088812,44.0620554 C193.665983,44.1446895 195.373759,44.2257151 195.373759,46.0810611 C195.373759,48.2651339 193.005683,50.0798666 188.92783,50.0798666 C184.951023,50.0798666 183.697454,48.430201 183.697454,47.1527908 Z"/>
    <path fill="#FFF" fill-rule="nonzero" d="M211.239967 36.6827926C210.438602 38.2079039 208.939922 41.0104254 205.837512 41.0104254 203.538468 41.0104254 200.710183 39.3216543 200.292993 32.0265335L211.13692 32.0265335C210.753746 26.625663 208.27662 24.482103 205.000132 24.482103 202.212866 24.482103 197.8869 26.9964106 197.8869 34.6218666 197.8869 40.4745102 200.537104 43.8564755 204.407863 43.8564755 209.427143 43.8564755 211.451062 38.2484167 211.79722 36.9710065L211.239967 36.6827926zM200.399042 30.7071026C200.956295 27.0789441 202.314912 25.9651936 204.232783 25.9651936 206.987034 25.9651936 207.335193 28.7271018 207.582305 30.7071026L200.399042 30.7071026zM213.086806 24.8105282C215.388851 23.079837 215.946105 21.2259989 215.946105 20.4423826 215.946105 20.0701272 215.700993 19.8644468 215.460884 19.8644468 215.388851 19.8644468 215.285805 19.906568 215.14474 19.9470808 215.040693 19.9875937 214.864613 20.0296144 214.621503 20.0296144 213.715091 20.0296144 212.459521 19.6168461 212.459521 17.9671805 212.459521 16.195876 213.610043 15.5774273 214.484441 15.5774273 215.285805 15.5774273 217.305722 16.1148504 217.305722 19.5342121 217.305722 22.4613884 214.448424 25.1812758 213.398947 25.594044L213.086806 24.8105282zM227.594396 30.4999143C226.825047 26.2954283 225.253333 25.4292785 223.720637 25.4292785 221.803766 25.4292785 221.072433 27.0369234 221.072433 28.110161 221.072433 28.9342901 221.281528 30.1276588 222.573115 31.0373373L226.339826 33.6731833C228.0436 34.9100806 229.266156 36.0643439 229.266156 38.5366307 229.266156 42.1241758 226.442873 43.8549676 224.210859 43.8549676 222.640146 43.8549676 221.142465 43.0713513 220.167022 43.1119646 219.746831 43.1119646 219.607768 43.2365189 219.397673 43.6087743L218.944467 43.6087743 218.944467 37.1766869 219.50172 37.1766869C219.91991 39.3607598 220.582211 42.9483049 224.001764 42.9483049 225.187303 42.9483049 226.825047 42.2878355 226.825047 39.9386956 226.825047 38.6206721 226.130731 37.629968 225.014224 36.888473L222.990305 35.5285293C220.827322 34.0859515 218.911452 32.5623481 218.911452 29.512226 218.911452 27.202091 220.409132 24.482103 223.790668 24.482103 225.325366 24.482103 226.406857 25.3062321 227.000126 25.3062321 227.31527 25.3062321 227.486347 25.0180182 227.594396 24.8528506L227.97557 24.8528506 228.117634 30.4999143 227.594396 30.4999143zM261.205666 16.9357626C258.520446 17.2644893 257.925176 17.8844459 257.925176 22.2135867L257.925176 32.9701905C257.925176 36.2681143 257.925176 44.0181246 248.895073 44.0181246 240.249145 44.0181246 240.249145 35.9799003 240.249145 33.5061056L240.249145 20.6464546C240.249145 17.596232 239.759923 17.141443 237.11172 16.9357626L237.11172 16.1522468 246.978202 16.1522468 246.978202 16.9357626C244.223951 17.1834637 243.80376 17.7193789 243.80376 20.6464546L243.80376 33.8363403C243.80376 36.4736942 243.80376 42.2017835 249.870516 42.2017835 252.589752 42.2017835 254.579656 40.8838605 255.589114 38.9459809 256.045322 38.0393183 256.392479 36.6808825 256.392479 33.3425464L256.392479 22.2135867C256.392479 17.8019124 255.556099 17.1009302 253.11399 16.9357626L253.11399 16.1522468 261.205666 16.1522468 261.205666 16.9357626z"/>
    <path fill="#FFF" fill-rule="nonzero" d="M261.798936 29.512226C261.798936 26.9153849 261.137635 26.8733642 260.578381 26.8733642 260.090159 26.8733642 259.707986 26.9543898 259.566922 27.0369234L259.566922 26.3374491C261.137635 25.8015339 262.774379 25.1830853 264.379108 24.482103L264.62522 24.5646366 264.62522 27.8220476C266.329994 25.9246808 267.656597 24.482103 269.71153 24.482103 271.316259 24.482103 273.794385 25.5944461 273.794385 30.6650819L273.794385 40.1037627C273.794385 42.0416423 274.211575 42.6600909 275.91935 42.8237506L275.91935 43.4421993 268.668056 43.4421993 268.668056 42.8237506C269.958643 42.7006038 270.865054 42.4935159 270.865054 39.3622677L270.865054 30.7476154C270.865054 28.2333079 270.237769 26.7487094 268.180835 26.7487094 267.132359 26.7487094 266.054869 27.5728385 264.728266 29.0979498L264.728266 40.6816986C264.728266 42.0416423 265.215488 42.7006038 267.029312 42.8237506L267.029312 43.4421993 259.635953 43.4421993 259.635953 42.8237506C261.275698 42.7006038 261.798936 42.1647892 261.798936 39.7330152L261.798936 29.512226zM280.204297 15.2900176C281.251773 15.2900176 282.021122 16.237193 282.021122 17.3915568 282.021122 18.5864334 281.251773 19.4929956 280.204297 19.4929956 278.952729 19.4929956 278.462506 18.1750726 278.462506 17.3915568 278.462506 16.6079405 278.985744 15.2900176 280.204297 15.2900176zM276.301524 42.8226448C278.462506 42.6995985 279.055775 42.4518973 279.055775 39.2381155L279.055775 29.6747799C279.055775 27.2415985 278.391474 27.2009852 277.83422 27.2009852 277.347999 27.2009852 276.892793 27.2836192 276.438586 27.3661528L276.438586 26.7477041C278.253411 26.0467219 280.033219 25.2646135 281.845043 24.4810978L281.984106 24.605652 281.984106 39.2381155C281.984106 41.9580029 282.157184 42.6590857 284.562277 42.8226448L284.562277 43.4410935 276.301524 43.4410935 276.301524 42.8226448z"/>
    <path d="M280.204297,15.2900176 C281.251773,15.2900176 282.021122,16.237193 282.021122,17.3915568 C282.021122,18.5864334 281.251773,19.4929956 280.204297,19.4929956 C278.952729,19.4929956 278.462506,18.1750726 278.462506,17.3915568 C278.462506,16.6079405 278.985744,15.2900176 280.204297,15.2900176 Z M276.301524,42.8226448 C278.462506,42.6995985 279.055775,42.4518973 279.055775,39.2381155 L279.055775,29.6747799 C279.055775,27.2415985 278.391474,27.2009852 277.83422,27.2009852 C277.347999,27.2009852 276.892793,27.2836192 276.438586,27.3661528 L276.438586,26.7477041 C278.253411,26.0467219 280.033219,25.2646135 281.845043,24.4810978 L281.984106,24.605652 L281.984106,39.2381155 C281.984106,41.9581034 282.157184,42.6590857 284.562277,42.8226448 L284.562277,43.4410935 L276.301524,43.4410935 L276.301524,42.8226448 Z"/>
    <path fill="#FFF" fill-rule="nonzero" d="M300.502519 25.509902C299.31798 25.6330489 299.07587 26.2935183 298.236489 28.7251917L293.774462 41.9556908C293.390288 43.0694412 293.078146 44.0181246 292.831033 44.0181246 292.517891 44.0181246 292.450861 43.8530575 291.890606 42.0802451 291.054226 39.5254247 287.707706 29.9620891 286.453136 27.0350133 285.929898 25.798116 285.230581 25.5505154 284.531263 25.509902L284.531263 24.8914533 291.366368 24.8914533 291.366368 25.509902C290.528988 25.5925361 289.765641 25.7155824 289.765641 26.7467994 289.765641 27.2406938 289.972735 27.8591424 290.076782 28.1893771L293.630397 38.740401C294.819937 34.7850237 297.297062 28.3529363 297.297062 26.8714542 297.297062 25.9212629 296.527713 25.5505154 295.656317 25.509902L295.656317 24.8914533 300.502519 24.8914533 300.502519 25.509902zM313.093239 36.6827926C312.290874 38.2079039 310.789192 41.0104254 307.686782 41.0104254 305.385737 41.0104254 302.559453 39.3216543 302.141263 32.0265335L312.98519 32.0265335C312.603016 26.625663 310.128892 24.482103 306.851403 24.482103 304.061135 24.482103 299.738171 26.9964106 299.738171 34.6218666 299.738171 40.4745102 302.386374 43.8564755 306.260134 43.8564755 311.277414 43.8564755 313.302334 38.2484167 313.650492 36.9710065L313.093239 36.6827926zM302.249312 30.7071026C302.806565 27.0789441 304.164182 25.9651936 306.082053 25.9651936 308.837305 25.9651936 309.184463 28.7271018 309.431575 30.7071026L302.249312 30.7071026z"/>
    <path fill="#FFF" fill-rule="nonzero" d="M315.599377 29.6757852C315.599377 27.2426038 314.935075 27.202091 314.377822 27.202091 313.891601 27.202091 313.506426 27.2846245 313.190283 27.3671581L313.190283 26.7081966C314.90206 26.0477272 316.644852 25.3062321 318.352628 24.482103L318.527707 24.5646366 318.527707 28.2333079 318.597739 28.2333079C320.235483 25.3062321 321.420021 24.482103 322.744623 24.482103 323.931162 24.482103 324.63148 25.3482529 324.63148 26.7081966 324.63148 27.7379056 324.141258 28.520014 323.305878 28.520014 322.083323 28.520014 321.736165 27.0774362 320.899785 27.0774362 320.061404 27.0774362 318.527707 29.1384626 318.527707 30.4594014L318.527707 39.7330152C318.527707 42.5775574 319.715247 42.7411166 321.493055 42.8237506L321.493055 43.4421993 313.122252 43.4421993 313.122252 42.8237506C315.041124 42.4138977 315.599377 42.2878355 315.599377 39.9792084L315.599377 29.6757852zM334.322883 30.4999143C333.556535 26.2954283 331.985822 25.4292785 330.453125 25.4292785 328.535254 25.4292785 327.801921 27.0369234 327.801921 28.110161 327.801921 28.9342901 328.012016 30.1276588 329.301602 31.0373373L333.067313 33.6731833C334.775089 34.9100806 335.995643 36.0643439 335.995643 38.5366307 335.995643 42.1241758 333.17036 43.8549676 330.941347 43.8549676 329.370633 43.8549676 327.871953 43.0713513 326.894509 43.1119646 326.478319 43.1119646 326.340257 43.2365189 326.130161 43.6087743L325.675955 43.6087743 325.675955 37.1766869 326.234209 37.1766869C326.651398 39.3607598 327.314699 42.9483049 330.734253 42.9483049 331.918791 42.9483049 333.556535 42.2878355 333.556535 39.9386956 333.556535 38.6206721 332.860219 37.629968 331.743712 36.888473L329.719792 35.5285293C327.559811 34.0859515 325.639939 32.5623481 325.639939 29.512226 325.639939 27.202091 327.13962 24.482103 330.522157 24.482103 332.057854 24.482103 333.136344 25.3062321 333.732615 25.3062321 334.042756 25.3062321 334.216835 25.0180182 334.322883 24.8528506L334.706057 24.8528506 334.847121 30.4999143 334.322883 30.4999143zM341.192004 15.2900176C342.23948 15.2900176 343.005828 16.237193 343.005828 17.3915568 343.005828 18.5864334 342.23948 19.4929956 341.192004 19.4929956 339.937434 19.4929956 339.450213 18.1750726 339.450213 17.3915568 339.450213 16.6079405 339.970449 15.2900176 341.192004 15.2900176zM337.286229 42.8226448C339.450213 42.6995985 340.040481 42.4518973 340.040481 39.2381155L340.040481 29.6747799C340.040481 27.2415985 339.377179 27.2009852 338.822928 27.2009852 338.334706 27.2009852 337.880499 27.2836192 337.426293 27.3661528L337.426293 26.7477041C339.240117 26.0467219 341.018925 25.2646135 342.830748 24.4810978L342.969812 24.605652 342.969812 39.2381155C342.969812 41.9580029 343.146892 42.6590857 345.548983 42.8226448L345.548983 43.4410935 337.286229 43.4410935 337.286229 42.8226448z"/>
    <path d="M341.192004,15.2900176 C342.23948,15.2900176 343.005828,16.237193 343.005828,17.3915568 C343.005828,18.5864334 342.23948,19.4929956 341.192004,19.4929956 C339.937434,19.4929956 339.450213,18.1750726 339.450213,17.3915568 C339.450213,16.6079405 339.970449,15.2900176 341.192004,15.2900176 Z M337.286229,42.8226448 C339.450213,42.6995985 340.040481,42.4518973 340.040481,39.2381155 L340.040481,29.6747799 C340.040481,27.2415985 339.377179,27.2009852 338.822928,27.2009852 C338.334706,27.2009852 337.880499,27.2836192 337.426293,27.3661528 L337.426293,26.7477041 C339.240117,26.0467219 341.018925,25.2646135 342.830748,24.4810978 L342.969812,24.605652 L342.969812,39.2381155 C342.969812,41.9581034 343.146892,42.6590857 345.548983,42.8226448 L345.548983,43.4410935 L337.286229,43.4410935 L337.286229,42.8226448 Z"/>
    <path fill="#FFF" fill-rule="nonzero" d="M354.619104 26.2104821L351.094503 26.2104821 351.094503 37.9984034C351.094503 39.2773215 351.094503 41.707487 352.87231 41.707487 353.986817 41.707487 354.619104 40.8023323 355.001277 40.2650097L355.455484 40.7182908C354.619104 42.4911033 352.977358 43.8525549 351.372629 43.8525549 349.594821 43.8525549 348.166172 42.7388044 348.166172 38.61836L348.166172 26.2104821 346.318333 26.2104821C346.248301 26.1699693 346.177269 26.045415 346.177269 25.9222681 346.177269 25.4269664 346.946618 25.1807731 347.715968 24.2741105 349.04057 22.6664656 349.560806 21.759803 350.849391 19.5742222 351.094503 19.5742222 351.094503 19.7799027 351.094503 20.1116453L351.094503 24.8910512 354.619104 24.8910512 354.619104 26.2104821zM372 25.509902C371.545794 25.5925361 370.845475 25.6750696 370.322238 27.3637401L364.952798 44.1832922C363.175991 49.7041932 361.643295 52.4270965 359.025105 52.4270965 357.283314 52.4270965 356.478949 51.1061576 356.478949 50.0359358 356.478949 49.7882347 356.548981 48.2211026 358.156711 48.2211026 359.098139 48.2211026 360.176629 48.9626982 360.631835 48.9626982 362.443659 48.9626982 363.838292 43.2766296 363.838292 42.6161602 363.838292 41.9962036 362.166533 38.2044859 361.67631 36.9270758L357.701504 26.7873122C357.283314 25.7576032 356.375902 25.5504148 355.923697 25.4693892L355.923697 24.8914533 363.10696 24.8914533 363.10696 25.509902C362.303595 25.5504148 361.085041 25.5925361 361.085041 26.7047786 361.085041 27.2406938 361.330153 27.8996552 361.4342 28.1893771L365.442021 38.6187621 368.164257 29.4682952C368.512416 28.3529363 368.966622 27.0350133 368.966622 26.6642658 368.966622 25.8807501 368.404366 25.4693892 367.28986 25.509902L367.28986 24.8914533 372 24.8914533 372 25.509902zM65.2520441 33.9997989C65.2520441 42.432797 61.9849598 50.3599378 56.0483628 56.3237654 50.1147672 62.2874925 42.2241825 65.573353 33.8316698 65.573353 25.439157 65.573353 17.550073 62.2874925 11.6149767 56.3237654 5.67982035 50.3599378 2.41125544 42.432797 2.41125544 33.9997989 2.41125544 25.5683088 5.67982035 17.6396601 11.6149767 11.6773404 17.550073 5.71361327 25.439157 2.42926076 33.8316698 2.42926076 42.2241825 2.42926076 50.1147672 5.71361327 56.0483628 11.6773404 61.9849598 17.6396601 65.2520441 25.5683088 65.2520441 33.9997989z"/>
    <path fill="#FFF" fill-rule="nonzero" d="M33.8329704,68 C52.5196597,68 67.6689421,52.7761299 67.6689421,33.9991958 C67.6689421,15.2223622 52.5196597,0 33.8329704,0 C15.1492823,0 0,15.2223622 0,33.9991958 C0,52.7761299 15.1492823,68 33.8329704,68 Z"/>
    <path d="M33.8329704,68 C52.5196597,68 67.6689421,52.7761299 67.6689421,33.9991958 C67.6689421,15.2223622 52.5196597,0 33.8329704,0 C15.1492823,0 0,15.2223622 0,33.9991958 C0,52.7761299 15.1492823,68 33.8329704,68 Z"/>
    <path fill="#FFF" fill-rule="nonzero" d="M33.83217,66.4221114 C51.6494644,66.4221114 66.0980284,51.9037473 66.0980284,33.9989947 C66.0980284,16.0942421 51.6494644,1.57885363 33.83217,1.57885363 C16.0133749,1.57885363 1.56321017,16.0942421 1.56321017,33.9989947 C1.56321017,51.9037473 16.0133749,66.4221114 33.83217,66.4221114 Z"/>
    <path d="M33.83217,66.4221114 C51.6494644,66.4221114 66.0980284,51.9037473 66.0980284,33.9989947 C66.0980284,16.0942421 51.6494644,1.57885363 33.83217,1.57885363 C16.0133749,1.57885363 1.56321017,16.0942421 1.56321017,33.9989947 C1.56321017,51.9037473 16.0133749,66.4221114 33.83217,66.4221114 Z"/>
    <path fill="#000" fill-rule="nonzero" d="M16.0675995 54.694306C15.6852258 55.1251693 15.3326656 55.5724186 14.9995143 56.030324 14.884462 56.1834282 14.7754125 56.3335166 14.6663629 56.4911447 15.0712469 56.846813 15.2489276 57.0405306 15.1907012 57.1155245 15.1593869 57.1590531 15.1204692 57.1485982 15.0562401 57.1035617 14.9501919 57.0224355 14.7439982 56.7958452 14.3601238 56.5091392 14.0702921 56.2945118 13.8163768 56.1804124 13.6819157 56.0812917 13.6161858 56.0317314 13.5937757 55.9987582 13.6265906 55.9567375 13.680415 55.8846588 13.8821067 55.9792557 14.2704831 56.1953911 14.6305467 55.9236637 15.1757944 55.399812 15.8644072 54.6342907L17.1746024 53.1797501C17.2701458 52.7715056 17.3015601 52.5073179 17.1565943 52.310685 17.0640522 52.1860301 16.9609054 52.1260149 17.0117284 52.0569521 17.041642 52.0179472 17.0864624 52.0194551 17.1521923 52.0675076 17.1910099 52.1004808 17.3358757 52.2505692 17.6257074 52.4667045 17.6959393 52.5162649 17.7720739 52.5762801 17.864716 52.6363959 17.706344 53.2488129 17.6092999 53.6931469 17.5614782 53.9407476L17.0640522 56.6817459 20.365452 54.4857102C20.519322 54.6117724 20.6328735 54.6958139 20.7030054 54.749898 20.9928371 54.9645254 21.1811226 55.0576144 21.225943 55.0936035 21.2916728 55.140148 21.309581 55.1806608 21.2781667 55.2256973 21.230345 55.2887284 21.0540649 55.2001632 20.7045061 55.0335882L18.9791222 57.7820256C18.7267076 58.182831 18.4652888 58.6300804 18.2157754 59.1254827 18.5086085 59.4241516 18.6519736 59.5757479 18.5996498 59.6493344 18.5698363 59.6928631 18.529518 59.6809003 18.4652888 59.6313399 18.3532379 59.5442826 18.1470442 59.3221156 17.7705732 59.0399333 17.3912008 58.7592589 17.1058712 58.6241492 16.995321 58.5401077 16.9295911 58.4920553 16.9145843 58.4604895 16.9459986 58.4214846 17.0027244 58.3419669 17.2358303 58.4485267 17.6735291 58.7216614 17.7407596 58.6451596 17.8064895 58.5550864 17.8766214 58.4589816 18.0559028 58.2158042 18.2441884 57.9351298 18.4383766 57.6228896L20.1831692 54.8218761 16.6083452 57.2161531C16.5322106 57.2716446 16.493393 57.2837079 16.451574 57.2536501 16.4171583 57.2296238 16.4305644 57.1830794 16.4440706 57.1035617L17.1058712 53.5190323 16.0675995 54.694306zM24.0145098 56.583731C23.0404673 56.1513598 22.0037963 56.5746835 21.5286805 57.6599845 21.261259 58.2678777 21.168717 58.9404105 21.2598584 59.5753458 21.3718092 60.3573536 21.8305176 60.9758023 22.5057244 61.2760796 22.8477798 61.427676 23.1839325 61.4591413 23.5229865 61.4021418 23.8203216 61.3466503 23.9845962 61.2505455 24.0309173 61.2715559 24.0712356 61.2880425 24.0817404 61.3075449 24.0608309 61.3466503 24.0399214 61.4036498 23.8904535 61.4846754 23.6425408 61.5597698 23.1361108 61.7053345 22.586361 61.6558747 22.0545194 61.4216443 20.7310181 60.8332535 20.1991765 59.4762251 20.8370663 58.0262083 21.1403041 57.335681 21.5810043 56.8449029 22.130754 56.5612127 22.8941008 56.1738781 23.6559469 56.1573915 24.4626134 56.5161761 24.8614946 56.6902908 25.2394663 56.9664414 25.5995299 57.334173 25.8161283 56.9859438 25.9355826 56.8223846 26.0297253 56.8628975 26.0715443 56.8763682 26.0670423 56.9109499 26.0342274 56.9785047 26.0043138 57.0519908 25.7548004 57.4003205 25.4426586 58.1147735 25.1961466 58.6701911 25.1035045 58.9794154 25.082595 59.024452 25.0631862 59.0649648 25.0243686 59.0799435 24.9884523 59.0649648 24.9123177 59.0289757 24.9556374 58.8157557 25.0946005 58.3865009L25.2752826 57.8340991C25.0034591 57.269634 24.5254419 56.8133371 24.0145098 56.583731zM26.636601 60.3297084C26.4753278 60.885126 26.34827 61.4405436 26.2392205 62.0004849 26.2019036 62.1850544 26.1660873 62.3682166 26.1361737 62.5558019 26.6531085 62.702975 26.8965191 62.805011 26.8801117 62.8965921 26.8667056 62.9476604 26.8307893 62.9581153 26.7501526 62.9386128 26.6186929 62.9145866 26.3363646 62.8004873 25.8672515 62.7073983 25.516192 62.638436 25.2383658 62.6399439 25.0740912 62.609886 24.9918538 62.5949074 24.9620403 62.573897 24.9694436 62.5243367 24.9844505 62.4342635 25.2129543 62.4312477 25.6536545 62.4613056 25.8598482 62.0589922 26.1316716 61.3504704 26.4305074 60.365798L26.9921626 58.4834099C26.9055232 58.0751654 26.8188838 57.8289722 26.6037861 57.7073332 26.464823 57.6368631 26.34827 57.6247997 26.3647775 57.5437741 26.3751823 57.48969 26.4139999 57.4747113 26.4947366 57.4942137 26.544059 57.5017533 26.7397479 57.5782552 27.0937087 57.64581 27.1789474 57.6608893 27.2744908 57.6788838 27.3835404 57.6953704 27.5000933 58.3198507 27.6031401 58.761169 27.6658686 59.0043464L28.3858957 61.6941759 30.4310248 58.2958245C30.6237124 58.3393532 30.7611748 58.3693106 30.8463135 58.3858977 31.2003744 58.4534525 31.4080687 58.4578758 31.4662952 58.4684312 31.5454311 58.4834099 31.5783461 58.5134678 31.5708427 58.5645361 31.5529345 58.6440538 31.3572456 58.6440538 30.9703699 58.6425458L30.5818934 61.8638673C30.5296697 62.3366508 30.4803473 62.8530634 30.4683418 63.4113963 30.8598196 63.5525377 31.0525072 63.6291401 31.0376004 63.7131816 31.0270956 63.7671652 30.9867773 63.7731969 30.909042 63.7552023 30.7731803 63.7281603 30.48635 63.612553 30.026241 63.5224799 29.5646312 63.4325072 29.2508887 63.4325072 29.1134263 63.4039573 29.0342903 63.388878 29.0088788 63.3678677 29.0193835 63.3184079 29.040293 63.223811 29.2897063 63.222303 29.8051405 63.2793025 29.8305521 63.1742506 29.8529622 63.0691988 29.8753724 62.9505757 29.9335989 62.6549226 29.984422 62.32318 30.0247403 61.9509246L30.4101153 58.6741117 28.2007116 62.3727403C28.1528899 62.4552739 28.1259777 62.4882471 28.0737539 62.480808 28.0304343 62.4687446 28.0259322 62.4222001 28.003522 62.3411745L27.0727992 58.8226921 26.636601 60.3297084zM33.0171997 58.739656C32.5451853 58.6961273 32.3106788 58.655514 32.3076774 58.5610176 32.3076774 58.5099493 32.3434937 58.4844152 32.425631 58.4829073 32.4913609 58.4798914 32.793198 58.5264359 33.3354443 58.515981 33.880692 58.5084414 34.1809284 58.4469182 34.2451576 58.4469182 34.327395 58.4469182 34.3647119 58.4664207 34.3647119 58.5205048 34.3662126 58.6165091 34.1331067 58.6660694 33.6640936 58.7245767 33.6222746 59.1779583 33.6326794 59.6507418 33.6431841 60.1446362L33.6805011 62.0795C33.6895052 62.5598231 33.704412 63.0357229 33.7582364 63.5055911 33.9210104 63.5085064 34.0823837 63.5115223 34.2436569 63.5100144 35.038418 63.4920198 35.7181268 63.3644497 36.2499684 63.1452985L36.3081949 62.7159432C36.3291044 62.5673627 36.3411098 62.4922682 36.4083403 62.4922682 36.4381539 62.4922682 36.4665668 62.5208182 36.4710688 62.5703785 36.4710688 62.6214468 36.4381539 62.8616083 36.4441566 63.2743766 36.45166 63.6556795 36.5083858 63.8642753 36.5083858 63.9108198 36.5098865 63.9738509 36.5038838 64.0099405 36.4590634 64.0099405 36.4217464 64.0143637 36.4023376 63.9768667 36.3784268 63.9123277L36.3141976 63.7787259C35.5941705 63.7187106 34.8054121 63.6901607 33.9389185 63.7051393L33.3578545 63.7187106C32.9066495 63.7262502 32.6318247 63.7847576 32.5287779 63.7862655 32.4465405 63.7922972 32.4092235 63.7757101 32.4092235 63.7247423 32.4077229 63.6286375 32.6422294 63.5805851 33.1098418 63.5205698 33.1456581 63.0671882 33.1427568 62.5944047 33.1352534 62.0915633L33.0979364 60.1565991C33.0874317 59.6612973 33.0710242 59.1899212 33.0171997 58.739656zM36.3144977 58.5246264C36.3069943 58.4735582 36.3369079 58.4450082 36.4175445 58.4255057 36.5744158 58.3940405 36.8552434 58.4029875 37.2272124 58.3264856 37.5872759 58.2498832 37.847194 58.1313606 38.005566 58.095271 38.0847019 58.0802924 38.1265209 58.0922552 38.1370257 58.1448314 38.1549338 58.2318887 37.9607456 58.3083905 37.5797725 58.4570716L39.2678394 60.1788158 39.5964887 59.3427238C39.7473573 58.96886 39.8922231 58.5095472 40.046093 57.9436747 39.6428098 57.9601613 39.4426188 57.9646851 39.4247107 57.873104 39.4142059 57.8295754 39.4471209 57.7981101 39.5277575 57.780015 39.6264023 57.7590047 39.8743149 57.7605126 40.2537873 57.679487 40.6347604 57.6059004 40.8722683 57.5023565 40.9723138 57.4813461 41.0515498 57.4633516 41.0918681 57.4798382 41.1022728 57.5293985 41.1172796 57.6014772 40.9484029 57.6959736 40.6078482 57.8295754 40.2044649 58.4900448 39.9042285 59.0664727 39.7010362 59.5588592L39.4083032 60.2913067 41.6281117 62.493374C42.1136323 62.4439142 42.3616449 62.4378825 42.3795531 62.5339874 42.3899578 62.5849551 42.3556422 62.6074734 42.2780069 62.6195367 42.1330411 62.651002 41.8298033 62.6479862 41.3861018 62.7380593 40.9604084 62.8281325 40.6869841 62.9512794 40.5421183 62.9827447 40.4613816 62.9992313 40.4240647 62.9917922 40.41366 62.939216 40.3957518 62.8536666 40.5973434 62.7696251 41.0052287 62.6195367L39.1916048 60.7761536 38.7554066 61.8824649C38.6553612 62.1271503 38.5433103 62.5609289 38.4118505 63.161383 38.9033738 63.1133306 39.1572892 63.1043836 39.176698 63.19888 39.1872028 63.2484403 39.1527872 63.2709586 39.0781532 63.2874452 38.9167799 63.319011 38.632951 63.319011 38.25648 63.3956134 37.8950157 63.4690994 37.6530058 63.5831988 37.4856298 63.6206958 37.4049931 63.6342671 37.3676762 63.6267275 37.3556707 63.5756592 37.3377626 63.4886019 37.5245474 63.4121 37.9054205 63.263419 38.1892494 62.7020703 38.4641743 62.1031241 38.7225917 61.4681888L39.0601451 60.657631 36.9538882 58.5876575C36.5430015 58.6041441 36.3354072 58.6101758 36.3144977 58.5246264z"/>
    <path fill="#000" fill-rule="nonzero" d="M40.9121865,57.6077099 C40.891277,57.5581496 40.9181892,57.5251764 40.9913224,57.4966264 C41.1407903,57.4290715 41.4186165,57.3870508 41.769676,57.2414862 C42.10873,57.1003448 42.3433366,56.9307539 42.4897031,56.8662149 C42.5644371,56.8376649 42.6077567,56.8421887 42.6286662,56.8872252 C42.6629818,56.9712667 42.4852011,57.086874 42.1356423,57.3030093 L44.1210442,58.6720006 L44.2868195,57.7878562 C44.3615535,57.3945904 44.4182793,56.9171826 44.4630996,56.3318077 C44.0732225,56.4233887 43.8745322,56.4639016 43.8401166,56.3828759 C43.8207078,56.3348235 43.84762,56.3017498 43.922354,56.2702845 C44.0163967,56.2282638 44.2599073,56.1832272 44.6184702,56.0346467 C44.9784338,55.8844578 45.1906302,55.740401 45.2831722,55.6998882 C45.3594068,55.6683224 45.4012258,55.675862 45.4221353,55.7208986 C45.4505482,55.7899614 45.3026811,55.9190394 44.9934406,56.1081327 C44.7200164,56.8391728 44.5348322,57.4591294 44.4346867,57.9829812 L44.2838182,58.7545341 L46.869693,60.4972887 C47.3403068,60.3561473 47.580816,60.3006558 47.6151316,60.3922369 C47.6345404,60.4402893 47.6076282,60.4672308 47.534495,60.5018125 C47.3955318,60.555796 47.0982968,60.6068643 46.6785061,60.7809789 C46.2811256,60.9490618 46.0331129,61.1246844 45.9001525,61.1832922 C45.8210165,61.2147575 45.7852003,61.2147575 45.7656914,61.1652977 C45.7313758,61.0811557 45.9106573,60.9596173 46.2901297,60.7389582 L44.1553598,59.2738621 L43.9387614,60.4432046 C43.8879383,60.7029691 43.8566241,61.1487106 43.8386159,61.7626355 C44.3167331,61.6185788 44.5601437,61.5644947 44.5975607,61.651552 C44.6184702,61.7011123 44.5885566,61.7296623 44.516824,61.7597202 C44.3659555,61.8212434 44.0851279,61.873719 43.7310671,62.0224 C43.3965151,62.161933 43.173914,62.3255927 43.0170427,62.3856079 C42.9423087,62.4171737 42.9049918,62.4171737 42.8840823,62.3706292 C42.848266,62.2880957 43.0170427,62.1770122 43.3681022,61.9593689 C43.5353782,61.3528831 43.6937501,60.713424 43.8282112,60.0394839 L44.005992,59.1823816 L41.5500762,57.5492026 C41.1496944,57.6422916 40.9480027,57.6873281 40.9121865,57.6077099 Z"/>
    <path fill="#000" fill-rule="nonzero" d="M45.2102391 55.8666643C45.1804255 55.8216277 45.1983337 55.7856387 45.2655642 55.7390942 45.4044273 55.6429893 45.661444 55.5499004 45.9467737 55.3638229 46.2066917 55.1882004 46.3769691 54.9900595 46.5233356 54.889431 46.5905661 54.8474102 46.6323851 54.8459023 46.6607981 54.887923 46.7131218 54.9630175 46.5666553 55.1011431 46.2694202 55.3833254L50.1220705 58.1033133 49.7979233 56.4595788C49.6291466 55.5514083 49.3438169 54.5712596 48.9613432 53.5654763 48.5923756 53.7321518 48.4055907 53.8177012 48.3563684 53.7426068 48.3294561 53.700586 48.3458636 53.6600732 48.4130941 53.6150366 48.4967321 53.5580372 48.7133305 53.4664561 49.0061636 53.2698232 49.2974959 53.0731903 49.4632712 52.9080227 49.5484099 52.8525312 49.6156404 52.8059867 49.6574594 52.8044788 49.687373 52.8449916 49.7336941 52.9125465 49.6082371 53.0326775 49.3677278 53.2938495 49.473776 53.9573347 49.6067364 54.6327828 49.7396968 55.3082309L50.3789872 58.5851443C50.4013974 58.6947199 50.3909927 58.7712218 50.3730845 58.7847931 50.3297649 58.8147504 50.2938485 58.7847931 50.2326207 58.7456876L45.7674922 55.7195917C45.4298388 55.8636485 45.2550594 55.9327112 45.2102391 55.8666643zM53.977522 55.4485681C54.3568944 55.1678937 54.5615874 55.0373077 54.6288179 55.1093864 54.6632336 55.1453754 54.6437247 55.1843803 54.5854983 55.2399723 54.4809508 55.3330613 54.2180313 55.4951126 53.8773766 55.8133844 53.5308191 56.1345716 53.3515377 56.3852886 53.2439888 56.4783776 53.187263 56.5338691 53.1499461 56.5473398 53.1170311 56.5098429 53.0528019 56.4407801 53.1932658 56.247163 53.5054076 55.8868704 53.2320834 55.5281863 52.9213422 55.1769412 52.5821881 54.809109L51.276595 53.3876421C50.941943 53.0243337 50.6177957 52.6821362 50.281643 52.3833667 49.90077 52.665549 49.700579 52.7947276 49.6363498 52.7211411 49.5990329 52.6821362 49.6154403 52.6416234 49.6721661 52.5905551 49.7693103 52.5004819 50.0411337 52.3383302 50.3862905 52.017143 50.7298466 51.6958553 50.9106288 51.4361913 51.0091735 51.349134 51.0704013 51.2921346 51.109319 51.283087 51.146636 51.320584 51.2123658 51.3911547 51.0675 51.5847718 50.7582595 51.9405406 51.0450898 52.3188277 51.3528296 52.665549 51.6754762 53.018302L52.9810694 54.4383615C53.3067173 54.7896066 53.6264626 55.1319047 53.977522 55.4485681zM9.62398219 51.6452897C9.58066251 51.6753476 9.54331554 51.6543372 9.49999586 51.5852744 9.43127464 51.4696671 9.32521646 51.1634586 9.08320651 50.7611453 8.84269725 50.3559167 8.62458816 50.1231942 8.55736762 50.0076874 8.51254726 49.9416405 8.51254726 49.9010272 8.56035898 49.8710698 8.64102563 49.8215095 8.79787688 50.0031637 9.08619787 50.3799429L11.5615524 49.0003962C11.6436897 48.9494285 11.7288284 48.9088151 11.8050631 48.8623712 12.9029618 48.1958701 13.1778867 47.6088867 12.6296377 46.6962929 12.2501653 46.0672888 11.7393332 45.7790748 11.1551678 45.8511534 10.7443812 45.9007137 10.2872735 46.1333357 9.69569476 46.4936283L9.05333294 46.8823703C8.52749405 47.2021501 8.03900213 47.5503793 7.61175803 47.9211269 7.82238372 48.3775243 7.9150058 48.61467 7.83284847 48.6656377 7.78951879 48.6911719 7.75218182 48.6701615 7.71035282 48.6026066 7.65507771 48.5140414 7.56394631 48.2558853 7.34435655 47.8911695 7.12326611 47.5248452 6.94399466 47.3251965 6.89022023 47.2351233 6.85138259 47.1660605 6.85287327 47.1315794 6.89768363 47.1045374 6.97237756 47.0564849 7.10533796 47.2095892 7.36675673 47.5174061 7.69540603 47.3882276 8.21378153 47.0970983 8.95622882 46.6917691L9.68673069 46.2924716C10.2484559 45.9877711 10.6965595 45.7160437 11.1850814 45.674023 11.8199698 45.6289864 12.3921298 45.9682686 12.8238259 46.6917691 13.2272091 47.362794 13.2720295 47.9992372 12.9971046 48.494539 12.7671001 48.8968523 12.3203972 49.1790346 11.6974141 49.5558138L9.41932921 50.9338525C9.61651879 51.3661232 9.70614951 51.5943219 9.62398219 51.6452897zM8.95118653 43.9969132C9.67719636 43.7537358 10.2583604 43.5045267 10.6960592 43.2794444 10.5675008 42.7510688 10.5256818 42.4763256 10.6243266 42.4448604 10.6706477 42.4312891 10.7004612 42.4643628 10.7228714 42.5363409 10.7631897 42.6625036 10.799106 42.9551408 10.9394698 43.38902 11.0515207 43.7251858 11.1904838 43.9609241 11.2413069 44.1110126 11.2637171 44.1815833 11.2607158 44.2220961 11.2113933 44.2385827 11.1277554 44.2641168 11.0321119 44.0884943 10.8394244 43.7177468 10.5032716 43.7432809 9.92966106 43.8648193 9.16928562 44.1185522L6.65511343 44.9546441C6.26969833 45.4874429 6.4190862 45.7936514 6.32945548 45.8222013 6.28015308 45.8401959 6.2443068 45.8042068 6.22189661 45.7366519 6.21144186 45.7006629 6.19052236 45.4964904 6.06802671 45.1257429 6.04412585 45.0551722 6.0127516 44.9800777 5.98436871 44.8960362L8.99002418 40.4723991 6.99571816 41.1328685C6.18305897 41.403088 5.59447157 41.6447575 5.22101191 41.847422 5.33902553 42.3442318 5.3688991 42.5994725 5.27627702 42.626414 5.2284753 42.646017 5.19561037 42.617467 5.17170951 42.5468963 5.13287187 42.4282732 5.10448897 42.135636 4.96555586 41.7017569 4.85351496 41.3640831 4.70860913 41.1328685 4.65781605 40.9842881 4.63541587 40.9137174 4.64587062 40.8716966 4.6966637 40.8567179 4.78480374 40.82666 4.89683464 41.0248009 5.08207879 41.4271142 5.63630058 41.3445807 6.40863145 41.1239215 7.41250751 40.7921789L9.85347644 39.9801132C9.87140459 39.9755894 9.88634138 39.9695577 9.89829681 39.9665419 9.94012581 39.9530711 9.96252599 39.9455315 9.97299074 39.9801132 9.98493617 40.0161022 9.9685087 40.0746096 9.90277884 40.1661906L6.7970379 44.7114667 8.95118653 43.9969132zM9.21038429 37.5567836C9.18797411 37.0838995 9.1954475 36.8422301 9.28805958 36.8242355 9.33885265 36.8182039 9.35827147 36.8527855 9.37321826 36.9307953 9.39263709 37.0704288 9.38367301 37.3796531 9.45537559 37.8449975 9.52707816 38.3117494 9.63165567 38.6014713 9.65555653 38.7426127 9.66750196 38.8251462 9.65853788 38.8582199 9.60625413 38.8686749 9.51214138 38.8851615 9.43446609 38.6585712 9.30897908 38.1992585 8.86081548 38.2262 8.39473374 38.290739 7.9002691 38.3688493L5.9955838 38.6690261C5.51157391 38.7441206 5.04698285 38.8251462 4.609284 38.9392456 4.63467554 39.4150449 4.62571147 39.6567144 4.53159871 39.6733015 4.47931496 39.6778253 4.4554141 39.6447515 4.43898664 39.5667418 4.42105849 39.4360553 4.43748595 39.116376 4.36578338 38.6495237 4.29258012 38.1826713 4.18053922 37.8870183 4.15813905 37.7549244 4.14618362 37.6753062 4.1611204 37.6347934 4.2104228 37.6272538 4.30752691 37.6122751 4.38669288 37.8404738 4.51068921 38.2982786 4.98424435 38.2682207 5.43987134 38.2036817 5.91342648 38.1317036L7.81511041 37.8284104C8.28717487 37.7534165 8.75027526 37.6722903 9.21038429 37.5567836zM4.02455836 36.8656531C3.97227461 36.8656531 3.95285579 36.8280556 3.95285579 36.7485379 3.94986443 36.5729154 4.01410361 36.3087276 4.00962158 35.9694454 4.00812089 35.652782 3.94239103 35.402065 3.94239103 35.2249345 3.94239103 35.1454168 3.96331054 35.1064119 4.01410361 35.1064119 4.10074297 35.1064119 4.1410813 35.3045527 4.20681116 35.7097814L8.59575506 33.9836139 7.05409468 33.342647C6.20707988 32.9838623 5.23457807 32.6806696 4.18888301 32.4449313 4.12613451 32.8517684 4.08878754 33.0514172 4.0006575 33.0529251 3.95285579 33.0529251 3.92745425 33.0154281 3.92596357 32.934302 3.92596357 32.830758 3.96928325 32.6025593 3.96629189 32.2467905 3.96480121 31.8940375 3.91999086 31.6629235 3.91999086 31.5593796 3.9169995 31.4797613 3.94239103 31.4422644 3.99169343 31.4422644 4.07236008 31.4422644 4.10223365 31.6088394 4.18440098 31.9571691 4.79987059 32.2333197 5.43326834 32.4990154 6.06367473 32.7571715L9.13803142 34.0330737C9.24110825 34.0750945 9.30085539 34.1261627 9.30085539 34.1516969 9.30085539 34.1997493 9.25753571 34.2162359 9.19180585 34.2462938L4.21278387 36.3147593C4.1410813 36.6779672 4.10373433 36.8656531 4.02455836 36.8656531zM4.68386789 26.6502924L4.45082201 26.5316693C4.38957419 26.4986961 4.36716401 26.4610986 4.37164604 26.4251095 4.38061012 26.3830888 4.41347505 26.380073 4.47920491 26.3935437 4.5568902 26.4086229 4.78395336 26.5136748 5.1663871 26.5857534 5.56973033 26.6622553 5.80724824 26.6743186 5.85804131 26.6862815 5.90136099 26.6968369 5.93273525 26.7222705 5.92676253 26.7613759 5.91331643 26.824407 5.83414046 26.824407 5.68475259 26.8168674L5.2007427 26.7943491C4.99758041 27.1696204 4.78843539 27.761027 4.64652092 28.5070458 4.61216531 28.6962397 4.58377241 28.9258458 4.56286291 29.1885256 5.01699923 29.3221274 5.47113554 29.4152164 5.94169932 29.5037816L6.7409124 29.6583938 6.89328163 28.8508518C6.99635845 28.2863867 7.04266949 27.7820374 7.00980456 27.3557984L6.82157905 27.2761802C6.56762368 27.1681125 6.44512803 27.1351393 6.4615655 27.0510978 6.46753821 27.0210399 6.50040314 27.0119924 6.55716893 27.0210399 6.63484422 27.0375265 6.89030027 27.1546417 7.33099048 27.2371753 7.73433372 27.3122697 8.00471655 27.3197088 8.11227542 27.3392113 8.16157781 27.3482588 8.19294206 27.3798246 8.18547867 27.4143057 8.17203256 27.4938234 8.04654555 27.4773368 7.76719865 27.4623582L7.50876124 27.4518027C7.32500776 27.8225502 7.1756299 28.3059897 7.06657035 28.8823171L6.91420113 29.6899596 7.83142783 29.8625663C8.29901025 29.9541474 8.76360131 30.0321572 9.23416509 30.0787017 9.27300274 29.9210736 9.30885902 29.7604298 9.33724192 29.6044102 9.48662979 28.819286 9.49559386 28.1213196 9.39550839 27.5524313L8.98917379 27.4112899C8.84725932 27.3602216 8.78002878 27.3317722 8.79049353 27.2687411 8.79646624 27.2371753 8.83082185 27.214657 8.88012425 27.2252124 8.932408 27.2326515 9.15498912 27.3122697 9.55983304 27.3917874 9.93329271 27.4623582 10.1454091 27.4473795 10.1917301 27.4563265 10.2544586 27.4697972 10.2888742 27.4848764 10.2828715 27.5284051 10.2738674 27.5643941 10.2350498 27.5794734 10.1663186 27.5884203L10.0259548 27.623002C9.81827045 28.3179525 9.62854426 29.0879975 9.46870164 29.942084L9.36114278 30.517004C9.27748477 30.9583222 9.27599409 31.2405045 9.25508459 31.344149 9.2401378 31.4236667 9.21922831 31.4552325 9.16992591 31.4476929 9.07581315 31.4312063 9.07581315 31.1895368 9.11316012 30.7166528 8.67994331 30.5890827 8.22132496 30.4944857 7.72985168 30.3998888L5.84011317 30.0412047C5.35461261 29.9466078 4.8930029 29.8670901 4.4448493 29.8279846 4.30741686 30.2813662 4.21927682 30.508057 4.12665474 30.489962 4.07437099 30.481015 4.05793352 30.4389942 4.07437099 30.359376 4.08930778 30.28589 4.19537596 30.0006919 4.29397076 29.4693005L4.44036726 28.6992555C4.55389884 28.0912617 4.63606617 27.4082741 4.68386789 26.6502924zM7.27350436 24.2931103L9.06165672 24.9986163C9.5038376 25.1757467 9.94452781 25.3424223 10.3986241 25.4760241 10.627228 25.0152034 10.7646904 24.8019834 10.8543311 24.8380729 10.9035535 24.8560675 10.9035535 24.8965803 10.8752406 24.9656431 10.8334216 25.0767266 10.6571416 25.3619247 10.4628533 25.8512953 10.2895746 26.2911056 10.2373508 26.5958062 10.1850271 26.7233763 10.1537128 26.7999787 10.129802 26.8284282 10.0804796 26.8089257 9.99083885 26.7744446 10.0356592 26.5372989 10.1626169 26.0793935 9.76078433 25.8723057 9.32756752 25.6936673 8.86148578 25.5105052L7.07631478 24.8004754C6.61769643 24.6204297 6.17701623 24.4537541 5.74229873 24.3291999 5.52418965 24.7510156 5.39721196 24.9520718 5.30758124 24.9190986 5.25977952 24.8980882 5.25231613 24.8560675 5.28069903 24.7794651 5.3314821 24.6579266 5.50627151 24.392231 5.67656887 23.9539286 5.82744742 23.5771494 5.93948832 23.1358312 6.10978568 22.6960209 6.51910163 21.6512327 7.24363079 21.2414802 7.94573976 21.5191388 8.71358859 21.822432 9.0631574 22.721555 8.68819706 23.8924054L10.8050087 23.2724488C11.1366594 23.1703123 11.338351 23.1072812 11.4189877 22.8971775 11.4772141 22.7440733 11.4443992 22.5939849 11.4683101 22.52643 11.4817162 22.4888325 11.5116297 22.4798855 11.5459453 22.4918484 11.6280827 22.5234142 11.7491376 22.9782031 11.5952677 23.369961 11.4668094 23.6986878 11.1963865 23.788761 10.7452816 23.9058762L8.58212887 24.4462145C8.48502476 24.4717487 8.41631354 24.5063303 8.35356503 24.483812 8.30725399 24.4628017 8.29231721 24.4026859 8.31173603 24.3471944 8.34161961 24.270592 8.41631354 24.1655402 8.48054272 24.0004731 8.86148578 23.0307793 8.69117841 22.4017752 7.96665926 22.1120533 7.24063943 21.8283631 6.50715621 22.1631216 6.17402487 23.0052452 6.10530365 23.1943385 6.04405582 23.4329921 5.97982664 23.722714 6.40407938 23.937442 6.83132348 24.1189957 7.27350436 24.2931103zM12.2023435 22.2764167C12.256168 22.3454795 12.2785782 22.3859923 12.2546673 22.429521 12.2292558 22.4700338 12.1979415 22.4745575 12.1620252 22.4535472 12.0723845 22.3979551 11.7766501 22.0707363 11.135759 21.6655076 10.8235171 21.4703827 10.5950133 21.3667382 10.4889651 21.3021992 10.4157319 21.2541468 10.3843176 21.2166498 10.4097292 21.1731212 10.4650543 21.0860639 10.7907022 21.2467077 11.4540036 21.5529162 12.1217069 21.3487437 12.5938214 21.0260486 12.8641442 20.5921695 13.2869363 19.9182293 13.1226616 19.1091794 12.5878187 18.7714051 12.3757223 18.6393112 12.1710293 18.6167929 11.9842445 18.6963106 11.5764592 18.8779648 11.2777235 19.2982727 10.8355226 19.8131775 10.2155409 20.5381859 9.61352744 20.6988297 8.97415697 20.2935006 8.12115945 19.7545696 7.92247919 18.7564264 8.48566505 17.8573034 8.69330938 17.521037 9.01150394 17.1938181 9.42680261 16.9160591L9.1818013 16.6173902C9.12802687 16.5468195 9.09964398 16.5123383 9.13549026 16.4552384 9.15790044 16.4177414 9.1818013 16.4222652 9.21914827 16.4477993 9.32372578 16.5138463 9.61203676 16.8725304 10.2573599 17.2793675 10.4023258 17.3694407 10.5157773 17.4219163 10.5845086 17.463937 10.6547405 17.5074657 10.680152 17.5525023 10.6502384 17.594523 10.592012 17.687612 10.3664095 17.5660736 9.87346553 17.297362 9.33118917 17.4339797 8.89797236 17.7356644 8.61264273 18.1919613 8.19137135 18.8675099 8.34524125 19.6510257 8.85166132 19.9737208 9.38945564 20.3099872 9.74349648 19.9662817 10.4262367 19.2066916 10.7025622 18.8989752 10.9534762 18.5717563 11.2956316 18.3391344 11.6107748 18.1304381 12.0499743 18.1544643 12.4488555 18.4081972 13.3093465 18.9500435 13.5364496 20.0442915 12.9313747 21.0109694 12.7072729 21.3667382 12.3876277 21.6880259 11.9574323 21.9732241L12.2023435 22.2764167zM15.0215243 17.5702957C15.3621791 17.2444843 15.5458625 17.09138 15.6220971 17.1529032 15.6609148 17.184469 15.6490094 17.2204581 15.5966856 17.2849971 15.5055442 17.3916574 15.2680363 17.5837665 14.9632978 17.9484823 14.6615608 18.3087749 14.5106922 18.5789944 14.4225522 18.687062 14.3702284 18.7485852 14.3359128 18.7665797 14.2954945 18.7320986 14.2238619 18.6705754 14.3403148 18.4618792 14.6077363 18.0671054 14.2910925 17.7429024 13.9355309 17.435186 13.5545579 17.1108825L12.0830894 15.866546C11.7082191 15.5438509 11.3436534 15.2480974 10.9701838 14.9899413 10.6281284 15.3186681 10.4443449 15.4672485 10.369711 15.4087412 10.3307933 15.3771754 10.336796 15.3321388 10.3891198 15.2691077 10.4742585 15.1670717 10.7236718 14.9733541 11.0270096 14.6131621 11.3287467 14.2513616 11.4796152 13.9721951 11.5617525 13.8686512 11.6170777 13.8085354 11.657396 13.7935567 11.6932122 13.8281384 11.7679462 13.8896616 11.6498926 14.0982573 11.3869731 14.493031 11.7201245 14.8323133 12.0651812 15.1355059 12.4326482 15.4447303L13.9041167 16.6905746C14.2686823 16.9997989 14.6346485 17.3000763 15.0215243 17.5702957zM17.5263622 15.0538771C17.9670625 14.7191187 18.206071 14.5614907 18.2733016 14.6411089 18.3091179 14.6801138 18.2912097 14.7145949 18.2299819 14.768679 18.1537473 14.8377418 17.8550116 15.0268351 17.4173127 15.4171856 16.9811145 15.8119593 16.7615148 16.086602 16.6837795 16.1571727 16.625553 16.2096483 16.5867354 16.2217117 16.5508191 16.1842147 16.4850892 16.1076123 16.66287 15.8884612 17.043843 15.4846399 16.7794229 15.1184162 16.4701824 14.7611394 16.1400324 14.387376L14.8597508 12.9433909C14.514694 12.56058 14.1920475 12.2048112 13.8603968 11.9001106 13.8379866 11.9181051 13.8185778 11.9391155 13.7961676 11.9572105 13.3121477 12.3879733 12.9685916 12.8097891 12.7474912 13.1850603L13.017814 13.5873737C13.09705 13.71042 13.1418704 13.7840066 13.092548 13.8275352 13.0626344 13.8485456 13.0238167 13.8379901 12.9939031 13.803509 12.9580869 13.7660121 12.8296285 13.5768182 12.5488009 13.2630701 12.2992876 12.9734488 12.0901926 12.8323074 12.022962 12.754197 11.9900471 12.7167001 11.9915478 12.6761873 12.013958 12.6566848 12.0393695 12.6311507 12.0736851 12.6386903 12.1365136 12.6731714L12.3576141 12.8128049C12.9849991 12.3760105 13.5317475 11.9496709 13.9813517 11.5458497 14.431056 11.140621 14.9180773 10.6467266 15.4155033 10.0702987L15.3124565 9.8271615C15.2840436 9.76561822 15.2810422 9.72659322 15.3079544 9.70257707 15.34227 9.67405725 15.3676816 9.68906609 15.4095006 9.74160206 15.463325 9.80014961 15.5827793 10.0207987 15.839796 10.3134761 16.1146209 10.6227004 16.2924017 10.7788205 16.3282179 10.8163175 16.3566308 10.8508991 16.3626336 10.8929199 16.3387227 10.918454 16.2894003 10.9619827 16.2221697 10.9124223 16.1086182 10.8149101L15.7486546 10.4981461C15.3512741 10.6737687 14.8986685 10.9695223 14.4101465 11.4078246 14.3907377 11.428835 14.3638255 11.4483374 14.3459174 11.464824 14.6237436 11.8491429 14.9359854 12.2123508 15.2646347 12.5800824L16.5448163 14.0256761C16.8615602 14.3828523 17.1812054 14.7296741 17.5263622 15.0538771zM20.8337648 10.7014139L18.8394588 9.21385986 19.2487447 11.6620601 20.8337648 10.7014139zM19.3473895 12.2460277C19.3951112 12.4952367 19.4907547 12.8584447 19.6401225 13.3357519 20.1450519 13.0730721 20.4169755 12.9710361 20.4676985 13.0596013 20.4961114 13.1046379 20.4691992 13.1362037 20.4019686 13.1767165 20.2690082 13.2562342 19.9941834 13.3568628 19.6356205 13.5714902 19.2308366 13.8161756 18.9977307 14.0262792 18.8767757 14.0983578 18.8095452 14.1388707 18.7752296 14.1433944 18.7513187 14.0983578 18.7004957 14.0158243 18.8782764 13.8551804 19.2562481 13.5684744 19.2278352 13.0926751 19.1666074 12.5867173 19.0858707 12.0358235L18.6332651 9.06975288C18.3793498 8.8866209 18.1313371 8.71699989 17.871419 8.56539351L18.2612961 8.02801067C18.5899454 8.36274903 19.1336925 8.80406725 19.8821325 9.35195527L21.650836 10.6503456C22.0542193 10.9491151 22.436693 11.2193345 22.8026593 11.4264223 23.2328547 11.2297894 23.4569565 11.1472559 23.5062789 11.2297894 23.5316905 11.2718102 23.5077796 11.3048839 23.4390484 11.3453967 23.3494077 11.3993803 23.0252604 11.5285588 22.5218317 11.8317515 22.0393125 12.1199655 21.7822957 12.3450478 21.688253 12.4036557 21.6180211 12.4441685 21.5777028 12.4502002 21.5537919 12.4096874 21.4999675 12.3181063 21.7210679 12.1319283 22.1841783 11.8001857 21.9063521 11.5210192 21.609017 11.2958364 21.3386942 11.088648L20.9741286 10.8185291 19.2696542 11.8467302 19.3473895 12.2460277zM23.8291256 11.4082267C23.8291256 11.4923687 23.8261242 11.5418285 23.7738005 11.5599236 23.7319815 11.5733944 23.7065699 11.5614315 23.6901625 11.5193103 23.6543462 11.421798 23.6199306 10.9804798 23.3540098 10.2674342 23.2285528 9.92221079 23.1060971 9.69855594 23.0657788 9.5814709 23.0328639 9.49591146 23.0313632 9.45087489 23.0806856 9.43436818 23.1777297 9.39533313 23.3361016 9.72406997 23.6752557 10.3755019 24.3310536 10.6216951 24.8987115 10.6562768 25.3737273 10.4791463 26.1176653 10.2028952 26.4822309 9.46438586 26.2655325 8.86845547 26.1759918 8.63278753 26.0325266 8.49018846 25.830835 8.43915036 25.4021402 8.3280769 24.9091162 8.47968328 24.2429136 8.61628082 23.3136914 8.81141585 22.7385301 8.56974637 22.4786121 7.85523308 22.1305539 6.90805762 22.5787576 5.99390563 23.5692075 5.62313801 23.9425771 5.48803834 24.3892801 5.42499719 24.8882067 5.46252432L24.877802 5.0722442C24.877802 4.98518689 24.8763013 4.93714453 24.9375291 4.91312837 24.9808488 4.89811953 24.9928543 4.91763203 25.0107624 4.95966282 25.0540821 5.07524999 25.0629861 5.53457279 25.3289069 6.25508761 25.3872334 6.4157013 25.4454599 6.52678482 25.4738728 6.60333694 25.500685 6.68139699 25.4977837 6.7294293 25.4454599 6.74744393 25.3439138 6.78497105 25.2392662 6.54780524 25.0137638 6.03593642 24.4998303 5.80776786 23.9739914 5.78225384 23.4705627 5.96838156 22.7281254 6.24458242 22.3695625 6.95759785 22.5787576 7.52800416 22.795356 8.12092876 23.2838779 8.06688487 24.2907353 7.88375289 24.6955192 7.81320229 25.091399 7.70663249 25.5021857 7.7351523 25.8786567 7.76066632 26.2133087 8.04737237 26.3775834 8.49469212 26.7271422 9.45087489 26.244623 10.4566281 25.1765377 10.8514018 24.7836592 10.9984743 24.3325543 11.0554738 23.8186208 11.0179768L23.8291256 11.4082267zM29.861266 9.59102107C29.8403565 9.67357472 29.8239491 9.72010916 29.7702246 9.72461282 29.7284056 9.73061434 29.7044948 9.70810611 29.6999927 9.66607533 29.689488 9.56099334 29.7657226 9.12418883 29.6969914 8.36764475 29.6596744 7.99988291 29.6013479 7.75520765 29.5879418 7.62911529 29.5804384 7.54055007 29.5909432 7.49402568 29.6416662 7.48952202 29.7448131 7.47750891 29.8135443 7.83626343 29.9808203 8.55528038 30.5484782 8.96206721 31.0892239 9.13768975 31.5941533 9.09416109 32.385913 9.01910684 32.925258 8.39466669 32.8639301 7.75971131 32.84162 7.51053238 32.7339711 7.33640772 32.553289 7.23433152 32.1678139 7.01968399 31.6509791 7.03919649 30.9757723 7.00017149 30.0271414 6.94913339 29.5312161 6.5648548 29.4594835 5.80832077 29.3668414 4.8010999 30.0316434 4.03255276 31.0833212 3.93198448 31.4807017 3.89595522 31.9288053 3.94998906 32.4009198 4.11060275L32.4905605 3.73383361C32.51147 3.64827417 32.5218747 3.60173973 32.5906059 3.59723607 32.6339256 3.59123454 32.6443304 3.61375283 32.645831 3.65728148 32.6578365 3.78187597 32.553289 4.23219145 32.6264222 4.99473706 32.6443304 5.16435807 32.6682412 5.28895256 32.6757446 5.37000834 32.683248 5.44956625 32.6653399 5.4930949 32.6130161 5.50210222 32.5039666 5.50960161 32.465149 5.2529233 32.3740075 4.70053162 31.9363087 4.34777863 31.4343807 4.1886628 30.8995377 4.24119877 30.1092787 4.31324723 29.5819391 4.91368128 29.6387649 5.51561319 29.6999927 6.14906065 30.187014 6.22261704 31.2042761 6.30367282 31.6150628 6.33669629 32.0289508 6.33519842 32.4143259 6.47028804 32.7758901 6.59187674 33.0223021 6.95213918 33.0701238 7.43248239 33.1642666 8.44570479 32.4412381 9.29230192 31.3044216 9.40338543 30.8876323 9.44091256 30.4394287 9.37936928 29.9524074 9.21124613L29.861266 9.59102107zM36.9844021 7.45981597L36.2434654 5.07611453 35.1394639 7.29619649 36.9844021 7.45981597zM34.8795458 7.82907567C34.7704963 8.05724423 34.6375359 8.40699143 34.4791639 8.88283099 35.0379178 8.9698883 35.3172447 9.04494255 35.3098413 9.15002454 35.3053393 9.20105259 35.2665216 9.21306569 35.1857849 9.20405838 35.0334157 9.1905474 34.7525881 9.10648583 34.3372995 9.07346236 33.8637844 9.02993371 33.5530432 9.05845352 33.4155807 9.04645047 33.3334434 9.04194681 33.3080319 9.02393218 33.3125339 8.97139622 33.3199373 8.87532154 33.5575452 8.85281331 34.0295597 8.84229807 34.2864764 8.44302069 34.5329884 8.0002046 34.7914058 7.50334463L36.1613281 4.83744079C36.064184 4.54022956 35.9626379 4.2565293 35.8371809 3.97883056L36.4705686 3.77618608C36.5362985 4.24152046 36.7214826 4.91849657 37.0068122 5.80412875L37.6746156 7.90113419C37.8239835 8.37996949 37.9778534 8.82429349 38.1481307 9.2100599 38.6142425 9.30312879 38.844247 9.36917573 38.8338423 9.4652504 38.8293402 9.51627845 38.7935239 9.52528577 38.7127873 9.52229003 38.6112411 9.51177479 38.2720871 9.42321962 37.686521 9.36917573 37.1307685 9.32114342 36.7872125 9.34816536 36.6781629 9.33915805 36.599027 9.3316486 36.56161 9.31363397 36.5676127 9.261098 36.5766168 9.15903186 36.8649478 9.13801144 37.4341064 9.14401296 37.3727785 8.7537429 37.2622283 8.39798412 37.1666849 8.0707552L37.0262211 7.63394064 35.0528245 7.45981597 34.8795458 7.82907567z"/>
    <path fill="#000" fill-rule="nonzero" d="M40.1199265 7.7247778C39.8958247 8.46179933 39.7584623 9.08324375 39.6927325 9.57409214 40.1916591 9.77223296 40.4395717 9.89682745 40.4112589 9.99739573 40.3962521 10.0439302 40.3485304 10.0439302 40.2797992 10.0244177 40.1528415 9.98539268 39.8958247 9.84278356 39.4596266 9.70919181 39.1220732 9.60561774 38.8516503 9.58160159 38.6977804 9.53506715 38.6260479 9.51555465 38.5962343 9.4885327 38.6111411 9.43900253 38.6380533 9.35494095 38.8382443 9.37745924 39.2535329 9.43449887 39.425311 9.14328916 39.6568161 8.60290053 39.8958247 7.83585127L40.675679 5.2855346C40.4619819 4.66558806 40.1289306 4.60554264 40.1557428 4.51398168 40.1707496 4.46593932 40.219972 4.45694205 40.2887032 4.47645455 40.3246195 4.48996552 40.5008996 4.59203167 40.87587 4.70611092 40.9460018 4.72862921 41.0252378 4.74514597 41.1103765 4.77066L42.962718 9.80075278 43.5781976 7.78181743C43.832213 6.95472275 43.9770788 6.33628413 44.0279019 5.91147262 43.5557874 5.71783545 43.334687 5.59474889 43.3615992 5.50318792 43.376506 5.45515561 43.418425 5.44464038 43.4870562 5.46415287 43.6096119 5.50318792 43.8650279 5.65178851 44.296724 5.78688818 44.6358781 5.89046225 44.906301 5.90096743 45.0526675 5.95050767 45.1244001 5.97302595 45.1527129 6.0045415 45.1393068 6.05107595 45.1108939 6.14414483 44.8868922 6.12012868 44.450594 6.04057076 44.1966786 6.54343226 43.9277564 7.30297208 43.6156146 8.31920027L42.8611719 10.7899791C42.8551691 10.8109895 42.8492665 10.8259682 42.8462651 10.8395395 42.832759 10.8800523 42.8238549 10.9010626 42.7894393 10.893523 42.7551237 10.8800523 42.7178067 10.828984 42.6788891 10.7254401L40.7862292 5.54521871 40.1199265 7.7247778zM48.3604702 7.85326273C47.4268461 7.33539238 46.3587608 7.65812769 45.7866009 8.69837204 45.4668556 9.27928353 45.3144864 9.9367572 45.3459007 10.5776638 45.386219 11.3688197 45.7925036 12.0247654 46.4333947 12.3820421 46.7635447 12.5651038 47.0951954 12.6326586 47.4357501 12.6042092 47.7360866 12.5756592 47.9063639 12.4931257 47.952685 12.5200672 47.9885012 12.5381622 47.9960046 12.5591726 47.9765958 12.5996854 47.9466822 12.6492457 47.7928123 12.7167001 47.538897 12.7707842 47.0219621 12.8683969 46.4812165 12.7707842 45.9702843 12.487094 44.7065102 11.7846038 44.303127 10.3840468 45.0665738 8.99857901 45.4310394 8.3381096 45.9105572 7.89078985 46.4827171 7.66263135 47.2789789 7.34589757 48.040825 7.39843354 48.8116752 7.82624078 49.1895469 8.03639471 49.5406064 8.34411112 49.8692557 8.74339856 50.114267 8.41766751 50.2487281 8.26305534 50.3383688 8.31409344 50.3756857 8.33360594 50.3682824 8.36513154 50.332366 8.42968062 50.2935484 8.50172908 50.0127208 8.82596226 49.6407518 9.50294843 49.3449174 10.0388233 49.2239625 10.334587 49.198551 10.3781156 49.1791421 10.4171205 49.1373231 10.4290834 49.1059089 10.4141047 49.0297743 10.3675602 49.0940035 10.1618798 49.2717842 9.7446179L49.4987874 9.21173872C49.2761862 8.62631352 48.8474915 8.12495994 48.3604702 7.85326273zM49.964599 14.8761435C50.3634802 15.2633776 50.550265 15.4764971 50.4874365 15.5576233 50.4486189 15.5951202 50.4143033 15.5831574 50.3500741 15.5335971 50.2723388 15.4645343 50.043835 15.2003465 49.59263 14.8220594 49.1385237 14.4437723 48.8352859 14.2681498 48.7546493 14.2051187 48.6933214 14.152643 48.6709112 14.1150455 48.7083282 14.0760406 48.7710567 13.9965229 49.0175687 14.1435955 49.467173 14.4617668 49.7883189 14.1435955 50.0930573 13.7833029 50.4128026 13.3960688L51.6392598 11.9069465C51.9694098 11.5062416 52.2666448 11.1339862 52.5191595 10.7556991 52.4997507 10.7406198 52.4773405 10.7196095 52.4504283 10.701615 51.9544029 10.2858309 51.4898919 10.0051263 51.0880093 9.84151691L50.7324478 10.1732394C50.6188962 10.2708522 50.5576684 10.3248358 50.5069454 10.282815 50.4800331 10.2572809 50.4874365 10.2152602 50.512848 10.180779 50.5427616 10.1417741 50.7145397 9.98411597 50.9819612 9.6598828 51.2254718 9.36416943 51.336022 9.13601093 51.4002512 9.05795088 51.4315654 9.02042376 51.4778865 9.0159201 51.4972953 9.03393473 51.5257082 9.05795088 51.5257082 9.09547801 51.498796 9.16002708L51.3957491 9.40169656C51.9200874 9.9585919 52.4220154 10.4359193 52.8866265 10.8232539 53.3497368 11.2074722 53.911392 11.6173251 54.5567852 12.0300934L54.7748843 11.8844282C54.8346114 11.8499471 54.8704277 11.8408995 54.9033426 11.8664337 54.9346569 11.8919678 54.9182494 11.9190099 54.8809325 11.9714855 54.8301094 12.0361251 54.6269171 12.1847055 54.3775038 12.4863903 54.1175857 12.8031542 53.9876266 13.0058188 53.957713 13.0448237 53.9262988 13.0793048 53.8889818 13.0957914 53.8605689 13.0718657 53.8098459 13.0268292 53.8501642 12.9562585 53.9233975 12.8286883L54.1848162 12.4218513C53.953211 12.0556275 53.5917468 11.6487904 53.0883181 11.2299905 53.0659079 11.2074722 53.041997 11.1924935 53.0195869 11.1714831 52.6834341 11.5077495 52.3741937 11.8724654 52.0605512 12.2537683L50.8310926 13.7458059C50.5278549 14.1150455 50.2320205 14.4828777 49.964599 14.8761435zM52.4906466 17.3620016C52.7744755 17.7492357 52.8955305 17.9503924 52.8252986 18.0164393 52.786481 18.0509204 52.7505646 18.0329259 52.6968402 17.9744186 52.6041981 17.8723826 52.4429249 17.6066869 52.126181 17.2553413 51.8080364 16.9071121 51.5645258 16.7240505 51.4688824 16.620406 51.4150579 16.5588828 51.4001511 16.5213859 51.4419701 16.4868042 51.512202 16.4207573 51.7018882 16.5694383 52.0574498 16.8815779 52.4175133 16.6129669 52.7744755 16.3007268 53.1420425 15.9614445L54.5671899 14.6585002C54.9286541 14.3237418 55.2722102 14.0025546 55.5740473 13.6647803 55.2961211 13.2820699 55.1721648 13.0748816 55.2393953 13.0133584 55.2797136 12.9787768 55.3185313 12.9908401 55.3768578 13.0523633 55.4649978 13.1499761 55.6188677 13.4246187 55.9370122 13.77134 56.2566575 14.1226856 56.5136742 14.3057472 56.5988129 14.4048679 56.6555387 14.4648832 56.6630421 14.5084118 56.6272258 14.542893 56.5539925 14.6075325 56.3643064 14.4633753 56.0117462 14.1481192 55.6307731 14.4333174 55.2857164 14.7396264 54.9331562 15.0638294L53.5050074 16.3652658C53.1524472 16.6879609 52.8088911 17.0122644 52.4906466 17.3620016zM58.326898 22.229068C58.1133009 21.7487449 58.0236602 21.495012 58.1072982 21.4499755 58.1536193 21.4244413 58.1894355 21.4439438 58.2297538 21.5190382 58.2835783 21.6151431 58.368717 21.8793308 58.5748106 22.2530942 58.7481894 22.5697576 58.9184667 22.7694064 58.9781939 22.8865216 59.0200129 22.9586002 59.0200129 23.0021288 58.9706904 23.026155 58.9005586 23.0651599 58.8153199 22.9375898 58.6062249 22.7078832L57.3902725 23.3833313C57.1825781 23.4944148 57.1004408 23.6070062 57.0631238 23.6295245 56.9853885 23.6730532 56.9510729 23.5649855 56.8599315 23.4629495 56.7344745 23.3398026 56.5791039 23.2287191 56.4177306 23.1086886 55.9875352 22.7829776 55.588654 22.4647058 55.3137291 21.9753351 55.0149934 21.4259493 54.928354 20.8240877 55.0523103 20.2821409 55.2061802 19.5991532 55.6902001 18.9702496 56.3848157 18.5859308 57.081032 18.1986967 57.8816957 18.1086235 58.6495446 18.3368222 59.326252 18.5319472 59.9059153 19.0062387 60.2584755 19.6502215 60.4944827 20.085508 60.613937 20.6034286 60.6587573 21.2173535 61.1263698 21.0837517 61.3474702 20.9951865 61.4011946 21.0912913 61.4236048 21.1302962 61.3952919 21.1528145 61.3369654 21.1872956 61.1890983 21.2698292 60.734992 21.3899602 60.0851968 21.754676 59.6818135 21.978351 59.4667158 22.1389948 59.4248968 22.1615131 59.3845785 22.1840314 59.3456608 22.1705607 59.326252 22.1405028 59.2799309 22.0564613 59.535447 21.8808388 60.0552832 21.5415565 60.2733823 20.7970457 60.2434687 20.123005 59.9417316 19.5721111 59.3456608 18.4884186 58.1730281 18.1746705 57.043615 18.8020661 56.4894632 19.1083752 56.0218508 19.6216715 55.7246158 20.2581147 55.4436881 20.8735475 55.4660983 21.6045876 55.7918463 22.2020259 55.9845338 22.544324 56.2967757 22.841485 56.7463799 23.1071807L58.326898 22.229068zM62.9977199 26.6129965L63.257638 26.6084727C63.3263692 26.6084727 63.3621855 26.632499 63.374191 26.6669801 63.3875971 26.7090008 63.3621855 26.7254874 63.2979563 26.7450904 63.2203211 26.7690161 62.969307 26.7840953 62.6018401 26.8997026 62.2059602 27.021241 61.9908625 27.1203617 61.9430408 27.1353403 61.8982204 27.1488111 61.8594028 27.1353403 61.8473973 27.1037745 61.8279885 27.0407434 61.9012218 27.0002306 62.0371836 26.9371995L62.471881 26.7300112C62.4793845 26.3037722 62.3852417 25.6838156 62.1641412 24.9557913 62.1074155 24.7711212 62.0266788 24.5610176 61.9176292 24.3163323 61.4590209 24.4109292 61.012418 24.5415151 60.5582117 24.6840639L59.7784574 24.9272413 60.0204674 25.7093497C60.1922454 26.2572277 60.3849329 26.7225721 60.6135368 27.0872879L60.8152284 27.0677855C61.0930546 27.0437593 61.2140096 27.0137014 61.2394211 27.0992508 61.2514266 27.1262928 61.2245144 27.1488111 61.1677886 27.1683136 61.091554 27.1908318 60.8122271 27.207419 60.3819316 27.3395129 59.9905538 27.4625592 59.7530459 27.5840976 59.6469977 27.6171714 59.5946739 27.6321501 59.5543556 27.6232031 59.5424502 27.5886214 59.5215407 27.5091037 59.6394943 27.467083 59.8935097 27.3469519L60.1310176 27.2343605C60.1175115 26.8246081 60.0234687 26.3247825 59.8516907 25.7618254L59.6140827 24.9798175 58.7192762 25.257476C58.2636692 25.3971095 57.818467 25.54569 57.3807681 25.7258363 57.4196858 25.8834643 57.4600041 26.0410923 57.5093265 26.1941966 57.7438331 26.9582099 58.0604769 27.5781665 58.4115364 28.0299396L58.8403312 27.9669085C58.9881984 27.9474061 59.0614317 27.9368506 59.0808405 28.0014902 59.0882439 28.0299396 59.0703357 28.0660292 59.0196127 28.0825158 58.9702903 28.0974945 58.7357837 28.1320761 58.3443059 28.2521067 57.9783396 28.3692219 57.7975575 28.4757816 57.7542378 28.4877444 57.6915093 28.5117707 57.651191 28.5162944 57.6407863 28.4727658 57.6302815 28.4367767 57.6586944 28.403703 57.7154202 28.3631902L57.8274711 28.2685933C57.6826053 27.5571561 57.492819 26.788619 57.2359023 25.9554424L57.065625 25.4001254C56.9341653 24.97077 56.8027055 24.7156297 56.7712913 24.6195249 56.7473804 24.5415151 56.7488811 24.5009018 56.7982035 24.4859231 56.8908456 24.460389 56.9998951 24.6705932 57.1895813 25.1043718 57.6302815 25.0127907 58.0813864 24.8837127 58.5595036 24.7351322L60.3999398 24.1617201C60.8644508 24.0160549 61.3156558 23.8704903 61.7309444 23.6948677 61.6383023 23.2280154 61.6143915 22.9893618 61.7025315 22.9623197 61.7548553 22.947341 61.7802668 22.975891 61.8055783 23.0523929 61.8279885 23.1229636 61.8698075 23.4261562 62.0281795 23.941061L62.258284 24.6900956C62.4404668 25.2815022 62.6824767 25.9239771 62.9977199 26.6129965zM59.0761384 33.143903C59.5139372 33.6662468 60.0800945 33.9094242 60.7208856 33.8569486 61.3632774 33.7983407 61.9712536 33.5146505 62.4821857 33.0298036 63.1125721 32.4264342 63.4218126 31.6577965 63.3575834 30.9163015 63.2530359 29.7244407 62.3522267 28.9889774 61.2243143 29.0895055 60.6477523 29.1420816 60.0232686 29.4422585 59.5019318 29.9556553 58.8819501 30.5710881 58.5727096 31.3351014 58.6355382 32.0315599 58.6683531 32.4594074 58.8297264 32.8376945 59.0761384 33.143903zM59.4437053 33.7082675C58.7698992 33.2519706 58.3696174 32.5374171 58.2888807 31.6548812 58.2216502 30.898307 58.4278438 30.2257742 58.8819501 29.6704572 59.3122456 29.1420816 59.9277252 28.8268256 60.6895713 28.7592708 61.2378204 28.7097104 61.7412491 28.7982756 62.2326724 29.0294902 63.0498436 29.4167243 63.6310076 30.2618638 63.7191477 31.2540758 63.7848775 31.9880312 63.6145001 32.6350299 63.2097162 33.1739609 62.7765194 33.7517962 62.1027133 34.109073 61.2990482 34.1811516 60.6208401 34.2426748 59.984451 34.0820309 59.4437053 33.7082675zM61.9865606 36.4525833L60.0803946 36.2319242C59.6082801 36.1734168 59.1407677 36.1283803 58.6686532 36.1179253 58.5641057 36.6192588 58.4849698 36.8639441 58.3923277 36.8503728 58.3400039 36.8444417 58.3280985 36.8068442 58.3400039 36.7333582 58.3535101 36.6177509 58.4505541 36.290532 58.5102813 35.7726114 58.5626051 35.3028438 58.5401949 34.9951273 58.5566023 34.8570018 58.5641057 34.7758756 58.5835146 34.7398866 58.6358383 34.7459183 58.7328824 34.7578811 58.7463885 34.9965347 58.7418865 35.4724346 59.1825867 35.5699468 59.6471978 35.6300626 60.1461244 35.68857L62.0462877 35.9122449C62.537811 35.9677364 63.0083247 36.0157888 63.4565284 36.0248363 63.5625765 35.5594919 63.6343091 35.3312932 63.7268512 35.3418487 63.7776743 35.3492877 63.7955824 35.3853773 63.788179 35.4664029 63.7701709 35.6015127 63.6686247 35.9016895 63.6149003 36.3715577 63.57008 36.7723631 63.574482 37.22866 63.5207575 37.6955123 63.3907985 38.8093633 62.8007304 39.3932303 62.0462877 39.3076809 61.2276158 39.213084 60.6599579 38.4310762 60.7241871 37.2031258L58.83753 38.351458C58.5416956 38.5316043 58.3699175 38.6441957 58.3400039 38.8723944 58.3235965 39.0344456 58.3953291 39.1695554 58.3893263 39.2431419 58.3848243 39.279131 58.3594127 39.2987339 58.3235965 39.2942102 58.2339557 39.2836547 57.9994492 38.8754102 58.0487716 38.4596262 58.0905906 38.1053652 58.3280985 37.9477372 58.7328824 37.7240623L60.6883708 36.6447929C60.7720088 36.5952326 60.8303353 36.5426564 60.8960651 36.5486881 60.9467882 36.5547198 60.9782025 36.6132271 60.9706991 36.6703271 60.961795 36.7483369 60.9169746 36.8714837 60.8960651 37.0471063 60.7750102 38.081339 61.1036595 38.6457036 61.8760103 38.7387926 62.6498619 38.8303737 63.2697435 38.313961 63.3743911 37.4103142 63.4027039 37.2106654 63.3968012 36.968996 63.3802937 36.6703271 62.918684 36.5712064 62.4615764 36.5111911 61.9865606 36.4525833zM59.0657336 43.9635379C59.2674253 43.4771831 59.3958836 43.2385295 59.487025 43.2699947 59.5318454 43.2849734 59.5422501 43.3255868 59.5183392 43.4035965 59.482523 43.5101563 59.3510633 43.7518258 59.2166022 44.1616787 59.1015499 44.5038762 59.073237 44.768064 59.031418 44.8912109 59.0060065 44.9692207 58.9715909 44.9962627 58.9267705 44.981284 58.8476345 44.954242 58.8849515 44.8026457 58.9088624 44.4949292L57.5838604 44.0551189C57.3642606 43.9860562 57.2252975 44.0025428 57.1864799 43.9860562 57.1013412 43.9590141 57.1550656 43.8614014 57.162569 43.7218684 57.1714731 43.5462459 57.1416595 43.357052 57.1237514 43.1574033 57.0699269 42.6185729 57.0281079 42.1081919 57.199886 41.5737846 57.3955749 40.9793622 57.7735466 40.5050708 58.2515637 40.2273117 58.8580393 39.8745587 59.6467976 39.8009722 60.4012403 40.0486733 61.1526817 40.2978824 61.7621586 40.82475 62.1207215 41.5422188 62.4418674 42.1772546 62.4911898 42.9262893 62.262586 43.6257636 62.1087161 44.0956318 61.8129817 44.5324262 61.3901896 44.9857073 61.8129817 45.240948 62.0280794 45.342984 61.9906624 45.4495438 61.9772563 45.4886492 61.9384387 45.4886492 61.8757102 45.464623 61.7173383 45.4135547 61.318457 45.1628377 60.6133367 44.9302158 60.1726365 44.7875665 59.9112177 44.739514 59.8619954 44.7215195 59.8186757 44.7080488 59.7991668 44.6690439 59.8096716 44.6344622 59.8425866 44.545897 60.1413223 44.6134518 60.7417951 44.7635402 61.43501 44.4168189 61.9055237 43.9364958 62.099712 43.3420734 62.4836864 42.1606675 61.9160285 41.0889378 60.691072 40.6806933 60.0859971 40.4825525 59.3973843 40.4869757 58.7295809 40.7032116 58.0887898 40.9193469 57.571855 41.4326432 57.3597586 42.078134 57.2402043 42.4488815 57.2343016 42.8827606 57.3492538 43.394549L59.0657336 43.9635379zM55.8368667 45.6895043C55.5769487 46.0857859 55.4290815 46.2719639 55.3439428 46.2314511 55.2991225 46.204409 55.3006231 46.1698274 55.3394408 46.0933255 55.4036699 45.9687713 55.5933561 45.7271018 55.8084538 45.3083018 56.0265529 44.887994 56.1117916 44.5922404 56.1775215 44.470702 56.2133378 44.3940996 56.2432514 44.3700734 56.2894724 44.3925917 56.3717097 44.4391362 56.3029785 44.6688428 56.1327011 45.1130763 56.5120735 45.3562537 56.9273622 45.5799287 57.3680624 45.8141591L59.0785394 46.6982029C59.5162383 46.9264016 59.9345283 47.1350979 60.3558197 47.3031808 60.6172385 46.9053913 60.7621043 46.7132821 60.8458423 46.7598266 60.893564 46.7838528 60.8965654 46.8273815 60.8562471 46.8993596 60.7980206 47.0149669 60.5978297 47.2611601 60.3842326 47.6829759 60.1690349 48.1002679 60.0838962 48.4049685 60.024169 48.524999 59.9868521 48.5970776 59.9509358 48.6195959 59.9076161 48.5940617 59.8179754 48.5505331 59.8882073 48.3224349 60.0584846 47.8826246 59.6612041 47.6228601 59.2533188 47.402201 58.8276255 47.1815419L57.1201497 46.2944822C56.6943563 46.0768389 56.2760663 45.8636189 55.8368667 45.6895043zM54.5312736 47.8763919C54.2325379 48.2442241 54.0667626 48.4183387 53.9875266 48.3627467 53.9457076 48.3357046 53.948709 48.2966997 53.99503 48.226129 54.0726653 48.1091143 54.2848617 47.8914711 54.5432791 47.4936815 54.8031972 47.0989078 54.9167487 46.8122017 54.9928833 46.6950865 55.0332016 46.6275317 55.069118 46.6065213 55.1124376 46.6335634 55.1915736 46.6845311 55.1004322 46.908206 54.8853345 47.3315297 55.236394 47.6152199 55.6247704 47.8824236 56.0460618 48.1541509L57.6579941 49.210902C58.0717821 49.4840367 58.4676619 49.7317379 58.8694445 49.9433495 59.1667795 49.5756178 59.3310542 49.4015032 59.4161928 49.4525714 59.4566112 49.4840367 59.4521092 49.5216342 59.4132915 49.5936123 59.3370569 49.7046958 59.1144558 49.9283708 58.8590397 50.3216366 58.6035236 50.7179182 58.4855701 51.0136718 58.4138375 51.1277712 58.3720185 51.195326 58.3317002 51.2133206 58.2898812 51.1832627 58.2091445 51.1321944 58.3002859 50.9101279 58.513983 50.4868042 58.142014 50.1895427 57.7595402 49.9328946 57.3591583 49.6671989L55.7473261 48.6104478C55.3454435 48.347768 54.9510643 48.097051 54.5312736 47.8763919zM13.4795238 53.4333824C14.0024613 53.4333824 14.4251534 53.0071434 14.4251534 52.4802758 14.4251534 51.956424 14.0024613 51.5361162 13.4795238 51.5361162 12.9581869 51.5361162 12.5368955 51.956424 12.5368955 52.4802758 12.5368955 53.0071434 12.9581869 53.4333824 13.4795238 53.4333824zM54.2784588 52.5715553C54.8012963 52.5715553 55.221087 52.1438084 55.221087 51.6243798 55.221087 51.0960043 54.8012963 50.6711727 54.2784588 50.6711727 53.7556212 50.6711727 53.3328292 51.0960043 53.3328292 51.6243798 53.3328292 52.1438084 53.7556212 52.5715553 54.2784588 52.5715553z"/>
    <path fill="#B30838" fill-rule="nonzero" d="M33.8760899,56.8258026 C46.4514029,56.8258026 56.6470348,46.584003 56.6470348,33.9465191 C56.6470348,21.3104425 46.4514029,11.067135 33.8760899,11.067135 C21.3006769,11.067135 11.1066458,21.3104425 11.1066458,33.9465191 C11.1066458,46.584003 21.3006769,56.8258026 33.8760899,56.8258026 Z"/>
    <path fill="#B30838" fill-rule="nonzero" d="M33.6755989,53.3383834 C44.3387431,53.3383834 52.9837706,44.6516525 52.9837706,33.935461 C52.9837706,23.2208779 44.3387431,14.5326391 33.6755989,14.5326391 C23.0138552,14.5326391 14.3659265,23.2208779 14.3659265,33.935461 C14.3659265,44.6516525 23.0138552,53.3383834 33.6755989,53.3383834 Z"/>
    <path d="M33.6755989,53.3383834 C44.3387431,53.3383834 52.9837706,44.6516525 52.9837706,33.935461 C52.9837706,23.2208779 44.3387431,14.5326391 33.6755989,14.5326391 C23.0138552,14.5326391 14.3659265,23.2208779 14.3659265,33.935461 C14.3659265,44.6516525 23.0138552,53.3383834 33.6755989,53.3383834 Z"/>
    <path fill="#FFF" fill-rule="nonzero" d="M44.8409713,31.4278889 L35.9181176,31.4278889 L35.9181176,23.260486 L44.8409713,23.260486 L44.8409713,31.4278889 Z M35.916617,49.3311335 L35.916617,35.8770601 L44.4780064,35.8770601 C44.4780064,35.8770601 43.6339229,44.8834702 35.916617,49.3311335 Z M31.5770455,31.4278889 L22.4973206,31.4278889 L22.4973206,23.2590786 L31.5770455,23.260486 L31.5770455,31.4278889 Z M31.5008109,49.3581756 C23.9045599,45.0335586 22.927516,35.8649967 22.927516,35.8649967 L31.4889054,35.8710284 L31.5008109,49.3581756 Z M33.6908058,55.2438929 L33.7117153,55.2438929 C33.7117153,55.2438929 48.9909566,50.4134187 49.1702381,30.6938329 L49.1224164,19.0109635 L18.3130196,19.0109635 L18.2621965,30.6938329 C18.441478,50.4134187 33.7237207,55.2438929 33.7237207,55.2438929 L33.7475315,55.2438929"/>
    <path d="M33.6908058,55.2438929 L33.7117153,55.2438929 C33.7117153,55.2438929 48.9909566,50.4134187 49.1702381,30.6938329 L49.1224164,19.0109635 L18.3130196,19.0109635 L18.2621965,30.6938329 C18.441478,50.4134187 33.7237207,55.2438929 33.7237207,55.2438929 L33.7475315,55.2438929 M44.8409713,31.4278889 L35.9181176,31.4278889 L35.9181176,23.260486 L44.8409713,23.260486 L44.8409713,31.4278889 Z M35.916617,49.3311335 L35.916617,35.8770601 L44.4780064,35.8770601 C44.4780064,35.8770601 43.6339229,44.8834702 35.916617,49.3311335 Z M31.5770455,31.4278889 L22.4973206,31.4278889 L22.4973206,23.2590786 L31.5770455,23.260486 L31.5770455,31.4278889 Z M31.5008109,49.3581756 C23.9045599,45.0335586 22.927516,35.8649967 22.927516,35.8649967 L31.4889054,35.8710284 L31.5008109,49.3581756 Z"/>
    <path fill="#FFF" fill-rule="nonzero" d="M240.489255 62.1378062C239.589846 62.6406476 238.566381 62.8747775 237.544917 62.8747775 235.099806 62.8747775 233.344008 61.1995778 233.344008 58.7213598 233.344008 56.2310785 235.221862 54.5664343 237.578932 54.5664343 238.611401 54.5664343 239.612856 54.8471086 240.356194 55.6051908L239.656876 56.3421621C239.122634 55.7613109 238.311265 55.4385153 237.511902 55.4385153 235.712084 55.4385153 234.345463 56.7999669 234.345463 58.7213598 234.345463 60.6081712 235.667064 62.0042044 237.599942 62.0042044 238.235231 62.0042044 238.979569 61.836021 239.556831 61.5463996L239.556831 59.1236732 237.745008 59.1236732 237.745008 58.2514917 240.489255 58.2514917 240.489255 62.1378062zM242.288072 58.6881856C242.288072 58.2078625 242.243051 57.7950942 242.243051 57.4483729L243.064424 57.4483729C243.064424 57.7275394 243.088435 58.0187692 243.088435 58.3084911L243.109445 58.3084911C243.342551 57.7950942 243.987844 57.3147711 244.843233 57.3147711 244.955283 57.3147711 245.078339 57.325226 245.197393 57.3702626L245.144369 58.2528991C244.999303 58.2078625 244.833228 58.1853442 244.676157 58.1853442 243.621678 58.1853442 243.154465 58.9328709 243.154465 60.1277475L243.154465 62.6735203 242.288072 62.6735203 242.288072 58.6881856zM249.898529 59.5918324C249.863513 58.7107039 249.287251 58.1177893 248.330817 58.1177893 247.375383 58.1177893 246.742095 58.7107039 246.631045 59.5918324L249.898529 59.5918324zM250.641867 61.7248369C250.03159 62.5174002 249.298256 62.80863 248.330817 62.80863 246.697075 62.80863 245.697621 61.5792723 245.697621 60.0617006 245.697621 58.4419923 246.831136 57.3147711 248.365833 57.3147711 249.831499 57.3147711 250.830953 58.318946 250.830953 60.0496372L250.830953 60.3289042 246.631045 60.3289042C246.697075 61.2340589 247.387388 62.0041039 248.330817 62.0041039 249.077156 62.0041039 249.575382 61.7353924 249.986569 61.2115406L250.641867 61.7248369zM252.174563 58.6881856C252.174563 58.2078625 252.130543 57.7950942 252.130543 57.4483729L252.952917 57.4483729C252.952917 57.7275394 252.975927 58.0187692 252.975927 58.3084911L252.996937 58.3084911C253.231043 57.7950942 253.876336 57.3147711 254.732725 57.3147711 256.096345 57.3147711 256.708623 58.1853442 256.708623 59.4477757L256.708623 62.6735203 255.842229 62.6735203 255.842229 59.5363409C255.842229 58.6656673 255.464058 58.1177893 254.653689 58.1177893 253.531179 58.1177893 253.040957 58.9328709 253.040957 60.1277475L253.040957 62.6735203 252.174563 62.6735203 252.174563 58.6881856zM260.792478 60.1623292C259.692979 60.1623292 258.981656 60.4640139 258.981656 61.166504 258.981656 61.8254655 259.470878 62.0716588 260.126176 62.0716588 261.127631 62.0716588 261.637862 61.3451424 261.658872 60.4969871L261.658872 60.1623292 260.792478 60.1623292zM258.281337 58.1177893C258.81458 57.5714193 259.592933 57.3147711 260.349277 57.3147711 261.881973 57.3147711 262.525266 58.0517424 262.525266 59.5257854L262.525266 61.769974C262.525266 62.0716588 262.560281 62.4064172 262.604301 62.6736208L261.770923 62.6736208C261.715898 62.4393904 261.715898 62.1151874 261.715898 61.8930204L261.693888 61.8930204C261.348731 62.4289355 260.771469 62.8087306 259.98111 62.8087306 258.926631 62.8087306 258.047231 62.2713075 258.047231 61.2565772 258.047231 59.5257854 260.049141 59.4252574 261.325721 59.4252574L261.658872 59.4252574 261.658872 59.2691373C261.658872 58.5096477 261.180655 58.1177893 260.370287 58.1177893 259.816035 58.1177893 259.237772 58.3084911 258.826585 58.6881856L258.281337 58.1177893zM266.594114 58.1186941C265.470604 58.1186941 264.750276 58.9682568 264.750276 60.0626053 264.750276 61.1568534 265.470604 62.0049081 266.594114 62.0049081 267.715623 62.0049081 268.436951 61.1568534 268.436951 60.0626053 268.436951 58.9682568 267.715623 58.1186941 266.594114 58.1186941zM268.436951 61.74826L268.415942 61.74826C268.091794 62.3396666 267.349457 62.8095348 266.414032 62.8095348 264.961372 62.8095348 263.814851 61.6252136 263.814851 60.0626053 263.814851 58.4759708 264.916352 57.3155753 266.549094 57.3155753 267.304437 57.3155753 267.936724 57.6503338 268.415942 58.2087672L268.436951 58.2087672 268.436951 54.2323795 269.303345 54.2323795 269.303345 62.6744251 268.436951 62.6744251 268.436951 61.74826zM273.349183 60.1623292C272.247682 60.1623292 271.53736 60.4640139 271.53736 61.166504 271.53736 61.8254655 272.026582 62.0716588 272.680879 62.0716588 273.682334 62.0716588 274.193566 61.3451424 274.215576 60.4969871L274.215576 60.1623292 273.349183 60.1623292zM270.838042 58.1177893C271.371284 57.5714193 272.149638 57.3147711 272.903981 57.3147711 274.437677 57.3147711 275.08197 58.0517424 275.08197 59.5257854L275.08197 61.769974C275.08197 62.0716588 275.114985 62.4064172 275.161006 62.6736208L274.327627 62.6736208C274.270601 62.4393904 274.270601 62.1151874 274.270601 61.8930204L274.248591 61.8930204C273.904435 62.4289355 273.327173 62.8087306 272.536814 62.8087306 271.483335 62.8087306 270.602935 62.2713075 270.602935 61.2565772 270.602935 59.5257854 272.604845 59.4252574 273.882425 59.4252574L274.215576 59.4252574 274.215576 59.2691373C274.215576 58.5096477 273.737359 58.1177893 272.925991 58.1177893 272.370738 58.1177893 271.794477 58.3084911 271.38329 58.6881856L270.838042 58.1177893z"/>
    <polygon fill="#FFF" fill-rule="nonzero" points="277.28 64.215 276.424 64.215 277.18 61.535 278.192 61.535"/>
    <polygon fill="#FFF" fill-rule="nonzero" points="282.089 54.769 283.125 54.769 284.912 61.335 284.933 61.335 286.866 54.769 287.912 54.769 289.835 61.335 289.856 61.335 291.68 54.769 292.657 54.769 290.346 62.676 289.334 62.676 287.391 55.975 287.369 55.975 285.413 62.676 284.389 62.676"/>
    <path fill="#FFF" fill-rule="nonzero" d="M296.923893 59.5918324C296.890878 58.7107039 296.312615 58.1177893 295.356181 58.1177893 294.400747 58.1177893 293.768459 58.7107039 293.658409 59.5918324L296.923893 59.5918324zM297.669231 61.7248369C297.056953 62.5174002 296.324621 62.80863 295.356181 62.80863 293.723439 62.80863 292.722984 61.5792723 292.722984 60.0617006 292.722984 58.4419923 293.856499 57.3147711 295.391197 57.3147711 296.857863 57.3147711 297.855316 58.318946 297.855316 60.0496372L297.855316 60.3289042 293.658409 60.3289042C293.723439 61.2340589 294.412752 62.0041039 295.356181 62.0041039 296.101519 62.0041039 296.600746 61.7353924 297.012933 61.2115406L297.669231 61.7248369zM299.306975 61.3000053C299.654133 61.7248369 300.031305 62.0040034 300.642582 62.0040034 301.18683 62.0040034 301.785101 61.7698735 301.785101 61.1994773 301.785101 60.6410438 301.229849 60.4954792 300.675597 60.3739408 299.687148 60.1502658 298.840764 59.9385537 298.840764 58.8548611 298.840764 57.8386229 299.818208 57.3147711 300.786648 57.3147711 301.519981 57.3147711 302.198289 57.5924296 302.55345 58.2634545L301.832123 58.7437776C301.609021 58.374538 301.241854 58.1177893 300.729622 58.1177893 300.252405 58.1177893 299.707157 58.3520197 299.707157 58.8443057 299.707157 59.2795922 300.33044 59.468786 301.018753 59.6023878 301.941172 59.7810262 302.720526 60.1171921 302.720526 61.166504 302.720526 62.3493173 301.675051 62.8071221 300.642582 62.8071221 299.763183 62.8071221 299.130895 62.5729922 298.619663 61.8359205L299.306975 61.3000053zM306.772367 58.1837357L305.239671 58.1837357 305.239671 60.7971639C305.239671 61.4665803 305.249675 62.0024955 306.016023 62.0024955 306.27214 62.0024955 306.550266 61.947004 306.782372 61.8238571L306.817387 62.6164204C306.517251 62.7500222 306.128074 62.8071221 305.805928 62.8071221 304.573368 62.8071221 304.371276 62.1360973 304.371276 61.0538121L304.371276 58.1837357 303.239762 58.1837357 303.239762 57.4467645 304.371276 57.4467645 304.371276 55.962166 305.239671 55.962166 305.239671 57.4467645 306.772367 57.4467645 306.772367 58.1837357z"/>
    <polygon fill="#FFF" fill-rule="nonzero" points="312.018 54.769 311.082 54.769 311.082 62.676 312.018 62.676"/>
    <path fill="#FFF" fill-rule="nonzero" d="M313.816567 58.6881856C313.816567 58.2078625 313.771547 57.7950942 313.771547 57.4483729L314.594921 57.4483729C314.594921 57.7275394 314.616931 58.0187692 314.616931 58.3084911L314.63794 58.3084911C314.871046 57.7950942 315.516339 57.3147711 316.370728 57.3147711 317.737348 57.3147711 318.350627 58.1853442 318.350627 59.4477757L318.350627 62.6735203 317.484233 62.6735203 317.484233 59.5363409C317.484233 58.6656673 317.106062 58.1177893 316.294693 58.1177893 315.173184 58.1177893 314.682961 58.9328709 314.682961 60.1277475L314.682961 62.6735203 313.816567 62.6735203 313.816567 58.6881856zM322.470499 58.1186941C321.348989 58.1186941 320.627661 58.9682568 320.627661 60.0626053 320.627661 61.1568534 321.348989 62.0049081 322.470499 62.0049081 323.593009 62.0049081 324.314336 61.1568534 324.314336 60.0626053 324.314336 58.9682568 323.593009 58.1186941 322.470499 58.1186941zM324.314336 61.74826L324.293327 61.74826C323.96918 62.3396666 323.226842 62.8095348 322.291417 62.8095348 320.837757 62.8095348 319.692237 61.6252136 319.692237 60.0626053 319.692237 58.4759708 320.792736 57.3155753 322.425478 57.3155753 323.181822 57.3155753 323.81511 57.6503338 324.293327 58.2087672L324.314336 58.2087672 324.314336 54.2323795 325.18073 54.2323795 325.18073 62.6744251 324.314336 62.6744251 324.314336 61.74826zM326.860493 57.448775L327.726887 57.448775 327.726887 62.674023 326.860493 62.674023 326.860493 57.448775zM327.291689 54.7694004C327.647851 54.7694004 327.926978 55.0606303 327.926978 55.4058436 327.926978 55.7750832 327.659856 56.0422868 327.291689 56.0422868 326.925523 56.0422868 326.660402 55.7750832 326.660402 55.4058436 326.660402 55.0606303 326.936528 54.7694004 327.291689 54.7694004zM333.350441 59.5918324C333.315426 58.7107039 332.739164 58.1177893 331.782729 58.1177893 330.827295 58.1177893 330.194007 58.7107039 330.082957 59.5918324L333.350441 59.5918324zM334.09578 61.7248369C333.483502 62.5174002 332.748168 62.80863 331.782729 62.80863 330.148987 62.80863 329.149533 61.5792723 329.149533 60.0617006 329.149533 58.4419923 330.283048 57.3147711 331.815744 57.3147711 333.283411 57.3147711 334.282865 58.318946 334.282865 60.0496372L334.282865 60.3289042 330.082957 60.3289042C330.148987 61.2340589 330.839301 62.0041039 331.782729 62.0041039 332.529068 62.0041039 333.027295 61.7353924 333.439482 61.2115406L334.09578 61.7248369zM335.733524 61.3000053C336.078681 61.7248369 336.456853 62.0040034 337.06813 62.0040034 337.611377 62.0040034 338.21265 61.7698735 338.21265 61.1994773 338.21265 60.6410438 337.656398 60.4954792 337.101145 60.3739408 336.111696 60.1502658 335.268313 59.9385537 335.268313 58.8548611 335.268313 57.8386229 336.244756 57.3147711 337.211195 57.3147711 337.946529 57.3147711 338.622837 57.5924296 338.979999 58.2634545L338.25667 58.7437776C338.034569 58.374538 337.667403 58.1177893 337.15617 58.1177893 336.677953 58.1177893 336.134706 58.3520197 336.134706 58.8443057 336.134706 59.2795922 336.756989 59.468786 337.446302 59.6023878 338.367721 59.7810262 339.146074 60.1171921 339.146074 61.166504 339.146074 62.3493173 338.1016 62.8071221 337.06813 62.8071221 336.189731 62.8071221 335.557444 62.5729922 335.047212 61.8359205L335.733524 61.3000053z"/>
  </g>
</svg>
