<svg xmlns="http://www.w3.org/2000/svg" width="13" height="16" viewBox="0 0 13 16">
  <path d="M11.1786,5.48296 L7.42553,5.48296 L7.42553,1.87661 L11.1786,1.87661 L11.1786,5.48296 Z M7.42553,13.389 L7.42553,7.44781 L11.0263,7.44781 C11.0263,7.44781 10.671,11.4252 7.42553,13.389 Z M5.59993,5.48296 L1.78092,5.48296 L1.78092,1.87552 L5.59993,1.87661 L5.59993,5.48296 Z M5.56824,13.401 C2.37318,11.4915 1.96172,7.44233 1.96172,7.44233 L5.56252,7.44507 L5.56824,13.401 Z M6.48935,16 L6.49766,16 C6.49766,16 12.9241,13.8669 13,5.15904 L12.9797,0 L0.0213001,0 L0,5.15904 C0.0748112,13.8669 6.50286,16 6.50286,16 L6.51273,16"/>
</svg>
